{
.appVersion = "3324";
.formatVersion = 3;
classes = (
{
automatic = 1;

glyphs = (
{
glyphname = A;
kernLeft = A;
kernRight = A;
lastChange = "2024-10-31 14:38:07 +0000";
layers = (
{
anchors = (
{
name = bottom;
pos = (302,0);
},
{
name = ogonek;
pos = (576,1);
},
{
name = top;
pos = (610,962);
}
);
background = {
shapes = (
{
closed = 1;
nodes = (
(588,-3,o),
(601,10,o),
(601,24,cs),
(601,32,o),
(599,46,o),
(594,69,cs),
(588,92,o),
(584,109,o),
(582,121,cs),
(577,145,o),
(575,166,o),
(575,194,c),
(574,208,o),
(574,220,o),
(573,228,c),
(571,236,o),
(571,241,o),
(571,243,cs),
(571,248,l),
(576,248,o),
(582,247,o),
(587,246,c),
(592,245,o),
(598,245,o),
(605,244,cs),
(619,243,o),
(634,257,o),
(634,269,cs),
(634,274,o),
(632,279,o),
(629,284,cs),
(625,288,o),
(604,292,o),
(564,297,c),
(556,373,o),
(552,437,o),
(552,490,cs),
(552,543,o),
(557,609,o),
(566,687,cs),
(576,764,o),
(582,818,o),
(585,847,cs),
(588,875,o),
(594,903,o),
(601,929,c),
(608,937,o),
(610,952,o),
(600,962,c),
(599,972,o),
(594,977,o),
(586,977,cs),
(575,977,o),
(562,967,o),
(556,953,c),
(523,803,o),
(346,480,o),
(233,310,c),
(172,313,o),
(129,315,o),
(103,319,c),
(89,317,o),
(75,303,o),
(75,289,cs),
(75,282,o),
(80,276,o),
(89,273,c),
(114,271,o),
(152,268,o),
(202,265,c),
(197,257,o),
(191,249,o),
(185,242,cs),
(179,234,o),
(171,224,o),
(162,211,cs),
(100,128,o),
(35,74,o),
(-35,47,c),
(-36,46,l),
(-40,51,o),
(-44,54,o),
(-51,54,cs),
(-63,54,o),
(-78,40,o),
(-78,23,cs),
(-78,6,o),
(-69,-2,o),
(-52,-2,cs),
(-38,-2,o),
(-18,4,o),
(8,17,c),
(84,52,o),
(165,134,o),
(251,264,c),
(296,263,o),
(341,262,o),
(387,262,cs),
(432,261,o),
(477,258,o),
(521,254,c),
(524,240,l),
(525,231,o),
(526,219,o),
(528,204,cs),
(529,188,o),
(530,172,o),
(532,154,cs),
(535,118,o),
(539,78,o),
(545,48,cs),
(552,19,o),
(562,-3,o),
(575,-3,cs)
);
},
{
closed = 1;
nodes = (
(478,305,o),
(439,307,o),
(400,308,cs),
(360,308,o),
(321,309,o),
(282,309,c),
(340,399,o),
(450,587,o),
(529,751,c),
(515,645,o),
(508,554,o),
(508,479,cs),
(508,405,o),
(511,345,o),
(516,302,c)
);
}
);
};
layerId = "79E705E9-1ED7-4818-9510-7FD15DA5A41F";
shapes = (
{
closed = 1;
nodes = (
(588,-3,o),
(601,10,o),
(601,24,cs),
(601,-12,o),
(571,237,o),
(571,248,c),
(605,244,l),
(619,243,o),
(634,257,o),
(634,269,cs),
(634,290,o),
(618,290,o),
(564,297,c),
(556,373,o),
(552,437,o),
(552,490,cs),
(552,568,o),
(578,844,o),
(601,929,c),
(614,944,o),
(599,977,o),
(586,977,cs),
(575,977,o),
(562,967,o),
(556,953,c),
(523,803,o),
(346,480,o),
(233,310,c),
(172,313,o),
(129,315,o),
(103,319,c),
(89,317,o),
(75,303,o),
(75,289,cs),
(75,265,o),
(135,269,o),
(202,265,c),
(127,161,o),
(62,85,o),
(-36,46,c),
(-40,51,o),
(-44,54,o),
(-51,54,cs),
(-63,54,o),
(-78,40,o),
(-78,23,cs),
(-78,6,o),
(-69,-2,o),
(-52,-2,cs),
(-38,-2,o),
(-18,4,o),
(8,17,c),
(84,52,o),
(165,134,o),
(251,264,c),
(347,262,o),
(419,263,o),
(521,254,c),
(533,156,o),
(535,97,o),
(545,48,cs),
(552,19,o),
(562,-3,o),
(575,-3,cs)
);
},
{
closed = 1;
nodes = (
(447,307,o),
(351,309,o),
(282,309,c),
(340,399,o),
(450,587,o),
(529,751,c),
(515,645,o),
(508,554,o),
(508,479,cs),
(508,405,o),
(511,345,o),
(516,302,c)
);
}
);
width = 702;
}
);
note = A;
unicode = 65;
},
{
glyphname = Abreve;
kernLeft = A;
kernRight = A;
lastChange = "2024-10-31 14:38:07 +0000";
layers = (
{
layerId = "79E705E9-1ED7-4818-9510-7FD15DA5A41F";
shapes = (
{
ref = A;
},
{
pos = (468,457);
ref = brevecomb;
}
);
width = 702;
},
{
anchors = (
{
name = bottom;
pos = (302,0);
},
{
name = ogonek;
pos = (576,1);
},
{
name = top;
pos = (615,1125);
}
);
associatedMasterId = "79E705E9-1ED7-4818-9510-7FD15DA5A41F";
layerId = "2D20584F-649D-4241-BD5C-F9521AB75C07";
name = "Regular Italic Aug 3 16, 14:46";
shapes = (
{
closed = 1;
nodes = (
(588,-3,o),
(601,10,o),
(601,24,cs),
(601,-12,o),
(571,237,o),
(571,248,c),
(605,244,l),
(619,243,o),
(634,257,o),
(634,269,cs),
(634,290,o),
(618,290,o),
(564,297,c),
(556,373,o),
(552,437,o),
(552,490,cs),
(552,568,o),
(578,844,o),
(601,929,c),
(614,944,o),
(599,977,o),
(586,977,cs),
(575,977,o),
(562,967,o),
(556,953,c),
(523,803,o),
(346,480,o),
(233,310,c),
(172,313,o),
(129,315,o),
(103,319,c),
(89,317,o),
(75,303,o),
(75,289,cs),
(75,265,o),
(135,269,o),
(202,265,c),
(127,161,o),
(62,85,o),
(-36,46,c),
(-40,51,o),
(-44,54,o),
(-51,54,cs),
(-63,54,o),
(-78,40,o),
(-78,23,cs),
(-78,6,o),
(-69,-2,o),
(-52,-2,cs),
(-38,-2,o),
(-18,4,o),
(8,17,c),
(84,52,o),
(165,134,o),
(251,264,c),
(347,262,o),
(419,263,o),
(521,254,c),
(533,156,o),
(535,97,o),
(545,48,cs),
(552,19,o),
(562,-3,o),
(575,-3,cs)
);
},
{
closed = 1;
nodes = (
(447,307,o),
(351,309,o),
(282,309,c),
(340,399,o),
(450,587,o),
(529,751,c),
(515,645,o),
(508,554,o),
(508,479,cs),
(508,405,o),
(511,345,o),
(516,302,c)
);
},
{
closed = 1;
nodes = (
(649.8,1037,o),
(709.8,1100,o),
(761,1188,c),
(763.4,1192,o),
(764.2,1197,o),
(764.2,1202,cs),
(764.2,1213,o),
(759.4,1219,o),
(750.6,1219,cs),
(745,1219,o),
(739.4,1216,o),
(734.6,1211,c),
(690.6,1136,o),
(648.2,1082,o),
(581,1082,cs),
(552.2,1082,o),
(536.2,1103,o),
(531.4,1146,cs),
(527.4,1175,o),
(525,1193,o),
(522.6,1200,cs),
(520.2,1207,o),
(516.2,1210,o),
(510.6,1210,cs),
(500.2,1210,o),
(488.2,1196,o),
(488.2,1179,cs),
(488.2,1096,o),
(524.2,1037,o),
(586.6,1037,cs)
);
}
);
width = 702;
}
);
unicode = 258;
},
{
glyphname = AE;
lastChange = "2024-10-31 14:38:07 +0000";
layers = (
{
anchors = (
{
name = bottom;
pos = (482,0);
},
{
name = top;
pos = (649,960);
}
);
layerId = "79E705E9-1ED7-4818-9510-7FD15DA5A41F";
shapes = (
{
closed = 1;
nodes = (
(818,-9,o),
(837,-8,o),
(854,-3,cs),
(867,0,o),
(873,7,o),
(873,19,cs),
(873,29,o),
(867,36,o),
(856,39,c),
(843,38,o),
(820,37,o),
(787,37,cs),
(401,45,l),
(429,101,o),
(443,176,o),
(456,259,c),
(513,256,o),
(563,251,o),
(603,243,c),
(620,243,o),
(634,257,o),
(634,269,cs),
(634,300,o),
(551,300,o),
(463,305,c),
(464,312,o),
(484,416,o),
(497,472,c),
(630,468,o),
(749,462,o),
(787,473,cs),
(800,478,o),
(806,486,o),
(806,500,cs),
(806,528,o),
(691,515,o),
(507,518,c),
(518,568,o),
(572,809,o),
(597,895,c),
(654,914,o),
(740,921,o),
(952,921,c),
(965,925,o),
(976,938,o),
(976,951,cs),
(976,964,o),
(958,968,o),
(899,968,cs),
(768,968,o),
(671,959,o),
(606,943,c),
(614,966,o),
(604,977,o),
(586,977,cs),
(559,977,o),
(556,944,o),
(548,921,c),
(529,913,o),
(520,907,o),
(520,893,cs),
(520,884,o),
(526,880,o),
(535,877,c),
(519,829,o),
(499,781,o),
(475,735,cs),
(381,554,o),
(301,412,o),
(233,310,c),
(172,313,o),
(129,315,o),
(103,319,c),
(89,317,o),
(75,303,o),
(75,289,cs),
(75,282,o),
(80,276,o),
(89,273,c),
(114,271,o),
(152,268,o),
(202,265,c),
(114,141,o),
(50,80,o),
(-36,46,c),
(-39,51,o),
(-44,54,o),
(-50,54,cs),
(-64,54,o),
(-78,40,o),
(-78,23,cs),
(-78,6,o),
(-69,-2,o),
(-52,-2,cs),
(10,-2,o),
(131,82,o),
(251,264,c),
(410,261,l),
(398,191,o),
(373,67,o),
(346,31,cs),
(337,18,o),
(345,-1,o),
(371,-1,c),
(405,2,l),
(427,2,o),
(734,-9,o),
(793,-9,cs)
);
},
{
closed = 1;
nodes = (
(282,309,l),
(342,402,o),
(416,532,o),
(502,696,c),
(417,307,l)
);
}
);
width = 953;
}
);
metricLeft = A;
metricRight = E;
note = AE;
unicode = 198;
},
{
glyphname = B;
kernLeft = B;
kernRight = B;
lastChange = "2024-10-31 14:38:07 +0000";
layers = (
{
anchors = (
{
name = bottom;
pos = (257,0);
},
{
name = top;
pos = (257,960);
}
);
layerId = "79E705E9-1ED7-4818-9510-7FD15DA5A41F";
shapes = (
{
closed = 1;
nodes = (
(33,-60,o),
(46,-48,o),
(50,-31,c),
(50,-24,o),
(51,-16,o),
(53,-7,c),
(74,-8,l),
(323,-8,o),
(479,88,o),
(479,278,cs),
(479,377,o),
(379,489,o),
(266,496,c),
(368,510,o),
(465,619,o),
(465,730,cs),
(465,865,o),
(383,952,o),
(260,956,c),
(249,967,o),
(236,967,o),
(229,954,c),
(179,944,o),
(133,919,o),
(133,888,cs),
(133,873,o),
(144,868,o),
(150,868,cs),
(166,868,o),
(186,897,o),
(209,907,c),
(166,771,o),
(162,659,o),
(126,510,c),
(90,510,o),
(72,502,o),
(72,486,cs),
(72,475,o),
(77,469,o),
(87,469,c),
(117,468,l),
(20,46,l),
(-23,46,o),
(-51,65,o),
(-65,65,cs),
(-72,65,o),
(-82,54,o),
(-82,46,cs),
(-82,31,o),
(-76,17,o),
(-19,6,cs),
(-9,4,o),
(0,2,o),
(10,0,c),
(6,-16,o),
(4,-30,o),
(3,-40,c),
(4,-53,o),
(11,-60,o),
(22,-60,cs)
);
},
{
closed = 1;
nodes = (
(84,37,o),
(71,38,o),
(62,39,c),
(61,33,o),
(158,456,o),
(160,466,c),
(181,464,o),
(199,464,o),
(213,464,cs),
(324,464,o),
(433,372,o),
(433,272,cs),
(433,129,o),
(314,37,o),
(101,37,cs)
);
},
{
closed = 1;
nodes = (
(203,657,o),
(207,769,o),
(250,913,c),
(348,911,o),
(416,849,o),
(416,729,cs),
(416,610,o),
(307,511,o),
(170,511,c)
);
}
);
width = 514;
}
);
note = B;
unicode = 66;
},
{
glyphname = C;
kernLeft = O;
kernRight = C;
lastChange = "2024-10-31 14:38:07 +0000";
layers = (
{
anchors = (
{
name = bottom;
pos = (267,0);
},
{
name = top;
pos = (459,960);
}
);
layerId = "79E705E9-1ED7-4818-9510-7FD15DA5A41F";
shapes = (
{
closed = 1;
nodes = (
(288,-15,o),
(340,6,o),
(397,49,cs),
(422,69,o),
(458,84,o),
(458,107,cs),
(458,119,o),
(452,125,o),
(441,125,cs),
(430,125,o),
(408,106,o),
(385,90,cs),
(334,53,o),
(288,34,o),
(248,34,cs),
(140,34,o),
(89,154,o),
(89,293,cs),
(89,431,o),
(180,722,o),
(290,852,cs),
(331,901,o),
(370,926,o),
(406,926,cs),
(479,926,o),
(532,869,o),
(542,786,cs),
(548,739,o),
(586,735,o),
(592,776,c),
(592,866,o),
(511,974,o),
(407,974,cs),
(303,974,o),
(207,856,o),
(141,700,cs),
(74,543,o),
(38,379,o),
(38,268,cs),
(38,150,o),
(106,-15,o),
(240,-15,cs)
);
}
);
width = 544;
}
);
metricLeft = O;
note = C;
unicode = 67;
},
{
glyphname = D;
kernLeft = D;
kernRight = Z;
lastChange = "2024-10-31 14:38:07 +0000";
layers = (
{
anchors = (
{
name = bottom;
pos = (137,0);
},
{
name = center;
pos = (270,517);
},
{
name = top;
pos = (438,960);
}
);
layerId = "79E705E9-1ED7-4818-9510-7FD15DA5A41F";
shapes = (
{
closed = 1;
nodes = (
(101,-55,o),
(109,-40,o),
(112,-10,c),
(179,-10,o),
(239,-4,o),
(298,13,cs),
(511,73,o),
(695,253,o),
(695,628,cs),
(695,899,o),
(559,1003,o),
(339,956,c),
(334,963,o),
(318,965,o),
(307,948,c),
(258,935,o),
(210,913,o),
(162,883,cs),
(153,877,o),
(149,870,o),
(149,860,cs),
(149,848,o),
(155,842,o),
(167,842,cs),
(179,842,o),
(222,873,o),
(288,896,c),
(218,688,o),
(146,400,o),
(71,35,c),
(16,35,o),
(18,55,o),
(-13,55,cs),
(-20,55,o),
(-29,44,o),
(-29,37,cs),
(-29,2,o),
(21,3,o),
(65,-7,c),
(63,-32,o),
(58,-55,o),
(83,-55,cs)
);
},
{
closed = 1;
nodes = (
(139,127,o),
(157,214,o),
(175,295,cs),
(226,528,o),
(279,733,o),
(335,909,c),
(504,955,o),
(648,881,o),
(648,616,cs),
(648,314,o),
(493,33,o),
(120,33,c)
);
}
);
width = 711;
}
);
note = D;
unicode = 68;
},
{
glyphname = E;
kernLeft = E;
kernRight = E;
lastChange = "2024-10-31 14:38:07 +0000";
layers = (
{
anchors = (
{
name = bottom;
pos = (234,0);
},
{
name = ogonek;
pos = (503,5);
},
{
name = top;
pos = (425,960);
},
{
name = topleft;
pos = (10,960);
}
);
layerId = "79E705E9-1ED7-4818-9510-7FD15DA5A41F";
shapes = (
{
closed = 1;
nodes = (
(493,-9,o),
(515,-5,o),
(515,22,cs),
(515,30,o),
(509,36,o),
(498,39,c),
(465,36,o),
(546,35,o),
(43,45,c),
(72,144,o),
(117,370,o),
(145,472,c),
(365,467,ls),
(409,467,o),
(448,469,o),
(448,500,cs),
(448,507,o),
(447,516,o),
(431,516,c),
(383,514,o),
(208,513,o),
(155,518,c),
(180,617,o),
(208,789,o),
(239,895,c),
(296,914,o),
(382,921,o),
(594,921,cs),
(603,921,o),
(618,930,o),
(618,950,cs),
(618,958,o),
(612,963,o),
(599,965,cs),
(543,974,o),
(337,965,o),
(246,943,c),
(245,953,o),
(239,958,o),
(229,958,cs),
(209,958,o),
(199,948,o),
(199,927,c),
(180,917,o),
(170,905,o),
(170,894,cs),
(170,881,o),
(175,875,o),
(186,874,c),
(147,698,o),
(115,547,o),
(89,424,cs),
(63,300,o),
(45,218,o),
(36,178,cs),
(21,110,o),
(-3,43,o),
(-12,31,cs),
(-18,23,o),
(-19,-1,o),
(13,-1,c),
(47,2,l),
(65,2,o),
(376,-9,o),
(433,-9,cs)
);
}
);
width = 594;
}
);
note = E;
unicode = 69;
},
{
glyphname = F;
kernLeft = F;
kernRight = F;
lastChange = "2024-10-31 14:38:07 +0000";
layers = (
{
anchors = (
{
name = bottom;
pos = (179,0);
},
{
name = top;
pos = (379,960);
}
);
layerId = "79E705E9-1ED7-4818-9510-7FD15DA5A41F";
shapes = (
{
closed = 1;
nodes = (
(175,-26,o),
(184,-19,o),
(190,-6,c),
(213,98,o),
(260,324,o),
(283,493,c),
(399,505,o),
(546,506,o),
(581,510,c),
(595,512,o),
(607,525,o),
(607,539,cs),
(607,546,o),
(603,555,o),
(593,555,c),
(510,555,o),
(440,552,o),
(289,538,c),
(292,565,ls),
(304,680,o),
(321,737,o),
(342,846,c),
(499,887,o),
(678,908,o),
(880,911,c),
(894,915,o),
(905,928,o),
(905,940,cs),
(905,948,o),
(899,954,o),
(888,957,c),
(686,954,o),
(507,933,o),
(352,894,c),
(359,931,l),
(368,946,o),
(366,962,o),
(346,962,cs),
(336,962,o),
(328,957,o),
(321,947,c),
(315,929,o),
(310,907,o),
(304,881,c),
(258,868,o),
(59,820,o),
(59,766,cs),
(59,754,o),
(64,748,o),
(77,748,cs),
(95,748,o),
(132,790,o),
(292,833,c),
(271,735,o),
(256,643,o),
(246,558,cs),
(243,533,l),
(208,532,l),
(184,532,o),
(151,537,o),
(151,506,cs),
(151,481,o),
(224,486,o),
(235,488,c),
(219,363,o),
(193,219,o),
(146,-6,c),
(147,-19,o),
(152,-26,o),
(163,-26,cs)
);
}
);
width = 758;
}
);
note = F;
unicode = 70;
},
{
glyphname = G;
kernLeft = O;
kernRight = G;
lastChange = "2024-10-31 14:38:07 +0000";
layers = (
{
anchors = (
{
name = bottom;
pos = (274,0);
},
{
name = top;
pos = (437,957);
}
);
layerId = "79E705E9-1ED7-4818-9510-7FD15DA5A41F";
shapes = (
{
closed = 1;
nodes = (
(419,-448,o),
(435,-436,o),
(437,-420,c),
(467,-272,o),
(480,-183,o),
(522,-24,cs),
(566,143,o),
(631,295,o),
(716,435,c),
(719,442,o),
(720,447,o),
(720,450,cs),
(720,461,o),
(712,467,o),
(696,467,c),
(595,435,o),
(504,410,o),
(424,392,c),
(406,402,o),
(387,407,o),
(368,407,cs),
(337,407,o),
(299,392,o),
(255,360,c),
(247,353,o),
(243,345,o),
(243,337,cs),
(243,326,o),
(250,320,o),
(263,319,c),
(317,326,o),
(366,334,o),
(409,343,c),
(461,306,o),
(531,232,o),
(537,215,c),
(537,188,o),
(532,161,o),
(509,126,cs),
(467,62,o),
(389,30,o),
(273,30,cs),
(132,30,o),
(87,159,o),
(87,300,cs),
(87,520,o),
(245,910,o),
(437,910,cs),
(498,910,o),
(541,879,o),
(567,816,cs),
(593,757,o),
(627,705,o),
(636,770,c),
(616,884,o),
(550,957,o),
(437,957,cs),
(245,957,o),
(41,571,o),
(41,279,cs),
(41,133,o),
(116,-15,o),
(266,-15,cs),
(364,-15,o),
(443,12,o),
(504,67,c),
(467,-53,o),
(438,-140,o),
(391,-427,c),
(392,-441,o),
(398,-448,o),
(409,-448,cs)
);
},
{
closed = 1;
nodes = (
(557,266,o),
(507,323,o),
(472,356,c),
(532,370,o),
(591,387,o),
(650,407,c),
(635,382,o),
(586,282,o),
(571,249,c)
);
}
);
width = 745;
}
);
metricLeft = O;
note = G;
unicode = 71;
},
{
glyphname = H;
kernLeft = H;
kernRight = H;
lastChange = "2024-10-31 14:38:07 +0000";
layers = (
{
anchors = (
{
name = bottom;
pos = (338,0);
},
{
name = center;
pos = (439,356);
},
{
name = top;
pos = (556,960);
},
{
name = topleft;
pos = (230,960);
}
);
layerId = "79E705E9-1ED7-4818-9510-7FD15DA5A41F";
shapes = (
{
closed = 1;
nodes = (
(125,-34,o),
(134,-27,o),
(141,-14,c),
(183,155,o),
(228,296,o),
(269,464,c),
(372,492,o),
(501,509,o),
(656,515,c),
(642,427,ls),
(631,366,o),
(583,148,o),
(578,10,c),
(579,-4,o),
(584,-11,o),
(595,-11,cs),
(607,-11,o),
(622,1,o),
(624,17,c),
(630,183,o),
(682,372,o),
(701,517,c),
(735,517,o),
(764,516,o),
(813,516,c),
(827,520,o),
(837,533,o),
(837,544,cs),
(837,553,o),
(832,562,o),
(820,562,cs),
(708,562,l),
(720,656,o),
(770,948,o),
(771,961,c),
(771,973,o),
(762,978,o),
(754,978,cs),
(742,978,o),
(728,969,o),
(725,954,c),
(722,929,o),
(691,777,o),
(662,561,c),
(508,554,o),
(381,538,o),
(281,512,c),
(313,711,o),
(333,858,o),
(341,951,c),
(342,963,o),
(338,968,o),
(324,968,cs),
(307,968,o),
(297,960,o),
(295,944,cs),
(286,877,o),
(265,636,o),
(232,499,c),
(153,478,o),
(119,454,o),
(119,403,cs),
(119,385,o),
(126,374,o),
(140,374,cs),
(163,374,o),
(164,388,o),
(164,403,cs),
(164,428,o),
(176,442,o),
(220,455,c),
(179,304,o),
(133,138,o),
(96,-14,c),
(97,-27,o),
(103,-34,o),
(113,-34,cs)
);
}
);
width = 837;
}
);
note = H;
unicode = 72;
},
{
glyphname = Hbar;
kernLeft = H;
kernRight = H;
lastChange = "2024-10-31 14:38:07 +0000";
layers = (
{
layerId = "79E705E9-1ED7-4818-9510-7FD15DA5A41F";
shapes = (
{
closed = 1;
nodes = (
(609,763,o),
(742,767,o),
(868,767,c),
(881,771,o),
(892,784,o),
(892,796,cs),
(892,804,o),
(886,813,o),
(875,813,cs),
(748,813,o),
(615,809,o),
(496,802,c),
(194,789,l),
(191,791,o),
(187,792,o),
(181,792,cs),
(169,792,o),
(155,779,o),
(155,767,cs),
(155,743,o),
(165,734,o),
(407,748,cs),
(529,755,l)
);
},
{
ref = H;
}
);
width = 837;
}
);
unicode = 294;
},
{
glyphname = I;
kernLeft = I;
kernRight = I;
lastChange = "2024-10-31 14:38:07 +0000";
layers = (
{
anchors = (
{
name = bottom;
pos = (161,0);
},
{
name = ogonek;
pos = (246,5);
},
{
name = top;
pos = (393,960);
},
{
name = topleft;
pos = (367,960);
}
);
layerId = "79E705E9-1ED7-4818-9510-7FD15DA5A41F";
shapes = (
{
closed = 1;
nodes = (
(280,-8,o),
(293,8,o),
(293,16,cs),
(293,34,o),
(276,42,o),
(190,45,c),
(225,238,o),
(291,528,o),
(387,915,c),
(398,915,o),
(413,914,o),
(457,914,c),
(472,917,o),
(484,930,o),
(484,943,cs),
(484,950,o),
(479,956,o),
(469,959,c),
(433,959,o),
(393,960,o),
(271,960,c),
(254,960,o),
(240,945,o),
(240,934,cs),
(240,921,o),
(246,915,o),
(259,915,c),
(340,915,l),
(324,844,o),
(294,719,o),
(252,539,cs),
(209,358,o),
(175,194,o),
(147,46,c),
(85,46,o),
(49,37,o),
(49,12,cs),
(49,3,o),
(55,-5,o),
(69,-5,cs),
(74,-5,l),
(140,14,o),
(205,-10,o),
(264,-10,c)
);
}
);
width = 435;
}
);
metricLeft = I;
metricRight = I;
note = I;
unicode = 73;
},
{
glyphname = J;
kernLeft = J;
kernRight = J;
lastChange = "2024-10-31 14:38:07 +0000";
layers = (
{
anchors = (
{
name = bottom;
pos = (176,0);
},
{
name = top;
pos = (388,960);
}
);
layerId = "79E705E9-1ED7-4818-9510-7FD15DA5A41F";
shapes = (
{
closed = 1;
nodes = (
(326,-13,o),
(398,138,o),
(437,337,cs),
(451,415,o),
(516,776,o),
(561,945,c),
(558,956,o),
(552,962,o),
(542,962,cs),
(526,961,o),
(520,965,o),
(506,958,cs),
(484,945,o),
(462,939,o),
(440,939,cs),
(395,939,o),
(317,966,o),
(275,971,c),
(261,969,o),
(247,955,o),
(247,941,cs),
(247,935,o),
(251,929,o),
(261,925,c),
(311,920,o),
(386,892,o),
(439,892,cs),
(464,892,o),
(488,899,o),
(512,912,c),
(508,895,o),
(403,395,o),
(398,371,cs),
(363,204,o),
(305,30,o),
(162,30,cs),
(76,30,o),
(25,112,o),
(4,198,cs),
(2,207,o),
(-4,211,o),
(-16,211,cs),
(-25,211,o),
(-39,198,o),
(-39,179,cs),
(-39,169,o),
(-29,144,o),
(-10,103,cs),
(26,25,o),
(78,-13,o),
(145,-13,cs)
);
}
);
width = 536;
}
);
note = J;
unicode = 74;
},
{
glyphname = K;
kernLeft = K;
kernRight = K;
lastChange = "2024-10-31 14:38:07 +0000";
layers = (
{
anchors = (
{
name = bottom;
pos = (215,0);
},
{
name = top;
pos = (408,960);
}
);
layerId = "79E705E9-1ED7-4818-9510-7FD15DA5A41F";
shapes = (
{
closed = 1;
nodes = (
(22,-9,o),
(36,3,o),
(39,19,c),
(51,94,o),
(74,207,o),
(108,360,c),
(115,371,o),
(136,391,o),
(145,401,c),
(167,276,o),
(219,141,o),
(297,63,cs),
(362,-5,o),
(427,-17,o),
(499,-4,cs),
(533,1,o),
(584,46,o),
(584,69,cs),
(584,81,o),
(578,87,o),
(564,87,cs),
(559,87,o),
(552,84,o),
(546,79,c),
(506,20,o),
(429,29,o),
(382,55,cs),
(292,103,o),
(203,251,o),
(185,438,c),
(219,478,o),
(287,555,o),
(388,669,cs),
(489,783,o),
(565,870,o),
(615,930,cs),
(621,937,o),
(623,943,o),
(623,950,cs),
(623,971,o),
(600,970,o),
(586,959,c),
(525,887,o),
(444,793,o),
(341,679,cs),
(238,564,o),
(168,486,o),
(131,444,c),
(150,529,o),
(169,614,o),
(189,699,cs),
(213,799,o),
(225,858,o),
(243,958,cs),
(243,970,o),
(238,976,o),
(227,976,cs),
(217,976,o),
(204,966,o),
(198,952,c),
(181,876,o),
(150,742,o),
(105,549,cs),
(61,357,o),
(23,178,o),
(-7,12,c),
(-5,-2,o),
(0,-9,o),
(11,-9,cs)
);
}
);
width = 613;
}
);
note = K;
unicode = 75;
},
{
glyphname = L;
kernLeft = H;
kernRight = L;
lastChange = "2024-10-31 14:38:07 +0000";
layers = (
{
anchors = (
{
name = bottom;
pos = (269,0);
},
{
name = center;
pos = (167,447);
},
{
name = top;
pos = (277,960);
},
{
name = topright;
pos = (368,624);
}
);
layerId = "79E705E9-1ED7-4818-9510-7FD15DA5A41F";
shapes = (
{
closed = 1;
nodes = (
(349,-7,o),
(394,-4,o),
(440,0,c),
(453,4,o),
(464,18,o),
(464,29,cs),
(464,37,o),
(461,46,o),
(447,46,c),
(407,41,o),
(398,40,o),
(273,36,cs),
(229,36,o),
(171,42,o),
(100,54,c),
(124,133,o),
(200,493,o),
(227,632,cs),
(254,771,o),
(275,874,o),
(290,940,c),
(288,951,o),
(282,957,o),
(273,957,cs),
(262,957,o),
(248,946,o),
(244,933,c),
(227,850,o),
(207,753,o),
(183,643,cs),
(153,504,o),
(85,128,o),
(44,65,cs),
(29,43,o),
(24,19,o),
(34,6,cs),
(37,1,o),
(6,-2,o),
(306,-7,cs)
);
}
);
width = 538;
}
);
note = L;
unicode = 76;
},
{
glyphname = M;
kernLeft = M;
kernRight = M;
lastChange = "2024-10-31 14:38:07 +0000";
layers = (
{
anchors = (
{
name = bottom;
pos = (443,0);
},
{
name = top;
pos = (555,960);
}
);
layerId = "79E705E9-1ED7-4818-9510-7FD15DA5A41F";
shapes = (
{
closed = 1;
nodes = (
(834,-12,o),
(850,20,o),
(841,37,c),
(846,515,o),
(875,943,o),
(875,953,cs),
(875,963,o),
(869,968,o),
(859,968,cs),
(848,968,o),
(838,960,o),
(830,944,cs),
(779,845,o),
(565,411,o),
(470,249,c),
(419,465,o),
(376,699,o),
(317,950,cs),
(314,961,o),
(308,967,o),
(299,967,cs),
(289,967,o),
(275,956,o),
(271,943,c),
(223,730,o),
(101,243,o),
(59,9,c),
(60,-4,o),
(65,-11,o),
(76,-11,cs),
(88,-11,o),
(97,-4,o),
(104,9,c),
(173,317,o),
(237,545,o),
(294,833,c),
(307,770,o),
(425,235,o),
(442,157,c),
(446,148,o),
(453,143,o),
(462,143,cs),
(471,143,o),
(480,150,o),
(487,164,cs),
(566,319,o),
(744,650,o),
(815,809,c),
(814,728,o),
(792,179,o),
(792,83,cs),
(792,14,o),
(788,-12,o),
(813,-12,cs)
);
}
);
width = 982;
}
);
note = M;
unicode = 77;
},
{
glyphname = N;
kernLeft = N;
kernRight = N;
lastChange = "2024-10-31 14:38:07 +0000";
layers = (
{
anchors = (
{
name = bottom;
pos = (237,0);
},
{
name = top;
pos = (425,960);
}
);
layerId = "79E705E9-1ED7-4818-9510-7FD15DA5A41F";
shapes = (
{
closed = 1;
nodes = (
(498,-11,o),
(499,19,o),
(507,58,cs),
(546,293,o),
(616,669,o),
(673,947,c),
(673,963,o),
(675,971,o),
(663,971,cs),
(651,971,o),
(633,961,o),
(628,947,c),
(603,808,o),
(484,189,o),
(465,77,c),
(414,257,o),
(264,829,o),
(242,938,cs),
(237,961,o),
(230,969,o),
(215,969,cs),
(208,969,o),
(202,966,o),
(200,959,c),
(195,950,o),
(57,277,o),
(28,154,cs),
(5,61,o),
(-6,12,o),
(-6,8,cs),
(-6,-4,o),
(1,-10,o),
(15,-10,cs),
(29,-10,o),
(38,-3,o),
(41,10,cs),
(98,250,o),
(171,611,o),
(221,845,c),
(260,683,o),
(381,223,o),
(411,108,cs),
(424,55,o),
(441,-11,o),
(468,-11,cs)
);
}
);
width = 649;
}
);
note = N;
unicode = 78;
},
{
glyphname = Eng;
kernLeft = N;
kernRight = j;
lastChange = "2024-10-31 14:38:07 +0000";
layers = (
{
layerId = "79E705E9-1ED7-4818-9510-7FD15DA5A41F";
shapes = (
{
closed = 1;
nodes = (
(486,-29,l),
(517,-7,o),
(551,23,o),
(599,55,cs),
(605,59,o),
(607,66,o),
(607,75,cs),
(607,86,o),
(601,92,o),
(589,92,cs),
(569,92,o),
(528,40,o),
(488,19,c)
);
},
{
closed = 1;
nodes = (
(536,229,l),
(488,204,l),
(427,-140,ls),
(405,-256,o),
(369,-360,o),
(298,-360,cs),
(257,-360,o),
(243,-340,o),
(243,-286,cs),
(243,-194,o),
(401,-95,o),
(453,-52,c),
(457,-1,l),
(407,-42,o),
(194,-163,o),
(194,-291,cs),
(194,-363,o),
(243,-410,o),
(307,-410,cs),
(398,-410,o),
(437,-308,o),
(465,-170,cs)
);
},
{
ref = N;
}
);
width = 737;
}
);
metricRight = N;
unicode = 330;
},
{
glyphname = O;
kernLeft = O;
kernRight = O;
lastChange = "2024-10-31 14:38:07 +0000";
layers = (
{
anchors = (
{
name = bottom;
pos = (229,0);
},
{
name = center;
pos = (302,443);
},
{
name = ogonek;
pos = (363,35);
},
{
name = top;
pos = (462,960);
},
{
name = topleft;
pos = (28,960);
},
{
name = topright;
pos = (538,925);
}
);
layerId = "79E705E9-1ED7-4818-9510-7FD15DA5A41F";
shapes = (
{
closed = 1;
nodes = (
(340,-22,o),
(440,62,o),
(511,191,cs),
(582,321,o),
(622,482,o),
(622,625,cs),
(622,784,o),
(594,975,o),
(398,975,c),
(382,973,o),
(373,965,o),
(373,953,cs),
(373,932,o),
(434,929,o),
(465,920,cs),
(494,912,o),
(518,889,o),
(537,852,cs),
(591,741,o),
(580,582,o),
(552,454,cs),
(510,252,o),
(398,24,o),
(235,24,cs),
(136,24,o),
(93,118,o),
(93,316,cs),
(93,480,o),
(188,839,o),
(348,839,cs),
(379,839,o),
(408,831,o),
(438,814,cs),
(479,795,o),
(496,820,o),
(468,848,c),
(436,875,o),
(401,888,o),
(363,888,cs),
(172,888,o),
(48,581,o),
(48,295,cs),
(48,83,o),
(108,-22,o),
(226,-22,cs)
);
}
);
width = 661;
}
);
note = O;
unicode = 79;
},
{
glyphname = Oslash;
kernLeft = O;
kernRight = O;
lastChange = "2024-10-31 14:38:07 +0000";
layers = (
{
anchors = (
{
name = bottom;
pos = (310,0);
},
{
name = top;
pos = (439,960);
}
);
layerId = "79E705E9-1ED7-4818-9510-7FD15DA5A41F";
shapes = (
{
closed = 1;
nodes = (
(92,-54,o),
(99,-49,o),
(104,-40,c),
(123,2,l),
(147,-14,o),
(175,-22,o),
(208,-22,cs),
(497,-22,o),
(735,626,o),
(542,900,c),
(568,990,l),
(574,1011,o),
(573,1024,o),
(556,1023,cs),
(532,1022,o),
(522,989,o),
(509,934,c),
(476,961,o),
(432,975,o),
(380,975,c),
(363,973,o),
(355,965,o),
(355,953,cs),
(355,947,o),
(360,942,o),
(369,938,cs),
(399,928,o),
(465,929,o),
(497,885,c),
(490,861,o),
(349,591,o),
(120,80,c),
(93,128,o),
(79,207,o),
(79,316,cs),
(79,396,o),
(91,477,o),
(115,559,cs),
(164,723,o),
(254,842,o),
(334,842,cs),
(359,842,o),
(373,839,o),
(393,826,cs),
(406,818,o),
(412,814,o),
(424,816,cs),
(437,818,o),
(445,842,o),
(423,860,cs),
(401,878,o),
(377,888,o),
(345,888,cs),
(154,888,o),
(30,577,o),
(30,305,cs),
(30,169,o),
(52,76,o),
(96,26,c),
(65,-43,o),
(66,-36,o),
(66,-42,cs),
(66,-50,o),
(71,-54,o),
(82,-54,cs)
);
},
{
closed = 1;
nodes = (
(184,24,o),
(162,32,o),
(144,48,c),
(513,874,o),
(376,544,o),
(520,848,c),
(590,702,o),
(554,451,o),
(466,253,cs),
(406,120,o),
(315,24,o),
(211,24,cs)
);
}
);
width = 648;
}
);
metricRight = O;
note = Oslash;
unicode = 216;
},
{
glyphname = OE;
kernLeft = O;
lastChange = "2024-10-31 14:38:07 +0000";
layers = (
{
layerId = "79E705E9-1ED7-4818-9510-7FD15DA5A41F";
shapes = (
{
closed = 1;
nodes = (
(238,-22,o),
(267,-16,o),
(294,-5,cs),
(374,27,o),
(442,97,o),
(499,204,c),
(482,117,o),
(464,59,o),
(446,31,c),
(444,28,o),
(443,24,o),
(443,20,cs),
(443,11,o),
(448,-1,o),
(471,-1,c),
(505,2,l),
(524,2,o),
(582,0,o),
(676,-3,cs),
(771,-7,o),
(843,-9,o),
(893,-9,cs),
(900,-9,ls),
(947,-9,o),
(973,-5,o),
(973,22,cs),
(973,30,o),
(967,36,o),
(956,39,c),
(943,38,o),
(920,37,o),
(887,37,cs),
(501,45,l),
(536,116,o),
(550,216,o),
(560,289,cs),
(565,325,o),
(578,386,o),
(597,472,c),
(615,469,o),
(657,468,o),
(723,468,cs),
(739,468,l),
(823,467,ls),
(852,467,o),
(873,469,o),
(886,473,cs),
(899,478,o),
(906,486,o),
(906,500,cs),
(906,508,o),
(900,513,o),
(889,516,c),
(868,515,o),
(818,514,o),
(739,514,cs),
(677,514,ls),
(649,514,o),
(626,516,o),
(607,518,c),
(620,575,o),
(633,632,o),
(647,689,cs),
(660,747,o),
(670,790,o),
(677,820,cs),
(683,850,o),
(689,875,o),
(697,895,c),
(749,912,o),
(845,921,o),
(985,921,cs),
(1052,921,l),
(1065,925,o),
(1076,938,o),
(1076,951,cs),
(1076,962,o),
(1060,968,o),
(1027,968,cs),
(1000,968,ls),
(868,968,o),
(769,959,o),
(704,943,c),
(703,953,o),
(697,958,o),
(687,958,cs),
(681,958,o),
(674,955,o),
(666,949,c),
(660,942,o),
(657,936,o),
(657,929,cs),
(657,927,l),
(638,917,o),
(628,905,o),
(628,894,cs),
(628,881,o),
(633,875,o),
(644,874,c),
(640,857,ls),
(630,816,o),
(617,763,o),
(602,697,c),
(589,882,o),
(515,975,o),
(380,975,c),
(363,973,o),
(355,965,o),
(355,953,cs),
(355,947,o),
(360,942,o),
(369,938,cs),
(378,935,o),
(390,932,o),
(404,930,cs),
(417,927,o),
(431,924,o),
(446,920,cs),
(476,912,o),
(500,889,o),
(519,852,cs),
(544,799,o),
(557,739,o),
(557,672,cs),
(557,605,o),
(550,537,o),
(535,467,cs),
(483,228,o),
(368,24,o),
(208,24,cs),
(122,24,o),
(79,121,o),
(79,316,cs),
(79,396,o),
(91,477,o),
(115,559,cs),
(164,723,o),
(250,839,o),
(330,839,cs),
(360,839,o),
(390,831,o),
(420,814,cs),
(433,808,o),
(440,804,o),
(443,804,cs),
(454,804,o),
(459,812,o),
(459,828,cs),
(459,835,o),
(456,842,o),
(450,848,c),
(417,875,o),
(382,888,o),
(345,888,cs),
(154,888,o),
(30,581,o),
(30,295,cs),
(30,83,o),
(89,-22,o),
(208,-22,cs)
);
}
);
width = 1017;
}
);
note = OE;
unicode = 338;
},
{
glyphname = P;
kernLeft = D;
kernRight = P;
lastChange = "2024-10-31 16:55:09 +0000";
layers = (
{
anchors = (
{
name = bottom;
pos = (82,-5);
},
{
name = top;
pos = (281,960);
}
);
layerId = "79E705E9-1ED7-4818-9510-7FD15DA5A41F";
shapes = (
{
closed = 1;
nodes = (
(82,-5,o),
(96,7,o),
(99,23,c),
(109,81,o),
(166,345,o),
(173,384,c),
(293,349,o),
(541,416,o),
(541,726,cs),
(541,860,o),
(442,967,o),
(298,967,c),
(296,977,o),
(291,982,o),
(281,982,cs),
(271,982,o),
(263,975,o),
(256,962,c),
(178,947,o),
(135,891,o),
(135,868,cs),
(135,857,o),
(141,851,o),
(153,851,cs),
(162,851,o),
(170,855,o),
(176,863,c),
(190,888,o),
(211,905,o),
(241,914,c),
(141,445,l),
(140,446,o),
(92,468,o),
(72,468,cs),
(60,468,o),
(46,460,o),
(46,444,cs),
(46,430,o),
(74,413,o),
(131,395,c),
(118,325,o),
(70,118,o),
(53,16,c),
(55,2,o),
(61,-5,o),
(71,-5,cs)
);
},
{
closed = 1;
nodes = (
(288,922,l),
(418,922,o),
(499,821,o),
(499,702,cs),
(499,626,o),
(476,561,o),
(429,507,cs),
(361,430,o),
(260,411,o),
(183,430,c)
);
}
);
width = 561;
}
);
note = P;
unicode = 80;
},
{
glyphname = Thorn;
kernLeft = D;
kernRight = P;
lastChange = "2024-10-31 14:38:07 +0000";
layers = (
{
layerId = "79E705E9-1ED7-4818-9510-7FD15DA5A41F";
shapes = (
{
closed = 1;
nodes = (
(47,-17,o),
(63,-6,o),
(69,10,c),
(119,240,l),
(232,240,o),
(324,251,o),
(394,272,cs),
(557,321,o),
(646,440,o),
(646,659,cs),
(646,771,o),
(619,974,o),
(420,974,cs),
(371,974,o),
(317,948,o),
(258,897,c),
(261,917,o),
(265,935,o),
(270,953,cs),
(279,989,o),
(299,1054,o),
(299,1100,c),
(302,1111,l),
(303,1113,o),
(303,1116,o),
(303,1120,cs),
(303,1131,o),
(297,1136,o),
(285,1136,cs),
(270,1136,o),
(252,1122,o),
(252,1106,cs),
(252,1099,o),
(250,1089,o),
(248,1079,cs),
(24,3,l),
(23,1,o),
(23,0,o),
(23,-1,cs),
(23,-2,o),
(23,-3,o),
(23,-4,cs),
(23,-13,o),
(27,-17,o),
(35,-17,cs)
);
},
{
closed = 1;
nodes = (
(249,850,l),
(258,860,o),
(271,871,o),
(285,880,cs),
(333,911,o),
(377,927,o),
(416,927,cs),
(455,927,o),
(486,919,o),
(509,905,cs),
(571,868,o),
(602,782,o),
(602,650,cs),
(602,500,o),
(554,398,o),
(459,345,cs),
(430,328,o),
(392,314,o),
(346,303,cs),
(299,291,o),
(227,285,o),
(128,285,c)
);
}
);
width = 628;
}
);
note = Thorn;
unicode = 222;
},
{
glyphname = Q;
kernLeft = O;
kernRight = Q;
lastChange = "2024-10-31 14:38:07 +0000";
layers = (
{
anchors = (
{
name = bottom;
pos = (236,0);
},
{
name = top;
pos = (382,960);
}
);
layerId = "79E705E9-1ED7-4818-9510-7FD15DA5A41F";
shapes = (
{
closed = 1;
nodes = (
(874,-360,o),
(995,-339,o),
(1133,-313,c),
(1147,-308,o),
(1157,-294,o),
(1157,-283,cs),
(1157,-273,o),
(1149,-268,o),
(1133,-268,c),
(1000,-293,o),
(885,-314,o),
(777,-314,cs),
(580,-314,o),
(394,-217,o),
(217,-17,c),
(233,-23,o),
(351,-40,o),
(458,84,cs),
(583,228,o),
(649,464,o),
(649,710,cs),
(649,835,o),
(556,984,o),
(433,984,cs),
(371,984,o),
(340,971,o),
(340,946,cs),
(340,936,o),
(347,931,o),
(360,929,c),
(382,936,o),
(407,939,o),
(433,939,cs),
(616,939,o),
(619,646,o),
(584,483,cs),
(551,319,o),
(488,190,o),
(395,96,cs),
(346,47,o),
(297,23,o),
(249,23,cs),
(81,23,o),
(92,281,o),
(108,429,cs),
(126,581,o),
(166,697,o),
(228,777,cs),
(272,835,o),
(323,864,o),
(381,864,cs),
(390,864,o),
(433,850,o),
(446,850,cs),
(459,850,o),
(473,863,o),
(473,872,cs),
(473,891,o),
(429,900,o),
(395,900,cs),
(314,900,o),
(247,868,o),
(191,803,cs),
(96,692,o),
(51,496,o),
(51,283,cs),
(51,180,o),
(78,63,o),
(144,8,c),
(353,-260,o),
(557,-360,o),
(772,-360,cs)
);
}
);
width = 666;
}
);
metricLeft = O;
note = Q;
unicode = 81;
},
{
glyphname = R;
kernLeft = D;
kernRight = R;
lastChange = "2024-10-31 14:38:07 +0000";
layers = (
{
anchors = (
{
name = bottom;
pos = (175,0);
},
{
name = top;
pos = (310,960);
}
);
layerId = "79E705E9-1ED7-4818-9510-7FD15DA5A41F";
shapes = (
{
closed = 1;
nodes = (
(451,-37,o),
(489,-20,o),
(527,8,c),
(548,29,o),
(519,63,o),
(505,42,cs),
(476,24,o),
(450,8,o),
(404,8,cs),
(296,8,o),
(237,193,o),
(237,421,c),
(420,421,o),
(527,551,o),
(527,724,cs),
(527,896,o),
(422,979,o),
(271,958,c),
(281,979,o),
(274,991,o),
(267,991,cs),
(257,991,o),
(244,979,o),
(234,949,c),
(170,933,o),
(123,900,o),
(123,863,cs),
(123,854,o),
(127,847,o),
(136,843,c),
(167,840,o),
(166,878,o),
(215,894,c),
(157,636,o),
(29,16,o),
(29,14,cs),
(29,3,o),
(37,-2,o),
(52,-2,cs),
(67,-2,o),
(76,4,o),
(80,15,c),
(264,917,l),
(282,922,o),
(308,925,o),
(342,925,cs),
(428,925,o),
(486,838,o),
(486,729,cs),
(486,659,o),
(465,598,o),
(424,547,cs),
(384,499,o),
(325,468,o),
(275,468,cs),
(248,468,o),
(216,486,o),
(205,486,cs),
(194,486,o),
(188,476,o),
(188,456,cs),
(188,363,o),
(196,280,o),
(212,207,cs),
(236,55,o),
(307,-37,o),
(391,-37,cs)
);
},
{
closed = 1;
nodes = (
(451,-37,o),
(489,-20,o),
(527,8,c),
(548,29,o),
(519,63,o),
(505,42,cs),
(476,24,o),
(450,8,o),
(404,8,cs),
(296,8,o),
(237,193,o),
(237,421,c),
(420,421,o),
(527,551,o),
(527,724,cs),
(527,896,o),
(422,979,o),
(271,958,c),
(281,979,o),
(274,991,o),
(267,991,cs),
(257,991,o),
(244,979,o),
(234,949,c),
(170,933,o),
(123,900,o),
(123,863,cs),
(123,854,o),
(127,847,o),
(136,843,c),
(167,840,o),
(166,878,o),
(215,894,c),
(157,636,o),
(29,16,o),
(29,14,cs),
(29,3,o),
(37,-2,o),
(52,-2,cs),
(67,-2,o),
(76,4,o),
(80,15,c),
(264,917,l),
(282,922,o),
(308,925,o),
(342,925,cs),
(428,925,o),
(486,838,o),
(486,729,cs),
(486,659,o),
(465,598,o),
(424,547,cs),
(384,499,o),
(325,468,o),
(275,468,cs),
(248,468,o),
(216,486,o),
(205,486,cs),
(194,486,o),
(188,476,o),
(188,456,cs),
(188,363,o),
(196,280,o),
(212,207,cs),
(236,55,o),
(307,-37,o),
(391,-37,cs)
);
}
);
width = 507;
}
);
note = R;
unicode = 82;
},
{
glyphname = S;
kernLeft = S;
kernRight = S;
lastChange = "2024-10-31 14:38:07 +0000";
layers = (
{
anchors = (
{
name = bottom;
pos = (236,0);
},
{
name = top;
pos = (471,967);
}
);
layerId = "79E705E9-1ED7-4818-9510-7FD15DA5A41F";
shapes = (
{
closed = 1;
nodes = (
(422,-11,o),
(488,127,o),
(488,245,cs),
(488,441,o),
(326,617,o),
(326,815,cs),
(326,874,o),
(358,925,o),
(421,925,cs),
(483,925,o),
(526,878,o),
(535,819,cs),
(537,807,o),
(543,801,o),
(553,801,cs),
(565,801,o),
(579,813,o),
(579,826,cs),
(579,858,o),
(537,967,o),
(421,967,cs),
(324,967,o),
(278,885,o),
(278,788,cs),
(278,738,o),
(305,651,o),
(359,525,cs),
(413,400,o),
(440,308,o),
(440,250,cs),
(440,135,o),
(367,33,o),
(249,33,cs),
(141,33,o),
(41,79,o),
(41,199,cs),
(41,264,o),
(67,316,o),
(134,377,c),
(140,385,o),
(143,408,o),
(119,408,cs),
(101,408,o),
(66,369,o),
(50,349,cs),
(12,303,o),
(-7,248,o),
(-7,185,cs),
(-7,59,o),
(108,-11,o),
(244,-11,cs)
);
}
);
width = 618;
}
);
metricLeft = S;
metricRight = S;
note = S;
unicode = 83;
},
{
glyphname = Germandbls;
kernLeft = D;
kernRight = B;
lastChange = "2024-10-31 14:38:07 +0000";
layers = (
{
anchors = (
{
name = bottom;
pos = (338,0);
}
);
background = {
shapes = (
{
closed = 1;
nodes = (
(70,-46,o),
(88,-34,o),
(93,-18,c),
(134,193,o),
(168,359,o),
(243,572,cs),
(327,779,o),
(401,922,o),
(528,922,cs),
(574,922,o),
(600,901,o),
(602,874,c),
(651,874,l),
(657,937,o),
(604,967,o),
(550,967,cs),
(317,967,o),
(283,765,o),
(212,605,cs),
(152,451,o),
(45,36,o),
(45,-32,cs),
(45,-41,o),
(50,-46,o),
(58,-46,cs)
);
},
{
closed = 1;
nodes = (
(379,-8,o),
(428,10,o),
(467,46,cs),
(644,214,o),
(622,515,o),
(370,568,c),
(353,581,l),
(307,551,o),
(290,556,o),
(290,530,cs),
(290,521,o),
(296,517,o),
(307,516,c),
(337,519,o),
(359,520,o),
(374,520,cs),
(447,520,o),
(534,436,o),
(534,318,cs),
(534,170,o),
(455,38,o),
(338,38,cs),
(289,38,o),
(286,65,o),
(268,96,c),
(254,110,o),
(222,93,o),
(222,60,cs),
(222,23,o),
(263,-8,o),
(339,-8,cs)
);
},
{
closed = 1;
nodes = (
(544,491,l),
(544,564,o),
(477,629,o),
(477,703,cs),
(477,762,o),
(537,874,o),
(651,874,c),
(651,916,l),
(501,916,o),
(429,773,o),
(429,676,cs),
(429,627,o),
(496,542,o),
(496,491,c)
);
}
);
};
layerId = "79E705E9-1ED7-4818-9510-7FD15DA5A41F";
shapes = (
{
closed = 1;
nodes = (
(70,-46,o),
(88,-34,o),
(93,-18,c),
(147,260,o),
(172,359,o),
(261,626,cs),
(320,804,o),
(402,928,o),
(532,928,cs),
(601,928,o),
(644,892,o),
(647,793,cs),
(647,768,o),
(681,761,o),
(686,782,c),
(693,907,o),
(636,967,o),
(537,967,cs),
(356,967,o),
(261,770,o),
(203,608,cs),
(148,454,o),
(47,81,o),
(40,-32,cs),
(40,-41,o),
(50,-46,o),
(58,-46,cs)
);
},
{
closed = 1;
nodes = (
(675,824,l),
(485,864,o),
(403,798,o),
(403,692,cs),
(403,557,o),
(534,496,o),
(534,318,cs),
(534,170,o),
(455,38,o),
(338,38,cs),
(268,38,o),
(247,72,o),
(230,139,c),
(216,153,o),
(176,136,o),
(176,103,cs),
(176,43,o),
(235,-8,o),
(339,-8,cs),
(472,-8,o),
(582,159,o),
(582,306,cs),
(582,506,o),
(450,567,o),
(450,697,cs),
(450,787,o),
(513,820,o),
(677,800,c)
);
}
);
width = 717;
}
);
metricRight = S;
unicode = 7838;
},
{
glyphname = T;
kernLeft = T;
kernRight = T;
lastChange = "2024-10-31 14:38:07 +0000";
layers = (
{
anchors = (
{
name = bottom;
pos = (191,0);
},
{
name = center;
pos = (300,571);
},
{
name = top;
pos = (382,960);
}
);
layerId = "79E705E9-1ED7-4818-9510-7FD15DA5A41F";
shapes = (
{
closed = 1;
nodes = (
(198,-38,o),
(211,-26,o),
(215,-10,c),
(281,393,o),
(331,576,o),
(398,909,c),
(449,910,o),
(606,920,o),
(665,920,cs),
(698,920,o),
(714,930,o),
(714,950,cs),
(714,958,o),
(708,964,o),
(697,967,c),
(645,967,o),
(445,956,o),
(418,954,c),
(423,980,o),
(418,996,o),
(400,996,cs),
(384,996,o),
(371,982,o),
(362,954,c),
(157,958,ls),
(148,958,o),
(138,958,o),
(129,957,cs),
(95,955,o),
(78,944,o),
(78,926,cs),
(78,916,o),
(85,911,o),
(99,909,c),
(168,913,o),
(245,912,o),
(350,909,c),
(321,779,o),
(191,162,o),
(169,-17,c),
(170,-31,o),
(176,-38,o),
(188,-38,cs)
);
}
);
width = 655;
}
);
metricLeft = T;
metricRight = T;
note = T;
unicode = 84;
},
{
glyphname = U;
kernLeft = U;
kernRight = U;
lastChange = "2024-10-31 14:38:07 +0000";
layers = (
{
anchors = (
{
name = bottom;
pos = (211,0);
},
{
name = ogonek;
pos = (326,23);
},
{
name = top;
pos = (434,960);
},
{
name = topright;
pos = (657,961);
}
);
layerId = "79E705E9-1ED7-4818-9510-7FD15DA5A41F";
shapes = (
{
closed = 1;
nodes = (
(334,-10,o),
(407,33,o),
(452,118,cs),
(524,251,o),
(583,595,o),
(627,778,cs),
(649,872,o),
(675,934,o),
(675,944,cs),
(675,955,o),
(669,961,o),
(657,961,cs),
(645,961,o),
(629,946,o),
(622,922,cs),
(556,700,o),
(528,459,o),
(434,175,cs),
(407,97,o),
(348,36,o),
(233,36,cs),
(143,36,o),
(91,95,o),
(91,172,cs),
(91,242,o),
(196,771,o),
(241,944,c),
(241,955,o),
(234,961,o),
(220,961,cs),
(212,961,o),
(201,956,o),
(198,946,c),
(137,725,o),
(49,218,o),
(49,182,cs),
(49,77,o),
(123,-10,o),
(232,-10,cs)
);
}
);
width = 639;
}
);
metricLeft = U;
metricRight = U;
note = U;
unicode = 85;
},
{
glyphname = V;
kernLeft = V;
kernRight = V;
lastChange = "2024-10-31 16:55:15 +0000";
layers = (
{
anchors = (
{
name = bottom;
pos = (224,0);
},
{
name = top;
pos = (320,960);
}
);
layerId = "79E705E9-1ED7-4818-9510-7FD15DA5A41F";
shapes = (
{
closed = 1;
nodes = (
(217,-19,o),
(230,-23,o),
(249,0,cs),
(306,74,o),
(359,159,o),
(411,254,cs),
(561,535,o),
(615,732,o),
(574,983,c),
(572,994,o),
(565,1000,o),
(554,1000,cs),
(542,1000,o),
(528,986,o),
(528,969,c),
(551,765,o),
(554,727,o),
(493,549,cs),
(447,413,o),
(366,253,o),
(250,70,c),
(224,293,o),
(147,721,o),
(125,948,c),
(122,959,o),
(116,965,o),
(106,965,cs),
(97,965,o),
(83,954,o),
(79,941,c),
(108,716,o),
(174,305,o),
(195,130,cs),
(200,79,o),
(206,35,o),
(211,-2,c)
);
}
);
width = 640;
}
);
note = V;
unicode = 86;
},
{
glyphname = W;
kernLeft = V;
kernRight = V;
lastChange = "2024-10-31 14:38:07 +0000";
layers = (
{
anchors = (
{
name = bottom;
pos = (439,0);
},
{
name = top;
pos = (471,960);
}
);
background = {
shapes = (
{
closed = 1;
nodes = (
(259,-15,o),
(387,345,o),
(444,544,c),
(444,351,o),
(458,201,o),
(488,92,cs),
(507,24,o),
(524,-10,o),
(539,-10,cs),
(554,-10,o),
(572,8,o),
(594,43,cs),
(756,308,o),
(838,560,o),
(838,800,cs),
(838,884,o),
(789,1031,o),
(715,1031,cs),
(656,1031,o),
(622,1007,o),
(609,962,cs),
(601,935,o),
(590,903,o),
(615,903,cs),
(628,903,o),
(637,910,o),
(644,923,cs),
(659,969,l),
(748,1063,o),
(790,902,o),
(790,771,cs),
(790,553,o),
(698,327,o),
(549,58,c),
(478,216,o),
(492,565,o),
(488,703,c),
(508,791,o),
(529,953,o),
(483,953,cs),
(467,953,o),
(457,942,o),
(450,920,cs),
(436,867,o),
(440,765,o),
(442,704,c),
(348,350,o),
(325,320,o),
(216,70,c),
(212,147,o),
(201,257,o),
(183,400,cs),
(151,653,o),
(141,831,o),
(141,879,c),
(146,941,l),
(146,961,o),
(132,964,o),
(110,950,c),
(102,944,o),
(98,931,o),
(98,910,cs),
(98,730,o),
(121,562,o),
(133,468,cs),
(145,375,o),
(167,205,o),
(167,17,cs),
(167,-3,o),
(177,-15,o),
(188,-15,cs)
);
}
);
};
layerId = "79E705E9-1ED7-4818-9510-7FD15DA5A41F";
shapes = (
{
closed = 1;
nodes = (
(259,-15,o),
(387,345,o),
(444,544,c),
(444,351,o),
(458,201,o),
(488,92,cs),
(507,24,o),
(524,-10,o),
(539,-10,cs),
(554,-10,o),
(572,8,o),
(594,43,cs),
(759,333,o),
(843,608,o),
(843,870,cs),
(843,929,o),
(799,1031,o),
(732,1031,cs),
(673,1031,o),
(639,1007,o),
(626,962,cs),
(618,935,o),
(607,903,o),
(632,903,cs),
(645,903,o),
(654,910,o),
(661,923,cs),
(676,969,l),
(695,982,o),
(712,987,o),
(727,987,cs),
(773,987,o),
(795,908,o),
(795,841,cs),
(795,602,o),
(701,353,o),
(549,58,c),
(478,216,o),
(492,565,o),
(488,703,c),
(508,791,o),
(529,953,o),
(483,953,cs),
(467,953,o),
(457,942,o),
(450,920,cs),
(436,867,o),
(440,765,o),
(442,704,c),
(348,350,o),
(325,320,o),
(216,70,c),
(212,147,o),
(201,257,o),
(183,400,cs),
(151,653,o),
(141,831,o),
(141,879,c),
(146,941,l),
(146,961,o),
(132,964,o),
(110,950,c),
(102,944,o),
(98,931,o),
(98,910,cs),
(98,730,o),
(121,562,o),
(133,468,cs),
(145,375,o),
(167,205,o),
(167,17,cs),
(167,-3,o),
(177,-15,o),
(188,-15,cs)
);
}
);
width = 834;
}
);
note = W;
unicode = 87;
},
{
glyphname = X;
kernLeft = X;
kernRight = X;
lastChange = "2024-10-31 14:38:07 +0000";
layers = (
{
anchors = (
{
name = bottom;
pos = (230,0);
},
{
name = top;
pos = (404,960);
}
);
layerId = "79E705E9-1ED7-4818-9510-7FD15DA5A41F";
shapes = (
{
closed = 1;
nodes = (
(513,-28,o),
(529,-12,o),
(529,7,c),
(486,91,o),
(430,260,o),
(360,515,c),
(565,804,o),
(531,750,o),
(677,928,cs),
(686,939,o),
(690,947,o),
(690,952,cs),
(690,986,o),
(649,967,o),
(611,925,cs),
(538,843,o),
(448,728,o),
(343,578,c),
(327,638,o),
(263,883,o),
(243,941,cs),
(235,963,o),
(230,975,o),
(227,977,c),
(206,982,o),
(179,964,o),
(179,935,cs),
(179,924,o),
(184,918,o),
(194,918,c),
(192,926,o),
(303,536,o),
(306,525,c),
(276,482,o),
(247,439,o),
(218,396,cs),
(119,252,o),
(-3,81,o),
(-56,11,c),
(-56,-5,o),
(-45,-13,o),
(-24,-13,cs),
(10,-13,o),
(184,260,o),
(323,462,c),
(423,120,o),
(432,173,o),
(481,-22,c),
(484,-26,o),
(491,-28,o),
(498,-28,cs)
);
}
);
width = 628;
}
);
note = X;
unicode = 88;
},
{
glyphname = Y;
kernLeft = Y;
kernRight = Y;
lastChange = "2024-10-31 14:38:07 +0000";
layers = (
{
anchors = (
{
name = bottom;
pos = (121,0);
},
{
name = top;
pos = (280,960);
},
{
name = topleft;
pos = (71,960);
}
);
layerId = "79E705E9-1ED7-4818-9510-7FD15DA5A41F";
shapes = (
{
closed = 1;
nodes = (
(146,-6,o),
(157,0,o),
(161,13,cs),
(226,251,o),
(180,111,o),
(239,340,c),
(250,363,o),
(269,407,o),
(293,472,cs),
(318,537,o),
(338,589,o),
(353,628,cs),
(430,824,o),
(527,928,o),
(527,950,cs),
(527,961,o),
(520,967,o),
(507,967,cs),
(500,967,o),
(494,964,o),
(490,959,cs),
(406,857,o),
(350,739,o),
(282,563,cs),
(248,474,o),
(224,413,o),
(208,380,c),
(170,475,o),
(137,629,o),
(108,842,cs),
(96,931,l),
(109,953,o),
(94,968,o),
(75,968,cs),
(60,968,o),
(49,953,o),
(49,936,c),
(55,890,o),
(64,834,o),
(75,769,cs),
(120,513,o),
(157,366,o),
(186,329,c),
(165,201,o),
(167,172,o),
(125,29,cs),
(121,12,o),
(125,-2,o),
(135,-4,cs)
);
}
);
width = 478;
}
);
metricLeft = Y;
metricRight = Y;
note = Y;
unicode = 89;
},
{
glyphname = Z;
kernLeft = Z;
kernRight = Z;
lastChange = "2024-10-31 14:38:07 +0000";
layers = (
{
anchors = (
{
name = bottom;
pos = (286,0);
},
{
name = top;
pos = (373,958);
}
);
layerId = "79E705E9-1ED7-4818-9510-7FD15DA5A41F";
shapes = (
{
closed = 1;
nodes = (
(662,-248,o),
(771,-200,o),
(841,-140,cs),
(857,-126,o),
(865,-114,o),
(865,-103,cs),
(865,-92,o),
(860,-87,o),
(851,-87,cs),
(831,-87,o),
(796,-120,o),
(779,-134,cs),
(735,-169,o),
(668,-200,o),
(586,-200,cs),
(465,-200,o),
(346,-132,o),
(225,-12,cs),
(164,47,o),
(118,77,o),
(85,77,cs),
(66,77,o),
(48,72,o),
(29,59,c),
(319,443,o),
(634,926,o),
(634,953,cs),
(634,966,o),
(621,973,o),
(593,973,cs),
(566,973,o),
(530,971,o),
(484,966,cs),
(402,955,o),
(398,957,o),
(122,964,c),
(104,964,o),
(92,957,o),
(92,938,cs),
(92,929,o),
(97,922,o),
(106,919,c),
(184,907,o),
(422,915,o),
(568,925,c),
(491,788,o),
(385,627,o),
(253,442,cs),
(199,368,o),
(147,296,o),
(97,228,cs),
(33,141,o),
(-49,31,o),
(-49,14,cs),
(-49,2,o),
(-43,-4,o),
(-31,-4,cs),
(-5,-4,o),
(25,33,o),
(59,33,cs),
(115,33,o),
(158,-15,o),
(193,-53,cs),
(261,-129,o),
(436,-248,o),
(566,-248,cs)
);
}
);
width = 572;
}
);
metricLeft = Z;
metricRight = Z;
note = Z;
unicode = 90;
},
{
glyphname = R.fina;
kernLeft = D;
kernRight = R;
lastChange = "2024-10-31 14:38:07 +0000";
layers = (
{
layerId = "79E705E9-1ED7-4818-9510-7FD15DA5A41F";
shapes = (
{
closed = 1;
nodes = (
(884,-294,o),
(986,-229,o),
(1085,-127,c),
(1106,-106,o),
(1077,-72,o),
(1063,-93,cs),
(969,-175,o),
(886,-249,o),
(736,-249,cs),
(416,-249,o),
(237,51,o),
(237,421,c),
(420,421,o),
(527,551,o),
(527,724,cs),
(527,896,o),
(422,979,o),
(271,958,c),
(281,979,o),
(274,991,o),
(267,991,cs),
(257,991,o),
(244,979,o),
(234,949,c),
(170,933,o),
(123,900,o),
(123,863,cs),
(123,854,o),
(127,847,o),
(136,843,c),
(167,840,o),
(166,878,o),
(215,894,c),
(157,636,o),
(29,16,o),
(29,14,cs),
(29,3,o),
(37,-2,o),
(52,-2,cs),
(67,-2,o),
(76,4,o),
(80,15,c),
(264,917,l),
(282,922,o),
(308,925,o),
(342,925,cs),
(428,925,o),
(486,838,o),
(486,729,cs),
(486,659,o),
(465,598,o),
(424,547,cs),
(384,499,o),
(325,468,o),
(275,468,cs),
(248,468,o),
(216,486,o),
(205,486,cs),
(194,486,o),
(188,476,o),
(188,456,cs),
(188,363,o),
(196,280,o),
(212,207,cs),
(280,-105,o),
(483,-294,o),
(722,-294,cs)
);
}
);
width = 507;
}
);
},
{
glyphname = W.fina;
kernLeft = D;
kernRight = D;
lastChange = "2024-10-31 14:38:07 +0000";
layers = (
{
anchors = (
{
name = bottom;
pos = (439,0);
},
{
name = top;
pos = (471,960);
}
);
layerId = "79E705E9-1ED7-4818-9510-7FD15DA5A41F";
shapes = (
{
closed = 1;
nodes = (
(259,-15,o),
(387,345,o),
(444,544,c),
(444,351,o),
(458,201,o),
(488,92,cs),
(507,24,o),
(524,-10,o),
(539,-10,cs),
(554,-10,o),
(572,8,o),
(594,43,cs),
(756,308,o),
(838,560,o),
(838,800,cs),
(838,958,o),
(711,1235,o),
(519,1235,cs),
(460,1235,o),
(426,1211,o),
(413,1166,cs),
(405,1139,o),
(394,1107,o),
(419,1107,cs),
(432,1107,o),
(441,1114,o),
(448,1127,cs),
(463,1173,l),
(499,1198,o),
(551,1189,o),
(594,1167,cs),
(698,1112,o),
(790,939,o),
(790,771,cs),
(790,553,o),
(698,327,o),
(549,58,c),
(478,216,o),
(492,565,o),
(488,703,c),
(508,791,o),
(529,953,o),
(483,953,cs),
(467,953,o),
(457,942,o),
(450,920,cs),
(436,867,o),
(440,765,o),
(442,704,c),
(348,350,o),
(325,320,o),
(216,70,c),
(212,147,o),
(201,257,o),
(183,400,cs),
(151,653,o),
(141,831,o),
(141,879,c),
(146,941,l),
(146,961,o),
(132,964,o),
(110,950,c),
(102,944,o),
(98,931,o),
(98,910,cs),
(98,730,o),
(121,562,o),
(133,468,cs),
(145,375,o),
(167,205,o),
(167,17,cs),
(167,-3,o),
(177,-15,o),
(188,-15,cs)
);
}
);
width = 877;
}
);
},
{
glyphname = D.init;
kernLeft = D;
kernRight = D;
lastChange = "2024-10-31 14:38:07 +0000";
layers = (
{
layerId = "79E705E9-1ED7-4818-9510-7FD15DA5A41F";
shapes = (
{
closed = 1;
nodes = (
(59,-55,o),
(66,-41,o),
(70,-10,c),
(141,-10,o),
(203,-3,o),
(264,13,cs),
(480,73,o),
(653,248,o),
(653,628,cs),
(653,855,o),
(552,967,o),
(402,967,cs),
(363,967,o),
(328,963,o),
(297,956,c),
(304,975,o),
(301,987,o),
(294,987,cs),
(286,987,o),
(275,975,o),
(264,948,c),
(216,935,o),
(167,913,o),
(119,883,cs),
(111,877,o),
(107,870,o),
(107,860,cs),
(107,848,o),
(113,842,o),
(124,842,cs),
(136,842,o),
(185,875,o),
(245,896,c),
(175,702,o),
(57,217,o),
(29,35,c),
(-111,48,o),
(-152,124,o),
(-201,250,cs),
(-205,258,o),
(-212,262,o),
(-223,262,cs),
(-232,262,o),
(-247,251,o),
(-239,229,c),
(-200,116,o),
(-130,11,o),
(23,-7,c),
(19,-31,o),
(17,-55,o),
(40,-55,cs)
);
},
{
closed = 1;
nodes = (
(132,339,o),
(204,657,o),
(293,909,c),
(318,916,o),
(347,919,o),
(378,919,cs),
(530,919,o),
(606,818,o),
(606,616,cs),
(606,510,o),
(586,413,o),
(546,324,cs),
(461,137,o),
(293,33,o),
(74,33,c)
);
}
);
width = 671;
}
);
metricRight = D;
},
{
glyphname = Eth.init;
kernLeft = D;
kernRight = D;
lastChange = "2024-10-31 14:38:07 +0000";
layers = (
{
layerId = "79E705E9-1ED7-4818-9510-7FD15DA5A41F";
shapes = (
{
closed = 1;
nodes = (
(46,-55,o),
(51,-54,o),
(54,-51,cs),
(63,-45,o),
(67,-32,o),
(70,-10,c),
(76,-10,ls),
(146,-10,o),
(208,-2,o),
(264,13,cs),
(480,73,o),
(653,248,o),
(653,628,cs),
(653,790,o),
(605,895,o),
(511,942,cs),
(477,958,o),
(441,967,o),
(402,967,cs),
(363,967,o),
(328,963,o),
(297,956,c),
(294,959,o),
(290,961,o),
(284,961,cs),
(277,961,o),
(271,957,o),
(264,948,c),
(216,935,o),
(167,913,o),
(119,883,cs),
(111,877,o),
(107,870,o),
(107,860,cs),
(107,848,o),
(113,842,o),
(124,842,cs),
(127,842,o),
(130,843,o),
(135,844,c),
(167,865,o),
(205,882,o),
(245,896,c),
(208,793,o),
(172,669,o),
(137,526,c),
(122,524,o),
(105,522,o),
(87,521,cs),
(69,519,o),
(47,518,o),
(22,518,cs),
(-4,518,o),
(-18,518,o),
(-21,517,c),
(-24,519,o),
(-28,520,o),
(-34,520,cs),
(-46,520,o),
(-60,507,o),
(-60,495,cs),
(-60,489,o),
(-59,484,o),
(-55,480,c),
(-56,479,o),
(-54,477,o),
(-50,476,c),
(-43,473,o),
(-32,471,o),
(-20,470,cs),
(-14,470,o),
(-3,469,o),
(13,469,cs),
(28,469,o),
(55,472,o),
(92,476,cs),
(126,479,l),
(89,326,o),
(37,88,o),
(29,35,c),
(-38,41,o),
(-88,64,o),
(-124,104,cs),
(-157,141,o),
(-178,191,o),
(-201,250,cs),
(-205,258,o),
(-212,262,o),
(-223,262,cs),
(-232,262,o),
(-237,251,o),
(-239,229,c),
(-225,188,o),
(-209,154,o),
(-190,125,cs),
(-141,48,o),
(-69,4,o),
(23,-7,c),
(21,-19,o),
(21,-29,o),
(21,-35,cs),
(21,-48,o),
(27,-55,o),
(40,-55,cs)
);
},
{
closed = 1;
nodes = (
(109,215,o),
(141,365,o),
(170,483,c),
(261,491,o),
(352,495,o),
(444,495,c),
(457,499,o),
(468,512,o),
(468,524,cs),
(468,532,o),
(462,538,o),
(451,541,c),
(358,541,o),
(268,537,o),
(181,530,c),
(216,670,o),
(253,796,o),
(293,909,c),
(318,916,o),
(347,919,o),
(378,919,cs),
(530,919,o),
(606,818,o),
(606,616,cs),
(606,510,o),
(586,413,o),
(546,324,cs),
(466,147,o),
(304,33,o),
(77,33,cs),
(74,33,l)
);
}
);
width = 711;
}
);
},
{
glyphname = H.init;
kernRight = H;
lastChange = "2024-10-31 14:38:07 +0000";
layers = (
{
anchors = (
{
name = bottom;
pos = (300,0);
},
{
name = center;
pos = (300,480);
},
{
name = top;
pos = (300,960);
},
{
name = topleft;
pos = (20,960);
}
);
layerId = "79E705E9-1ED7-4818-9510-7FD15DA5A41F";
shapes = (
{
closed = 1;
nodes = (
(125,-34,o),
(134,-27,o),
(141,-14,c),
(183,155,o),
(228,296,o),
(269,464,c),
(372,492,o),
(501,509,o),
(656,515,c),
(642,427,ls),
(631,366,o),
(583,148,o),
(578,10,c),
(579,-4,o),
(584,-11,o),
(595,-11,cs),
(607,-11,o),
(622,1,o),
(624,17,c),
(630,183,o),
(682,372,o),
(701,517,c),
(754,511,o),
(731,512,o),
(813,516,c),
(827,520,o),
(837,533,o),
(837,544,cs),
(837,553,o),
(832,559,o),
(820,562,c),
(708,562,l),
(720,656,o),
(770,948,o),
(771,961,c),
(768,972,o),
(762,978,o),
(754,978,cs),
(742,978,o),
(729,967,o),
(725,954,c),
(722,929,o),
(691,777,o),
(662,561,c),
(508,554,o),
(381,538,o),
(281,512,c),
(313,711,o),
(333,858,o),
(341,951,c),
(342,963,o),
(338,968,o),
(324,968,cs),
(307,968,o),
(297,960,o),
(295,944,cs),
(286,877,o),
(265,636,o),
(232,499,c),
(215,493,o),
(108,456,o),
(45,419,cs),
(-34,372,o),
(-73,329,o),
(-73,289,cs),
(-73,270,o),
(-66,260,o),
(-52,260,cs),
(-30,260,o),
(-28,277,o),
(-28,299,cs),
(-28,335,o),
(115,416,o),
(220,450,c),
(183,304,o),
(133,138,o),
(96,-14,c),
(97,-27,o),
(103,-34,o),
(113,-34,cs)
);
}
);
width = 837;
}
);
metricRight = H;
},
{
glyphname = B.ss01;
kernLeft = B;
kernRight = D;
lastChange = "2024-10-31 16:49:33 +0000";
layers = (
{
layerId = "79E705E9-1ED7-4818-9510-7FD15DA5A41F";
shapes = (
{
closed = 1;
nodes = (
(33,-60,o),
(46,-48,o),
(50,-31,c),
(50,-24,o),
(51,-16,o),
(53,-7,c),
(74,-8,l),
(323,-8,o),
(479,88,o),
(479,278,cs),
(479,377,o),
(379,489,o),
(266,496,c),
(368,510,o),
(465,619,o),
(465,730,cs),
(465,865,o),
(383,952,o),
(260,956,c),
(255,961,o),
(250,964,o),
(245,964,cs),
(238,964,o),
(233,961,o),
(229,954,c),
(179,944,o),
(133,919,o),
(133,888,cs),
(133,873,o),
(144,868,o),
(150,868,cs),
(161,868,o),
(170,874,o),
(176,886,c),
(186,895,o),
(197,902,o),
(209,907,c),
(191,850,o),
(176,785,o),
(165,712,cs),
(154,640,o),
(141,572,o),
(126,510,c),
(90,510,o),
(72,502,o),
(72,486,cs),
(72,475,o),
(77,469,o),
(87,469,c),
(117,468,l),
(105,415,o),
(92,362,o),
(80,310,cs),
(67,258,o),
(56,206,o),
(46,155,c),
(20,46,l),
(-91,70,o),
(-180,138,o),
(-180,229,cs),
(-180,237,o),
(-179,246,o),
(-176,254,c),
(-173,262,o),
(-172,271,o),
(-172,280,cs),
(-172,292,o),
(-178,298,o),
(-190,298,cs),
(-196,298,o),
(-201,295,o),
(-206,290,cs),
(-219,276,o),
(-226,253,o),
(-226,219,cs),
(-226,108,o),
(-110,28,o),
(10,0,c),
(6,-16,o),
(4,-30,o),
(3,-40,c),
(4,-53,o),
(11,-60,o),
(22,-60,cs)
);
},
{
closed = 1;
nodes = (
(84,37,o),
(71,38,o),
(62,39,c),
(64,50,o),
(67,62,o),
(70,73,cs),
(78,106,ls),
(81,117,o),
(83,126,o),
(85,135,cs),
(88,144,o),
(93,167,o),
(101,204,cs),
(109,242,o),
(128,329,o),
(160,466,c),
(181,464,o),
(199,464,o),
(213,464,cs),
(324,464,o),
(433,372,o),
(433,272,cs),
(433,129,o),
(314,37,o),
(101,37,cs)
);
},
{
closed = 1;
nodes = (
(177,542,o),
(188,604,o),
(203,695,cs),
(218,787,o),
(234,859,o),
(250,913,c),
(348,911,o),
(416,849,o),
(416,729,cs),
(416,610,o),
(307,521,o),
(170,511,c)
);
}
);
width = 514;
}
);
note = B.alt;
},
{
glyphname = D.ss01;
kernLeft = D;
kernRight = D;
lastChange = "2024-10-31 16:49:38 +0000";
layers = (
{
layerId = "79E705E9-1ED7-4818-9510-7FD15DA5A41F";
shapes = (
{
closed = 1;
nodes = (
(46,-55,o),
(51,-54,o),
(54,-51,cs),
(63,-45,o),
(67,-32,o),
(70,-10,c),
(76,-10,ls),
(142,-10,o),
(202,-2,o),
(256,13,cs),
(469,73,o),
(653,253,o),
(653,628,cs),
(653,790,o),
(605,895,o),
(511,942,cs),
(477,958,o),
(441,967,o),
(402,967,cs),
(363,967,o),
(328,963,o),
(297,956,c),
(294,959,o),
(290,961,o),
(284,961,cs),
(277,961,o),
(271,957,o),
(264,948,c),
(216,935,o),
(167,913,o),
(119,883,cs),
(111,877,o),
(107,870,o),
(107,860,cs),
(107,848,o),
(113,842,o),
(124,842,cs),
(127,842,o),
(130,843,o),
(135,844,c),
(167,865,o),
(205,882,o),
(245,896,c),
(175,688,o),
(103,400,o),
(29,35,c),
(-38,41,o),
(-88,64,o),
(-124,104,cs),
(-157,141,o),
(-178,191,o),
(-201,250,cs),
(-205,258,o),
(-212,262,o),
(-223,262,cs),
(-232,262,o),
(-237,251,o),
(-239,229,c),
(-225,188,o),
(-209,154,o),
(-190,125,cs),
(-141,48,o),
(-69,4,o),
(23,-7,c),
(21,-19,o),
(21,-29,o),
(21,-35,cs),
(21,-48,o),
(27,-55,o),
(40,-55,cs)
);
},
{
closed = 1;
nodes = (
(153,408,o),
(226,700,o),
(293,909,c),
(318,916,o),
(347,919,o),
(378,919,cs),
(530,919,o),
(606,818,o),
(606,616,cs),
(606,509,o),
(587,412,o),
(548,323,cs),
(471,147,o),
(310,33,o),
(77,33,cs),
(74,33,l)
);
}
);
width = 669;
}
);
note = D.alt;
},
{
glyphname = a;
kernLeft = a;
kernRight = a;
lastChange = "2024-10-31 14:38:07 +0000";
layers = (
{
anchors = (
{
name = bottom;
pos = (170,0);
},
{
name = ogonek;
pos = (404,5);
},
{
name = top;
pos = (313,504);
}
);
layerId = "79E705E9-1ED7-4818-9510-7FD15DA5A41F";
shapes = (
{
closed = 1;
nodes = (
(371,-2,o),
(380,11,o),
(380,24,cs),
(380,38,o),
(364,49,o),
(356,54,cs),
(353,56,o),
(349,58,o),
(346,60,c),
(346,154,o),
(374,314,o),
(390,371,cs),
(398,399,o),
(402,414,o),
(402,415,cs),
(402,419,ls),
(402,434,o),
(394,441,o),
(379,441,cs),
(375,441,o),
(371,440,o),
(368,438,c),
(368,447,o),
(367,456,o),
(365,464,cs),
(361,491,o),
(344,504,o),
(313,504,cs),
(283,504,o),
(244,479,o),
(195,428,cs),
(99,327,o),
(16,167,o),
(16,72,cs),
(16,24,o),
(35,0,o),
(73,0,cs),
(93,0,o),
(111,6,o),
(128,19,cs),
(161,43,o),
(271,169,o),
(326,285,c),
(304,186,o),
(293,116,o),
(293,75,cs),
(293,38,o),
(324,-2,o),
(355,-2,cs)
);
},
{
closed = 1;
nodes = (
(71,52,o),
(66,58,o),
(66,70,cs),
(66,109,o),
(78,155,o),
(103,207,cs),
(151,312,o),
(236,413,o),
(287,440,cs),
(298,446,o),
(307,449,o),
(313,449,cs),
(324,449,o),
(331,436,o),
(331,423,cs),
(331,397,o),
(325,384,o),
(280,300,cs),
(227,197,o),
(167,117,o),
(99,59,c),
(94,54,o),
(88,52,o),
(81,52,cs)
);
}
);
width = 449;
}
);
metricLeft = a;
metricRight = a;
note = a;
unicode = 97;
},
{
glyphname = ae;
kernLeft = a;
kernRight = e;
lastChange = "2024-10-31 14:38:07 +0000";
layers = (
{
anchors = (
{
name = bottom;
pos = (225,0);
},
{
name = top;
pos = (384,505);
}
);
layerId = "79E705E9-1ED7-4818-9510-7FD15DA5A41F";
shapes = (
{
closed = 1;
nodes = (
(402,-10,o),
(493,36,o),
(493,64,cs),
(493,76,o),
(487,82,o),
(476,82,cs),
(454,82,o),
(407,36,o),
(355,36,cs),
(321,36,o),
(303,64,o),
(304,120,cs),
(306,197,l),
(406,238,o),
(534,301,o),
(534,427,cs),
(534,472,o),
(510,511,o),
(469,511,cs),
(435,511,o),
(400,493,o),
(366,458,c),
(362,481,o),
(355,504,o),
(316,504,cs),
(284,504,o),
(244,479,o),
(195,428,cs),
(99,327,o),
(16,168,o),
(16,71,cs),
(16,25,o),
(33,0,o),
(79,0,cs),
(102,0,o),
(127,14,o),
(153,41,cs),
(188,78,o),
(223,120,o),
(257,167,c),
(247,85,o),
(265,-10,o),
(356,-10,cs)
);
},
{
closed = 1;
nodes = (
(48,52,o),
(73,145,o),
(103,207,cs),
(169,351,o),
(277,449,o),
(313,449,cs),
(329,449,o),
(334,426,o),
(330,408,c),
(251,221,o),
(132,52,o),
(81,52,cs)
);
},
{
closed = 1;
nodes = (
(319,274,o),
(334,316,o),
(359,366,c),
(401,411,l),
(401,416,o),
(404,417,o),
(399,427,c),
(420,452,o),
(439,464,o),
(457,464,cs),
(502,464,o),
(491,390,o),
(472,354,cs),
(437,294,o),
(369,270,o),
(314,240,c)
);
}
);
width = 547;
}
);
metricLeft = a;
note = ae;
unicode = 230;
},
{
glyphname = b;
kernLeft = b;
kernRight = b;
lastChange = "2024-10-31 14:38:07 +0000";
layers = (
{
anchors = (
{
name = bottom;
pos = (165,-10);
},
{
name = top;
pos = (233,960);
}
);
layerId = "79E705E9-1ED7-4818-9510-7FD15DA5A41F";
shapes = (
{
closed = 1;
nodes = (
(208,-10,o),
(245,18,o),
(278,73,cs),
(331,160,o),
(363,313,o),
(363,409,cs),
(363,454,o),
(334,503,o),
(281,503,cs),
(229,503,o),
(189,453,o),
(148,379,c),
(163,453,o),
(181,535,o),
(201,625,cs),
(221,716,o),
(240,818,o),
(257,931,c),
(259,938,l),
(259,953,o),
(250,960,o),
(233,960,cs),
(225,960,o),
(218,955,o),
(213,944,c),
(199,864,o),
(186,792,o),
(172,729,cs),
(159,667,o),
(150,623,o),
(146,598,cs),
(140,573,o),
(135,548,o),
(130,522,cs),
(121,470,o),
(110,409,o),
(98,335,cs),
(86,261,o),
(74,198,o),
(74,126,cs),
(74,54,o),
(104,-10,o),
(165,-10,cs)
);
},
{
closed = 1;
nodes = (
(138,41,o),
(125,69,o),
(125,126,cs),
(125,148,o),
(127,184,o),
(132,232,cs),
(142,329,o),
(232,454,o),
(275,454,cs),
(304,454,o),
(310,422,o),
(310,372,cs),
(310,347,o),
(308,323,o),
(305,300,cs),
(292,221,o),
(270,154,o),
(237,101,cs),
(213,61,o),
(189,41,o),
(165,41,cs)
);
}
);
width = 393;
}
);
note = b;
unicode = 98;
},
{
glyphname = c;
kernLeft = o;
kernRight = c;
lastChange = "2024-10-31 14:38:07 +0000";
layers = (
{
anchors = (
{
name = bottom;
pos = (166,0);
},
{
name = top;
pos = (255,505);
}
);
layerId = "79E705E9-1ED7-4818-9510-7FD15DA5A41F";
shapes = (
{
closed = 1;
nodes = (
(196,-12,o),
(259,42,o),
(259,83,cs),
(259,94,o),
(253,100,o),
(240,100,cs),
(226,100,o),
(215,84,o),
(201,68,cs),
(182,47,o),
(162,37,o),
(140,37,cs),
(97,37,o),
(75,67,o),
(75,126,cs),
(75,167,o),
(84,215,o),
(103,269,cs),
(140,378,o),
(198,465,o),
(248,465,cs),
(267,465,o),
(277,455,o),
(281,434,cs),
(285,413,o),
(294,403,o),
(308,403,cs),
(322,403,o),
(335,416,o),
(335,428,cs),
(335,434,o),
(333,438,o),
(331,443,c),
(327,445,o),
(324,451,o),
(321,459,c),
(317,468,o),
(315,475,o),
(312,480,cs),
(303,501,o),
(285,511,o),
(256,511,cs),
(216,511,o),
(179,490,o),
(144,448,cs),
(73,363,o),
(26,226,o),
(26,109,cs),
(26,47,o),
(61,-12,o),
(129,-12,cs)
);
}
);
width = 335;
}
);
metricLeft = o;
metricRight = c;
note = c;
unicode = 99;
},
{
glyphname = d;
kernLeft = o;
kernRight = d;
lastChange = "2024-10-31 14:38:07 +0000";
layers = (
{
anchors = (
{
name = bottom;
pos = (220,0);
},
{
name = center;
pos = (388,670);
},
{
name = top;
pos = (451,923);
},
{
name = topright;
pos = (479,505);
}
);
layerId = "79E705E9-1ED7-4818-9510-7FD15DA5A41F";
shapes = (
{
closed = 1;
nodes = (
(295,-18,o),
(311,-6,o),
(313,10,c),
(307,29,o),
(304,47,o),
(304,66,cs),
(303,131,o),
(332,231,o),
(361,347,cs),
(380,424,o),
(393,484,o),
(400,527,cs),
(407,570,o),
(422,644,o),
(445,750,cs),
(468,855,o),
(479,916,o),
(479,932,cs),
(479,936,ls),
(479,951,o),
(472,959,o),
(458,959,cs),
(445,959,o),
(431,945,o),
(431,928,c),
(431,926,o),
(407,813,o),
(402,786,cs),
(374,650,o),
(379,674,o),
(330,460,c),
(316,490,o),
(294,505,o),
(263,505,cs),
(232,505,o),
(206,498,o),
(185,484,cs),
(143,456,o),
(122,433,o),
(86,369,cs),
(49,300,o),
(30,216,o),
(30,116,cs),
(30,62,o),
(56,-9,o),
(125,-9,cs),
(193,-9,o),
(233,29,o),
(260,110,c),
(256,92,o),
(254,76,o),
(254,63,cs),
(254,35,o),
(268,-18,o),
(285,-18,cs)
);
},
{
closed = 1;
nodes = (
(92,40,o),
(75,81,o),
(75,126,cs),
(75,163,o),
(83,208,o),
(99,262,cs),
(130,369,o),
(186,463,o),
(250,463,cs),
(286,463,o),
(306,423,o),
(306,390,cs),
(306,242,o),
(180,40,o),
(134,40,cs)
);
}
);
width = 439;
}
);
note = d;
unicode = 100;
},
{
glyphname = eth;
lastChange = "2024-10-31 14:38:07 +0000";
layers = (
{
layerId = "79E705E9-1ED7-4818-9510-7FD15DA5A41F";
shapes = (
{
closed = 1;
nodes = (
(212,-9,o),
(282,96,o),
(323,213,cs),
(364,330,o),
(381,427,o),
(387,460,cs),
(390,476,o),
(395,500,o),
(401,530,cs),
(408,561,o),
(411,586,o),
(411,605,cs),
(411,657,o),
(402,704,o),
(385,744,c),
(439,769,l),
(453,775,o),
(460,785,o),
(460,798,cs),
(460,812,o),
(454,819,o),
(442,819,cs),
(438,819,o),
(388,797,o),
(363,783,c),
(328,834,o),
(271,875,o),
(229,896,cs),
(208,906,o),
(195,913,o),
(189,916,cs),
(184,918,o),
(179,920,o),
(175,920,cs),
(165,920,o),
(150,915,o),
(150,897,cs),
(150,888,o),
(155,881,o),
(166,877,cs),
(236,849,o),
(289,809,o),
(323,758,c),
(300,745,o),
(271,732,o),
(238,720,c),
(229,713,o),
(225,703,o),
(225,691,cs),
(225,678,o),
(231,672,o),
(243,672,c),
(249,673,l),
(343,722,l),
(357,689,o),
(364,657,o),
(364,625,cs),
(364,592,o),
(360,560,o),
(353,530,cs),
(335,460,l),
(321,490,o),
(299,505,o),
(268,505,cs),
(237,505,o),
(211,498,o),
(190,484,cs),
(147,456,o),
(126,433,o),
(91,369,cs),
(54,301,o),
(35,217,o),
(35,116,cs),
(35,63,o),
(62,-9,o),
(122,-9,cs)
);
},
{
closed = 1;
nodes = (
(127,40,o),
(118,42,o),
(111,48,cs),
(90,63,o),
(80,90,o),
(80,126,cs),
(80,200,o),
(118,328,o),
(156,385,cs),
(193,441,o),
(222,463,o),
(249,463,cs),
(262,463,o),
(272,460,o),
(279,456,c),
(300,442,o),
(311,415,o),
(311,373,cs),
(311,332,o),
(301,285,o),
(281,232,cs),
(240,128,o),
(186,40,o),
(139,40,cs)
);
}
);
width = 435;
}
);
note = eth;
unicode = 240;
},
{
glyphname = e;
kernLeft = o;
kernRight = e;
lastChange = "2024-10-31 14:38:07 +0000";
layers = (
{
anchors = (
{
name = bottom;
pos = (132,0);
},
{
name = ogonek;
pos = (213,28);
},
{
name = top;
pos = (235,505);
}
);
layerId = "79E705E9-1ED7-4818-9510-7FD15DA5A41F";
shapes = (
{
closed = 1;
nodes = (
(179,-10,o),
(270,36,o),
(270,64,cs),
(270,76,o),
(264,82,o),
(253,82,cs),
(229,82,o),
(185,36,o),
(132,36,cs),
(98,36,o),
(81,64,o),
(81,120,cs),
(83,192,l),
(125,209,o),
(163,227,o),
(195,246,cs),
(260,283,o),
(311,341,o),
(311,427,cs),
(311,472,o),
(287,511,o),
(246,511,cs),
(208,511,o),
(173,492,o),
(141,455,cs),
(76,378,o),
(33,257,o),
(33,127,cs),
(33,90,o),
(40,59,o),
(54,33,cs),
(68,6,o),
(88,-10,o),
(133,-10,cs)
);
},
{
closed = 1;
nodes = (
(91,248,o),
(94,258,o),
(98,272,cs),
(115,330,o),
(137,376,o),
(164,411,cs),
(190,446,o),
(213,464,o),
(232,464,cs),
(254,464,o),
(265,451,o),
(265,425,cs),
(265,318,o),
(208,287,o),
(91,240,c)
);
}
);
width = 324;
}
);
note = e;
unicode = 101;
},
{
glyphname = f;
kernLeft = f;
kernRight = f;
lastChange = "2024-10-31 14:38:07 +0000";
layers = (
{
anchors = (
{
name = bottom;
pos = (171,0);
},
{
name = top;
pos = (209,844);
}
);
layerId = "79E705E9-1ED7-4818-9510-7FD15DA5A41F";
shapes = (
{
closed = 1;
nodes = (
(-144,-411,o),
(-86,-394,o),
(-43,-358,cs),
(27,-301,o),
(73,-201,o),
(96,-59,cs),
(115,56,o),
(150,312,o),
(176,454,c),
(192,454,o),
(284,453,o),
(293,454,cs),
(325,455,o),
(341,464,o),
(341,480,cs),
(341,493,o),
(332,499,o),
(313,499,c),
(186,500,l),
(211,670,o),
(280,800,o),
(377,800,cs),
(405,800,o),
(430,800,o),
(457,795,c),
(470,804,o),
(477,813,o),
(477,824,cs),
(477,844,o),
(449,854,o),
(394,854,cs),
(237,854,o),
(190,716,o),
(137,500,c),
(36,500,o),
(14,500,o),
(14,472,cs),
(14,461,o),
(21,455,o),
(34,454,c),
(127,456,l),
(106,319,o),
(58,-50,o),
(19,-164,cs),
(-19,-274,o),
(-85,-363,o),
(-211,-363,cs),
(-273,-363,o),
(-297,-356,o),
(-371,-303,c),
(-394,-302,o),
(-406,-312,o),
(-406,-324,cs),
(-406,-362,o),
(-289,-411,o),
(-215,-411,cs)
);
}
);
width = 342;
}
);
note = f;
unicode = 102;
},
{
glyphname = g;
kernLeft = g;
kernRight = g;
lastChange = "2024-10-31 14:38:07 +0000";
layers = (
{
anchors = (
{
name = bottom;
pos = (75,-397);
},
{
name = top;
pos = (285,505);
}
);
layerId = "79E705E9-1ED7-4818-9510-7FD15DA5A41F";
shapes = (
{
closed = 1;
nodes = (
(99,-410,o),
(126,-397,o),
(150,-370,cs),
(181,-336,o),
(206,-269,o),
(225,-170,cs),
(254,-23,l),
(283,-2,o),
(317,23,o),
(359,55,cs),
(364,60,o),
(367,66,o),
(367,75,cs),
(367,86,o),
(361,92,o),
(349,92,cs),
(331,92,o),
(296,50,o),
(260,26,c),
(263,40,o),
(301,216,o),
(304,229,cs),
(320,299,o),
(338,375,o),
(347,408,cs),
(354,431,o),
(365,463,o),
(365,480,cs),
(365,491,o),
(360,496,o),
(349,496,cs),
(344,496,o),
(340,495,o),
(336,493,c),
(318,503,o),
(298,509,o),
(275,509,cs),
(230,509,o),
(188,486,o),
(151,440,cs),
(75,348,o),
(30,208,o),
(30,94,cs),
(30,32,o),
(59,-6,o),
(108,-6,cs),
(162,-6,o),
(217,74,o),
(251,173,c),
(248,164,o),
(212,6,o),
(210,-7,c),
(189,-24,o),
(160,-47,o),
(123,-74,cs),
(49,-128,o),
(-46,-187,o),
(-46,-291,cs),
(-46,-363,o),
(3,-410,o),
(67,-410,cs)
);
},
{
closed = 1;
nodes = (
(28,-360,o),
(3,-340,o),
(3,-296,cs),
(3,-214,o),
(82,-154,o),
(130,-118,cs),
(154,-100,o),
(178,-81,o),
(202,-61,c),
(187,-140,ls),
(164,-261,o),
(140,-360,o),
(65,-360,cs)
);
},
{
closed = 1;
nodes = (
(87,40,o),
(75,64,o),
(75,111,cs),
(75,159,o),
(85,210,o),
(106,268,cs),
(147,381,o),
(215,469,o),
(274,469,cs),
(290,469,o),
(303,465,o),
(313,456,c),
(310,444,o),
(304,422,o),
(295,390,cs),
(286,357,o),
(273,312,o),
(256,254,cs),
(222,137,o),
(156,40,o),
(112,40,cs)
);
}
);
width = 380;
}
);
note = g;
unicode = 103;
},
{
glyphname = h;
kernLeft = h;
kernRight = n;
lastChange = "2024-10-31 14:38:07 +0000";
layers = (
{
anchors = (
{
name = bottom;
pos = (172,0);
},
{
name = center;
pos = (254,787);
},
{
name = top;
pos = (317,960);
}
);
layerId = "79E705E9-1ED7-4818-9510-7FD15DA5A41F";
shapes = (
{
closed = 1;
nodes = (
(91,-8,o),
(94,0,o),
(93,32,c),
(93,49,o),
(112,123,o),
(127,169,cs),
(143,215,o),
(264,450,o),
(334,450,cs),
(353,450,o),
(362,434,o),
(362,400,cs),
(362,386,o),
(361,374,o),
(359,364,cs),
(301,39,ls),
(296,12,o),
(305,-7,o),
(327,-7,cs),
(346,-7,o),
(358,4,o),
(358,21,c),
(356,60,l),
(356,78,o),
(366,132,o),
(384,225,cs),
(400,309,ls),
(409,351,o),
(413,383,o),
(413,407,cs),
(413,454,o),
(389,500,o),
(340,500,cs),
(279,500,o),
(215,430,o),
(147,290,c),
(157,337,o),
(170,396,o),
(185,465,cs),
(201,541,o),
(280,921,o),
(283,940,c),
(279,957,o),
(268,965,o),
(251,965,cs),
(243,965,o),
(237,960,o),
(234,950,cs),
(229,924,o),
(170,626,o),
(138,474,cs),
(73,175,o),
(40,20,o),
(40,9,cs),
(40,-2,o),
(46,-8,o),
(57,-8,cs)
);
}
);
width = 468;
}
);
note = h;
unicode = 104;
},
{
glyphname = idotless;
kernLeft = i;
kernRight = i;
lastChange = "2024-10-31 14:38:07 +0000";
layers = (
{
anchors = (
{
name = bottom;
pos = (71,0);
},
{
name = ogonek;
pos = (71,10);
},
{
name = top;
pos = (154,505);
}
);
background = {
shapes = (
{
closed = 1;
nodes = (
(83,-10,o),
(139,14,o),
(139,41,cs),
(139,54,o),
(134,61,o),
(123,61,cs),
(118,61,o),
(111,57,o),
(103,49,cs),
(95,41,o),
(89,36,o),
(85,36,cs),
(79,36,o),
(75,40,o),
(75,47,cs),
(75,54,o),
(90,123,o),
(121,255,cs),
(152,387,o),
(167,458,o),
(167,471,cs),
(167,495,o),
(155,519,o),
(140,519,cs),
(124,519,o),
(111,503,o),
(111,487,c),
(116,469,o),
(118,458,o),
(118,454,cs),
(118,444,ls),
(118,440,o),
(113,417,o),
(104,374,cs),
(94,331,o),
(86,294,o),
(80,264,cs),
(73,233,o),
(66,204,o),
(60,176,cs),
(54,147,o),
(49,125,o),
(45,109,cs),
(42,92,o),
(39,80,o),
(36,70,c),
(32,61,o),
(31,52,o),
(31,45,cs),
(31,8,o),
(42,-10,o),
(65,-10,cs)
);
},
{
closed = 1;
nodes = (
(175,594,o),
(181,595,o),
(187,596,cs),
(206,599,o),
(216,615,o),
(216,643,cs),
(216,662,o),
(206,672,o),
(187,672,cs),
(164,672,o),
(139,650,o),
(139,629,cs),
(139,609,o),
(155,594,o),
(168,594,cs)
);
}
);
};
layerId = "79E705E9-1ED7-4818-9510-7FD15DA5A41F";
shapes = (
{
closed = 1;
nodes = (
(83,-10,o),
(139,14,o),
(139,41,cs),
(139,54,o),
(134,61,o),
(123,61,cs),
(118,61,o),
(111,57,o),
(103,49,cs),
(95,41,o),
(89,36,o),
(85,36,cs),
(79,36,o),
(75,40,o),
(75,47,cs),
(75,54,o),
(90,123,o),
(121,255,cs),
(152,387,o),
(167,458,o),
(167,471,cs),
(167,495,o),
(155,519,o),
(140,519,cs),
(124,519,o),
(111,503,o),
(111,487,c),
(116,469,o),
(118,458,o),
(118,454,cs),
(118,444,ls),
(118,440,o),
(113,417,o),
(104,374,cs),
(94,331,o),
(86,294,o),
(80,264,cs),
(73,233,o),
(66,204,o),
(60,176,cs),
(54,147,o),
(49,125,o),
(45,109,cs),
(42,92,o),
(39,80,o),
(36,70,c),
(32,61,o),
(31,52,o),
(31,45,cs),
(31,8,o),
(42,-10,o),
(65,-10,cs)
);
}
);
width = 214;
}
);
unicode = 305;
},
{
glyphname = jdotless;
kernLeft = j;
kernRight = j;
lastChange = "2024-10-31 14:38:07 +0000";
layers = (
{
anchors = (
{
name = bottom;
pos = (-224,-415);
},
{
name = top;
pos = (149,505);
}
);
layerId = "79E705E9-1ED7-4818-9510-7FD15DA5A41F";
shapes = (
{
closed = 1;
nodes = (
(-112,-414,o),
(-12,-362,o),
(42,-196,cs),
(74,-97,o),
(108,82,o),
(145,340,cs),
(166,490,l),
(166,502,o),
(160,508,o),
(149,508,cs),
(138,508,o),
(125,500,o),
(121,485,c),
(83,204,o),
(36,-364,o),
(-224,-364,cs),
(-259,-364,o),
(-288,-359,o),
(-309,-351,c),
(-322,-354,o),
(-334,-368,o),
(-334,-380,cs),
(-334,-386,o),
(-330,-391,o),
(-323,-395,cs),
(-299,-408,o),
(-269,-414,o),
(-233,-414,cs)
);
}
);
width = 201;
}
);
unicode = 567;
},
{
glyphname = k;
kernLeft = k;
kernRight = k;
lastChange = "2024-10-31 14:38:07 +0000";
layers = (
{
anchors = (
{
name = bottom;
pos = (218,0);
},
{
name = top;
pos = (264,960);
}
);
layerId = "79E705E9-1ED7-4818-9510-7FD15DA5A41F";
shapes = (
{
closed = 1;
nodes = (
(72,-12,o),
(80,-4,o),
(83,13,cs),
(85,23,o),
(92,52,o),
(104,102,cs),
(117,150,o),
(124,183,o),
(126,200,c),
(133,205,l),
(137,181,o),
(144,149,o),
(163,115,cs),
(200,46,o),
(260,-10,o),
(336,-10,cs),
(359,-10,o),
(381,2,o),
(403,27,cs),
(415,40,o),
(420,52,o),
(420,65,cs),
(420,87,o),
(411,98,o),
(394,98,cs),
(387,98,o),
(382,93,o),
(378,84,cs),
(372,65,o),
(365,37,o),
(332,37,cs),
(262,37,o),
(185,125,o),
(167,225,c),
(279,292,o),
(334,345,o),
(334,423,cs),
(334,465,o),
(317,510,o),
(264,510,cs),
(237,510,o),
(210,496,o),
(183,467,c),
(188,490,o),
(198,536,o),
(213,606,cs),
(250,766,o),
(238,727,o),
(268,864,cs),
(275,900,o),
(279,923,o),
(279,931,cs),
(279,953,o),
(269,964,o),
(247,964,cs),
(230,964,o),
(223,904,o),
(210,824,cs),
(183,665,o),
(138,478,o),
(78,224,cs),
(48,102,o),
(32,28,o),
(32,2,cs),
(32,-5,o),
(44,-12,o),
(60,-12,cs)
);
},
{
closed = 1;
nodes = (
(142,303,o),
(146,318,o),
(147,327,cs),
(164,419,o),
(202,464,o),
(253,464,cs),
(273,464,o),
(283,449,o),
(283,420,cs),
(283,391,o),
(273,365,o),
(253,342,cs),
(214,297,o),
(167,269,o),
(149,258,cs),
(140,253,o),
(134,249,o),
(131,246,c)
);
}
);
width = 436;
}
);
note = k;
unicode = 107;
},
{
glyphname = l;
kernLeft = l;
kernRight = l;
lastChange = "2024-10-31 14:38:07 +0000";
layers = (
{
anchors = (
{
name = bottom;
pos = (102,0);
},
{
name = center;
pos = (131,459);
},
{
name = top;
pos = (191,961);
},
{
name = topright;
pos = (241,505);
}
);
layerId = "79E705E9-1ED7-4818-9510-7FD15DA5A41F";
shapes = (
{
closed = 1;
nodes = (
(167,-8,o),
(213,9,o),
(213,39,cs),
(213,54,o),
(206,61,o),
(191,61,cs),
(189,61,o),
(187,60,o),
(181,57,c),
(176,54,o),
(170,51,o),
(164,48,cs),
(150,42,o),
(138,35,o),
(121,35,cs),
(104,35,o),
(90,54,o),
(90,74,cs),
(90,84,o),
(94,114,o),
(103,164,cs),
(120,264,o),
(199,637,o),
(224,752,cs),
(257,913,o),
(245,843,o),
(261,943,cs),
(261,958,o),
(254,966,o),
(240,966,cs),
(228,966,o),
(221,960,o),
(218,950,c),
(215,939,o),
(158,671,o),
(126,519,cs),
(117,476,o),
(108,434,o),
(100,393,cs),
(83,311,o),
(69,238,o),
(59,181,cs),
(49,124,o),
(45,100,o),
(45,61,cs),
(45,22,o),
(68,-8,o),
(118,-8,cs)
);
}
);
width = 261;
}
);
note = l;
unicode = 108;
},
{
glyphname = m;
kernLeft = n;
kernRight = n;
lastChange = "2024-10-31 14:38:07 +0000";
layers = (
{
anchors = (
{
name = bottom;
pos = (285,0);
},
{
name = top;
pos = (356,505);
}
);
layerId = "79E705E9-1ED7-4818-9510-7FD15DA5A41F";
shapes = (
{
closed = 1;
nodes = (
(83,-14,o),
(104,20,o),
(125,87,cs),
(129,98,o),
(134,115,o),
(142,136,cs),
(156,179,o),
(277,459,o),
(354,459,cs),
(368,459,o),
(375,448,o),
(375,425,cs),
(375,380,o),
(353,311,o),
(333,261,cs),
(313,212,o),
(275,125,o),
(260,16,c),
(261,0,o),
(270,-9,o),
(285,-9,cs),
(293,-9,o),
(299,-6,o),
(303,-1,c),
(307,4,o),
(311,17,o),
(316,37,cs),
(326,76,o),
(347,137,o),
(357,167,cs),
(363,182,o),
(368,199,o),
(374,220,cs),
(395,290,o),
(425,349,o),
(466,396,cs),
(502,438,o),
(542,462,o),
(560,462,cs),
(577,462,o),
(583,461,o),
(583,434,c),
(575,350,o),
(545,271,o),
(529,225,cs),
(521,202,o),
(514,183,o),
(510,167,cs),
(505,150,o),
(499,130,o),
(491,106,cs),
(484,83,o),
(480,61,o),
(480,40,cs),
(480,7,o),
(488,-9,o),
(503,-9,cs),
(519,-9,o),
(527,6,o),
(530,15,cs),
(532,19,o),
(533,32,o),
(536,54,cs),
(540,98,o),
(573,199,o),
(589,246,cs),
(597,269,o),
(604,292,o),
(611,315,cs),
(624,360,o),
(633,407,o),
(633,446,cs),
(633,485,o),
(606,510,o),
(582,510,cs),
(569,510,o),
(557,507,o),
(545,502,cs),
(506,486,o),
(468,456,o),
(432,412,c),
(432,415,o),
(432,417,o),
(433,420,cs),
(433,422,o),
(433,425,o),
(433,428,cs),
(433,471,o),
(405,509,o),
(365,509,cs),
(329,509,o),
(295,492,o),
(265,458,cs),
(234,423,o),
(200,364,o),
(165,282,cs),
(156,262,o),
(148,245,o),
(141,230,c),
(166,335,ls),
(179,391,o),
(187,443,o),
(188,490,cs),
(188,498,l),
(185,509,o),
(179,515,o),
(170,515,cs),
(167,515,o),
(162,514,o),
(155,511,c),
(146,501,o),
(141,493,o),
(141,488,cs),
(140,482,o),
(139,477,o),
(138,471,cs),
(120,348,o),
(98,230,o),
(70,120,c),
(63,101,o),
(58,80,o),
(54,58,cs),
(50,35,o),
(45,16,o),
(40,0,c),
(40,-8,o),
(51,-14,o),
(64,-14,cs)
);
}
);
width = 688;
}
);
note = m;
unicode = 109;
},
{
glyphname = n;
kernLeft = n;
kernRight = n;
lastChange = "2024-10-31 14:38:07 +0000";
layers = (
{
anchors = (
{
name = bottom;
pos = (180,0);
},
{
name = top;
pos = (259,505);
}
);
layerId = "79E705E9-1ED7-4818-9510-7FD15DA5A41F";
shapes = (
{
closed = 1;
nodes = (
(334,-6,o),
(341,79,o),
(354,160,cs),
(369,256,o),
(391,339,o),
(391,393,cs),
(391,465,o),
(369,501,o),
(324,501,cs),
(299,501,o),
(271,480,o),
(242,438,cs),
(197,373,o),
(157,277,o),
(138,233,cs),
(129,211,o),
(120,192,o),
(113,177,c),
(123,236,ls),
(150,387,o),
(180,455,o),
(180,473,cs),
(180,483,o),
(170,500,o),
(153,500,cs),
(136,500,o),
(133,498,o),
(125,482,cs),
(117,467,o),
(40,42,o),
(40,24,cs),
(40,6,o),
(41,0,o),
(55,0,cs),
(68,0,o),
(79,13,o),
(91,39,cs),
(103,63,o),
(253,444,o),
(314,444,cs),
(332,444,o),
(341,428,o),
(341,396,cs),
(341,376,o),
(338,349,o),
(332,313,cs),
(283,21,ls),
(280,1,o),
(290,-6,o),
(311,-6,cs)
);
}
);
width = 446;
}
);
note = n;
unicode = 110;
},
{
glyphname = eng;
kernLeft = n;
kernRight = j;
lastChange = "2024-10-31 14:38:07 +0000";
layers = (
{
background = {
shapes = (
{
closed = 1;
nodes = (
(316,-29,l),
(347,-7,o),
(381,23,o),
(429,55,cs),
(435,59,o),
(437,66,o),
(437,75,cs),
(437,86,o),
(431,92,o),
(419,92,cs),
(399,92,o),
(358,40,o),
(318,19,c)
);
},
{
closed = 1;
nodes = (
(366,229,l),
(318,204,l),
(257,-140,ls),
(236,-256,o),
(199,-360,o),
(128,-360,cs),
(87,-360,o),
(73,-340,o),
(73,-286,cs),
(73,-194,o),
(231,-95,o),
(283,-52,c),
(287,-1,l),
(237,-42,o),
(24,-163,o),
(24,-291,cs),
(24,-363,o),
(73,-410,o),
(137,-410,cs),
(228,-410,o),
(270,-309,o),
(295,-170,cs)
);
}
);
};
layerId = "79E705E9-1ED7-4818-9510-7FD15DA5A41F";
shapes = (
{
closed = 1;
nodes = (
(263,-22,o),
(19,-163,o),
(19,-291,cs),
(19,-363,o),
(68,-410,o),
(132,-410,cs),
(223,-410,o),
(261,-309,o),
(290,-170,cs),
(337,54,l),
(290,59,l),
(252,-140,ls),
(230,-256,o),
(198,-364,o),
(127,-364,cs),
(86,-364,o),
(68,-333,o),
(68,-296,cs),
(68,-200,o),
(259,-74,o),
(311,-29,c),
(342,-7,o),
(376,23,o),
(424,55,cs),
(430,59,o),
(432,66,o),
(432,75,cs),
(432,86,o),
(426,92,o),
(414,92,cs),
(394,92,o),
(353,40,o),
(313,19,c)
);
},
{
ref = n;
}
);
width = 446;
}
);
unicode = 331;
},
{
glyphname = o;
kernLeft = o;
kernRight = o;
lastChange = "2024-10-31 14:38:07 +0000";
layers = (
{
anchors = (
{
name = bottom;
pos = (135,1);
},
{
name = center;
pos = (190,252);
},
{
name = ogonek;
pos = (153,10);
},
{
name = top;
pos = (259,505);
},
{
name = topright;
pos = (340,439);
}
);
layerId = "79E705E9-1ED7-4818-9510-7FD15DA5A41F";
shapes = (
{
closed = 1;
nodes = (
(154,-9,o),
(174,-2,o),
(193,10,cs),
(270,60,o),
(351,220,o),
(351,365,cs),
(351,458,o),
(320,505,o),
(259,505,cs),
(217,505,o),
(178,486,o),
(144,448,cs),
(73,373,o),
(30,251,o),
(30,130,cs),
(30,62,o),
(59,-9,o),
(133,-9,cs)
);
},
{
closed = 1;
nodes = (
(130,36,o),
(122,39,o),
(114,43,cs),
(88,60,o),
(75,91,o),
(75,137,cs),
(75,204,o),
(93,273,o),
(128,343,cs),
(151,391,o),
(178,424,o),
(208,443,cs),
(224,454,o),
(239,459,o),
(252,459,cs),
(278,459,o),
(287,452,o),
(295,432,cs),
(300,422,o),
(302,398,o),
(302,360,cs),
(302,322,o),
(293,277,o),
(275,224,cs),
(240,118,o),
(182,36,o),
(141,36,cs)
);
}
);
width = 381;
}
);
note = o;
unicode = 111;
},
{
glyphname = oslash;
kernLeft = o;
kernRight = o;
lastChange = "2024-10-31 14:38:07 +0000";
layers = (
{
anchors = (
{
name = top;
pos = (258,505);
}
);
background = {
shapes = (
{
closed = 1;
nodes = (
(28,-61,o),
(36,-55,o),
(86,26,c),
(92,38,o),
(301,399,o),
(319,448,c),
(365,546,l),
(366,555,o),
(359,562,o),
(348,562,c),
(335,562,o),
(336,555,o),
(290,473,c),
(268,404,o),
(11,-31,o),
(6,-45,cs),
(3,-54,o),
(8,-59,o),
(17,-60,cs)
);
},
{
ref = o;
}
);
};
layerId = "79E705E9-1ED7-4818-9510-7FD15DA5A41F";
shapes = (
{
closed = 1;
nodes = (
(28,-61,o),
(36,-55,o),
(86,26,c),
(92,38,o),
(301,399,o),
(319,448,c),
(365,546,l),
(366,555,o),
(359,562,o),
(348,562,c),
(335,562,o),
(336,555,o),
(290,473,c),
(268,404,o),
(11,-31,o),
(6,-45,cs),
(3,-54,o),
(8,-59,o),
(17,-60,cs)
);
},
{
ref = o;
}
);
width = 378;
}
);
note = oslash;
unicode = 248;
},
{
glyphname = oe;
kernLeft = o;
kernRight = e;
lastChange = "2024-10-31 14:38:07 +0000";
layers = (
{
layerId = "79E705E9-1ED7-4818-9510-7FD15DA5A41F";
shapes = (
{
closed = 1;
nodes = (
(410,-10,o),
(498,36,o),
(498,64,cs),
(498,76,o),
(492,82,o),
(481,82,cs),
(457,82,o),
(413,36,o),
(360,36,cs),
(326,36,o),
(309,64,o),
(309,120,cs),
(311,192,l),
(354,209,o),
(391,227,o),
(423,246,cs),
(488,283,o),
(539,342,o),
(539,427,cs),
(539,472,o),
(515,511,o),
(474,511,cs),
(426,511,o),
(381,480,o),
(340,417,c),
(330,476,o),
(300,505,o),
(252,505,cs),
(210,505,o),
(171,486,o),
(137,448,cs),
(66,373,o),
(23,251,o),
(23,130,cs),
(23,61,o),
(52,-9,o),
(124,-9,cs),
(175,-9,o),
(222,26,o),
(264,95,c),
(272,25,o),
(302,-10,o),
(351,-10,cs)
);
},
{
closed = 1;
nodes = (
(97,36,o),
(68,71,o),
(68,137,cs),
(68,204,o),
(85,273,o),
(121,343,cs),
(153,408,o),
(204,459,o),
(245,459,cs),
(308,459,o),
(311,395,o),
(269,224,cs),
(243,116,o),
(177,36,o),
(134,36,cs)
);
},
{
closed = 1;
nodes = (
(353,392,o),
(393,464,o),
(460,464,cs),
(482,464,o),
(493,451,o),
(493,425,cs),
(493,321,o),
(420,291,o),
(326,244,c)
);
}
);
width = 552;
}
);
note = oe;
unicode = 339;
},
{
glyphname = p;
kernLeft = p;
kernRight = o;
lastChange = "2024-10-31 14:38:07 +0000";
layers = (
{
anchors = (
{
name = bottom;
pos = (-18,-387);
},
{
name = top;
pos = (272,505);
}
);
layerId = "79E705E9-1ED7-4818-9510-7FD15DA5A41F";
shapes = (
{
closed = 1;
nodes = (
(-14,-410,o),
(-4,-403,o),
(2,-390,c),
(18,-330,o),
(33,-262,o),
(48,-187,cs),
(63,-112,o),
(79,-38,o),
(95,38,c),
(109,1,o),
(129,-13,o),
(166,-13,cs),
(213,-13,o),
(255,9,o),
(290,54,cs),
(360,144,o),
(395,282,o),
(395,405,cs),
(395,472,o),
(372,507,o),
(313,507,cs),
(258,507,o),
(207,461,o),
(159,370,c),
(173,442,l),
(173,445,o),
(174,449,o),
(175,453,cs),
(177,458,o),
(178,462,o),
(179,466,c),
(182,475,o),
(184,483,o),
(184,495,cs),
(184,506,o),
(177,522,o),
(161,522,cs),
(145,522,o),
(131,507,o),
(131,494,cs),
(131,472,l),
(102,327,o),
(82,220,o),
(69,152,cs),
(56,84,o),
(46,32,o),
(39,-5,cs),
(32,-42,o),
(22,-94,o),
(9,-162,cs),
(-4,-229,o),
(-21,-306,o),
(-43,-390,c),
(-42,-403,o),
(-36,-410,o),
(-26,-410,cs)
);
},
{
closed = 1;
nodes = (
(135,34,o),
(116,60,o),
(116,111,cs),
(116,193,o),
(166,329,o),
(244,416,cs),
(271,446,o),
(296,462,o),
(317,462,cs),
(338,462,o),
(349,440,o),
(349,397,cs),
(349,374,o),
(347,349,o),
(344,323,cs),
(332,230,o),
(307,156,o),
(270,100,cs),
(240,56,o),
(208,34,o),
(173,34,cs)
);
}
);
width = 418;
}
);
note = p;
unicode = 112;
},
{
glyphname = thorn;
kernLeft = p;
kernRight = o;
lastChange = "2024-10-31 14:38:07 +0000";
layers = (
{
layerId = "79E705E9-1ED7-4818-9510-7FD15DA5A41F";
shapes = (
{
closed = 1;
nodes = (
(-15,-414,o),
(0,-405,o),
(3,-390,cs),
(31,-241,o),
(61,-99,o),
(93,45,c),
(110,1,o),
(138,-16,o),
(176,-16,cs),
(226,-16,o),
(269,5,o),
(304,48,cs),
(364,119,o),
(396,241,o),
(396,357,cs),
(396,416,o),
(352,509,o),
(293,509,cs),
(248,509,o),
(205,478,o),
(166,415,c),
(166,418,o),
(238,759,o),
(240,767,c),
(240,785,o),
(233,794,o),
(220,794,cs),
(204,794,o),
(199,788,o),
(193,770,c),
(-32,-304,o),
(-43,-346,o),
(-43,-392,cs),
(-43,-407,o),
(-37,-414,o),
(-24,-414,cs)
);
},
{
closed = 1;
nodes = (
(150,28,o),
(102,66,o),
(117,135,c),
(138,253,l),
(152,333,o),
(221,460,o),
(285,460,cs),
(322,460,o),
(350,405,o),
(350,327,cs),
(350,294,o),
(343,252,o),
(330,201,cs),
(303,99,o),
(244,28,o),
(189,28,cs)
);
}
);
width = 419;
}
);
note = thorn;
unicode = 254;
},
{
glyphname = q;
kernLeft = o;
kernRight = q;
lastChange = "2024-10-31 14:38:07 +0000";
layers = (
{
anchors = (
{
name = bottom;
pos = (160,-405);
},
{
name = top;
pos = (240,505);
}
);
layerId = "79E705E9-1ED7-4818-9510-7FD15DA5A41F";
shapes = (
{
closed = 1;
nodes = (
(165,-412,o),
(173,-405,o),
(177,-392,c),
(197,-301,o),
(211,-234,o),
(220,-191,cs),
(229,-149,o),
(237,-109,o),
(246,-70,cs),
(296,167,o),
(322,304,o),
(323,343,c),
(329,353,o),
(332,361,o),
(333,367,c),
(333,445,o),
(292,510,o),
(234,510,cs),
(184,510,o),
(142,483,o),
(108,429,cs),
(54,342,o),
(30,201,o),
(30,88,cs),
(30,37,o),
(55,-8,o),
(101,-8,cs),
(124,-8,o),
(143,0,o),
(159,14,cs),
(190,43,o),
(212,87,o),
(223,109,cs),
(229,120,o),
(234,129,o),
(240,138,c),
(246,168,o),
(161,-243,o),
(150,-297,cs),
(146,-323,o),
(141,-345,o),
(138,-363,cs),
(134,-381,o),
(132,-393,o),
(132,-396,cs),
(132,-405,o),
(142,-412,o),
(152,-412,cs)
);
},
{
closed = 1;
nodes = (
(85,41,o),
(75,64,o),
(75,110,cs),
(75,235,o),
(138,464,o),
(234,464,cs),
(258,464,o),
(274,442,o),
(283,400,c),
(280,397,l),
(275,389,o),
(273,377,o),
(272,363,cs),
(271,349,o),
(270,337,o),
(269,330,cs),
(265,287,o),
(153,41,o),
(106,41,cs)
);
}
);
width = 373;
}
);
note = q;
unicode = 113;
},
{
glyphname = r;
kernLeft = r;
kernRight = r;
lastChange = "2024-10-31 14:38:07 +0000";
layers = (
{
anchors = (
{
name = bottom;
pos = (61,0);
},
{
name = top;
pos = (272,505);
}
);
layerId = "79E705E9-1ED7-4818-9510-7FD15DA5A41F";
shapes = (
{
closed = 1;
nodes = (
(74,-16,o),
(89,10,o),
(99,63,cs),
(129,176,o),
(164,355,o),
(278,438,cs),
(301,455,o),
(316,462,o),
(332,451,cs),
(352,441,o),
(377,450,o),
(377,471,cs),
(377,489,o),
(353,506,o),
(318,506,cs),
(295,506,o),
(272,496,o),
(250,477,cs),
(202,432,o),
(175,390,o),
(139,310,c),
(157,374,o),
(160,390,o),
(169,421,cs),
(178,451,o),
(183,472,o),
(183,491,cs),
(183,509,o),
(175,514,o),
(162,514,cs),
(147,514,o),
(138,502,o),
(133,472,cs),
(130,454,o),
(74,180,o),
(63,121,cs),
(40,2,l),
(40,-10,o),
(45,-16,o),
(54,-16,cs)
);
}
);
width = 355;
}
);
note = r;
unicode = 114;
},
{
glyphname = s;
kernLeft = s;
kernRight = s;
lastChange = "2024-10-31 16:55:15 +0000";
layers = (
{
anchors = (
{
name = bottom;
pos = (122,0);
},
{
name = top;
pos = (226,505);
}
);
layerId = "79E705E9-1ED7-4818-9510-7FD15DA5A41F";
shapes = (
{
closed = 1;
nodes = (
(193,6,o),
(235,58,o),
(235,125,cs),
(235,214,o),
(140,319,o),
(140,410,cs),
(140,448,o),
(156,467,o),
(189,467,cs),
(204,467,o),
(217,460,o),
(229,446,cs),
(237,436,o),
(243,425,o),
(255,425,cs),
(271,425,o),
(279,435,o),
(279,454,cs),
(279,492,o),
(228,517,o),
(189,517,cs),
(126,517,o),
(90,469,o),
(90,400,cs),
(90,366,o),
(106,318,o),
(140,257,cs),
(170,200,o),
(189,158,o),
(189,116,cs),
(189,82,o),
(161,49,o),
(116,49,cs),
(95,49,o),
(90,62,o),
(83,74,cs),
(75,87,o),
(68,99,o),
(55,99,cs),
(43,97,o),
(30,93,o),
(30,74,cs),
(30,38,o),
(68,-3,o),
(117,-3,c)
);
}
);
width = 309;
}
);
metricLeft = s;
metricRight = s;
note = s;
unicode = 115;
},
{
glyphname = germandbls;
lastChange = "2024-10-31 14:38:07 +0000";
layers = (
{
layerId = "79E705E9-1ED7-4818-9510-7FD15DA5A41F";
shapes = (
{
closed = 1;
nodes = (
(-47,-448,o),
(-29,-436,o),
(-24,-420,c),
(-2,-306,o),
(41,-61,o),
(74,95,cs),
(162,513,o),
(292,922,o),
(477,922,cs),
(515,922,o),
(519,908,o),
(519,883,cs),
(519,824,o),
(340,618,o),
(248,567,c),
(220,552,o),
(209,551,o),
(209,530,cs),
(209,521,o),
(215,517,o),
(226,516,c),
(256,519,o),
(278,520,o),
(293,520,cs),
(361,520,o),
(382,439,o),
(382,336,cs),
(382,225,o),
(345,38,o),
(197,38,cs),
(148,38,o),
(145,65,o),
(127,96,c),
(113,110,o),
(81,93,o),
(81,60,cs),
(81,23,o),
(139,-8,o),
(178,-8,cs),
(238,-8,o),
(287,10,o),
(326,46,cs),
(399,115,o),
(436,227,o),
(436,382,cs),
(436,456,o),
(397,540,o),
(305,564,c),
(429,663,o),
(570,846,o),
(570,910,cs),
(570,948,o),
(546,967,o),
(499,967,cs),
(285,967,o),
(226,748,o),
(161,574,cs),
(128,487,o),
(90,354,o),
(48,175,cs),
(-13,-86,o),
(-72,-424,o),
(-72,-434,cs),
(-72,-443,o),
(-67,-448,o),
(-59,-448,cs)
);
}
);
width = 479;
}
);
note = germandbls;
unicode = 223;
},
{
glyphname = t;
kernLeft = t;
kernRight = t;
lastChange = "2024-10-31 14:38:07 +0000";
layers = (
{
anchors = (
{
name = bottom;
pos = (114,0);
},
{
name = center;
pos = (170,349);
},
{
name = top;
pos = (167,505);
},
{
name = topright;
pos = (225,536);
}
);
layerId = "79E705E9-1ED7-4818-9510-7FD15DA5A41F";
shapes = (
{
closed = 1;
nodes = (
(151,-4,o),
(168,0,o),
(179,9,cs),
(202,26,o),
(237,65,o),
(237,79,cs),
(237,92,o),
(230,99,o),
(217,99,cs),
(203,99,o),
(192,85,o),
(181,71,cs),
(169,57,o),
(155,43,o),
(135,43,cs),
(125,43,o),
(118,45,o),
(114,51,c),
(108,59,o),
(105,76,o),
(105,102,cs),
(105,128,o),
(116,185,o),
(137,274,cs),
(158,364,o),
(172,424,o),
(178,457,c),
(204,455,o),
(227,454,o),
(249,454,cs),
(292,454,o),
(313,457,o),
(313,479,cs),
(313,485,o),
(310,490,o),
(305,494,c),
(299,498,o),
(283,500,o),
(258,500,cs),
(186,500,l),
(192,536,o),
(201,573,o),
(210,614,c),
(210,620,ls),
(210,632,o),
(205,638,o),
(194,638,cs),
(183,638,o),
(174,631,o),
(168,616,cs),
(154,586,o),
(147,543,o),
(145,524,cs),
(143,514,o),
(142,506,o),
(140,499,c),
(68,501,l),
(52,499,o),
(41,484,o),
(41,472,cs),
(41,462,o),
(48,457,o),
(61,455,c),
(81,458,o),
(105,460,o),
(133,460,c),
(128,437,o),
(124,413,o),
(118,387,cs),
(112,361,o),
(107,341,o),
(104,325,cs),
(100,309,o),
(96,291,o),
(91,270,cs),
(86,249,o),
(81,224,o),
(74,196,c),
(65,139,ls),
(61,116,o),
(59,96,o),
(59,79,cs),
(59,13,o),
(86,-4,o),
(129,-4,cs)
);
}
);
width = 316;
}
);
note = t;
unicode = 116;
},
{
glyphname = tbar;
kernLeft = t;
kernRight = t;
lastChange = "2024-10-31 14:38:07 +0000";
layers = (
{
layerId = "79E705E9-1ED7-4818-9510-7FD15DA5A41F";
shapes = (
{
closed = 1;
nodes = (
(274,324,o),
(283,324,o),
(283,355,cs),
(283,363,o),
(277,370,o),
(265,370,cs),
(233,363,o),
(224,362,o),
(198,362,cs),
(168,362,o),
(154,367,o),
(128,370,cs),
(103,373,o),
(90,375,o),
(73,375,cs),
(39,375,o),
(13,364,o),
(13,343,cs),
(13,330,o),
(19,324,o),
(31,324,cs),
(34,324,l),
(87,333,o),
(97,324,o),
(141,324,cs)
);
},
{
ref = t;
}
);
width = 316;
}
);
unicode = 359;
},
{
glyphname = u;
kernLeft = u;
kernRight = u;
lastChange = "2024-10-31 14:38:07 +0000";
layers = (
{
anchors = (
{
name = bottom;
pos = (169,0);
},
{
name = ogonek;
pos = (278,0);
},
{
name = top;
pos = (274,505);
},
{
name = topright;
pos = (383,484);
}
);
layerId = "79E705E9-1ED7-4818-9510-7FD15DA5A41F";
shapes = (
{
closed = 1;
nodes = (
(304,-24,o),
(324,-11,o),
(324,3,cs),
(324,25,o),
(306,17,o),
(306,53,c),
(312,145,o),
(326,232,o),
(350,315,cs),
(361,357,o),
(400,443,o),
(400,465,cs),
(400,478,o),
(394,484,o),
(383,484,cs),
(345,484,o),
(248,267,o),
(229,226,cs),
(167,106,o),
(125,46,o),
(99,46,cs),
(90,46,o),
(86,59,o),
(86,86,cs),
(91,314,o),
(139,413,o),
(147,487,c),
(144,498,o),
(138,504,o),
(130,504,cs),
(115,504,o),
(105,493,o),
(99,471,c),
(83,410,ls),
(55,294,o),
(40,190,o),
(40,99,cs),
(40,28,o),
(58,-8,o),
(94,-8,cs),
(157,-8,o),
(228,138,o),
(259,202,cs),
(272,231,o),
(285,259,o),
(299,286,c),
(283,211,o),
(262,131,o),
(262,56,cs),
(262,3,o),
(272,-24,o),
(292,-24,cs)
);
}
);
width = 425;
}
);
note = u;
unicode = 117;
},
{
glyphname = v;
kernLeft = v;
kernRight = v;
lastChange = "2024-10-31 14:38:07 +0000";
layers = (
{
anchors = (
{
name = bottom;
pos = (145,4);
},
{
name = top;
pos = (197,505);
}
);
layerId = "79E705E9-1ED7-4818-9510-7FD15DA5A41F";
shapes = (
{
closed = 1;
nodes = (
(136,-3,o),
(145,4,o),
(155,17,cs),
(186,58,o),
(213,100,o),
(237,143,cs),
(311,276,o),
(347,396,o),
(347,502,cs),
(347,609,o),
(301,666,o),
(208,673,c),
(189,670,o),
(180,662,o),
(180,648,cs),
(180,636,o),
(187,634,o),
(206,631,cs),
(216,630,o),
(227,627,o),
(238,623,cs),
(279,607,o),
(300,564,o),
(300,494,cs),
(300,353,o),
(236,223,o),
(139,70,c),
(130,150,o),
(121,226,o),
(111,296,cs),
(102,367,o),
(94,436,o),
(87,501,c),
(84,512,o),
(78,518,o),
(68,518,cs),
(59,518,o),
(45,507,o),
(41,494,c),
(54,396,o),
(64,313,o),
(72,245,cs),
(79,176,o),
(88,101,o),
(100,18,cs),
(102,4,o),
(111,-3,o),
(128,-3,cs)
);
}
);
width = 342;
}
);
note = v;
unicode = 118;
},
{
glyphname = w;
kernLeft = w;
kernRight = w;
lastChange = "2024-10-31 14:38:07 +0000";
layers = (
{
anchors = (
{
name = bottom;
pos = (241,0);
},
{
name = top;
pos = (305,505);
}
);
layerId = "79E705E9-1ED7-4818-9510-7FD15DA5A41F";
shapes = (
{
closed = 1;
nodes = (
(389,-7,o),
(415,56,o),
(430,80,cs),
(512,183,o),
(570,288,o),
(570,385,cs),
(570,465,o),
(537,525,o),
(481,526,cs),
(466,525,o),
(453,512,o),
(453,500,cs),
(453,482,o),
(493,471,o),
(504,458,cs),
(571,374,o),
(476,216,o),
(381,85,c),
(360,194,o),
(342,327,o),
(327,482,cs),
(325,497,o),
(320,505,o),
(305,505,cs),
(292,505,o),
(285,499,o),
(282,486,cs),
(262,386,o),
(180,185,o),
(150,100,c),
(129,128,o),
(100,437,o),
(94,469,cs),
(89,492,o),
(78,501,o),
(66,501,cs),
(54,501,o),
(41,485,o),
(41,476,cs),
(41,479,o),
(59,375,o),
(74,258,cs),
(87,158,o),
(99,84,o),
(110,38,c),
(110,11,o),
(117,-3,o),
(131,-3,cs),
(140,-3,o),
(147,1,o),
(154,10,c),
(200,106,o),
(255,276,o),
(289,351,c),
(296,289,o),
(311,197,o),
(334,75,cs),
(336,65,o),
(335,50,o),
(335,33,cs),
(335,6,o),
(343,-7,o),
(358,-7,cs)
);
}
);
width = 575;
}
);
metricLeft = w;
metricRight = w;
note = w;
unicode = 119;
},
{
glyphname = x;
kernLeft = x;
kernRight = x;
lastChange = "2024-10-31 14:38:07 +0000";
layers = (
{
anchors = (
{
name = bottom;
pos = (125,0);
},
{
name = top;
pos = (203,505);
}
);
layerId = "79E705E9-1ED7-4818-9510-7FD15DA5A41F";
shapes = (
{
closed = 1;
nodes = (
(271,-8,o),
(284,3,o),
(286,17,c),
(286,29,o),
(283,42,o),
(275,56,cs),
(268,69,o),
(261,86,o),
(255,105,cs),
(249,125,o),
(227,179,o),
(191,267,c),
(208,288,o),
(229,316,o),
(253,352,cs),
(278,387,o),
(296,413,o),
(309,428,cs),
(321,443,o),
(330,455,o),
(335,465,cs),
(338,471,o),
(340,479,o),
(340,487,cs),
(340,496,o),
(334,501,o),
(324,503,c),
(320,503,o),
(315,502,o),
(310,500,c),
(299,494,o),
(290,485,o),
(282,476,cs),
(274,466,o),
(257,441,o),
(230,403,cs),
(203,364,o),
(182,336,o),
(169,320,c),
(165,330,o),
(161,340,o),
(158,350,cs),
(150,368,o),
(144,386,o),
(138,404,cs),
(131,422,o),
(126,438,o),
(123,456,cs),
(121,465,o),
(118,474,o),
(115,483,cs),
(109,500,o),
(101,515,o),
(85,515,cs),
(69,515,o),
(58,501,o),
(58,494,cs),
(58,489,o),
(59,484,o),
(62,478,c),
(63,472,o),
(66,465,o),
(68,457,cs),
(71,448,o),
(74,439,o),
(77,431,c),
(79,423,o),
(85,407,o),
(93,383,cs),
(102,359,o),
(109,338,o),
(115,320,cs),
(122,302,o),
(125,291,o),
(127,285,c),
(129,280,o),
(131,274,o),
(133,270,c),
(105,229,o),
(75,182,o),
(41,128,cs),
(7,74,o),
(-12,42,o),
(-19,33,cs),
(-25,23,o),
(-28,15,o),
(-28,9,cs),
(-28,-1,o),
(-21,-7,o),
(-9,-7,cs),
(3,-7,o),
(13,-2,o),
(19,8,cs),
(156,218,l),
(166,191,o),
(177,166,o),
(187,142,cs),
(197,118,o),
(206,97,o),
(211,80,cs),
(217,63,o),
(223,49,o),
(229,40,c),
(234,29,o),
(238,19,o),
(239,8,c),
(242,-2,o),
(247,-8,o),
(255,-8,cs)
);
}
);
width = 342;
}
);
note = x;
unicode = 120;
},
{
glyphname = y;
kernLeft = y;
kernRight = y;
lastChange = "2024-10-31 14:38:07 +0000";
layers = (
{
anchors = (
{
name = bottom;
pos = (350,0);
},
{
name = top;
pos = (254,505);
}
);
layerId = "79E705E9-1ED7-4818-9510-7FD15DA5A41F";
shapes = (
{
closed = 1;
nodes = (
(200,-417,o),
(235,-238,o),
(273,-30,c),
(306,-5,o),
(340,23,o),
(377,56,c),
(382,63,o),
(385,69,o),
(385,76,cs),
(385,87,o),
(378,93,o),
(366,93,cs),
(354,93,o),
(339,77,o),
(319,57,cs),
(309,47,o),
(297,36,o),
(284,25,c),
(294,72,o),
(314,161,o),
(344,289,cs),
(373,417,o),
(387,485,o),
(387,493,cs),
(387,501,o),
(382,505,o),
(371,505,cs),
(360,505,o),
(352,501,o),
(347,493,cs),
(341,485,o),
(335,466,o),
(328,437,cs),
(313,378,o),
(270,189,o),
(213,104,cs),
(185,62,o),
(158,40,o),
(132,40,cs),
(120,40,o),
(110,44,o),
(102,53,cs),
(93,62,o),
(89,83,o),
(89,118,cs),
(89,151,o),
(101,219,o),
(126,319,cs),
(151,419,o),
(163,475,o),
(163,487,cs),
(163,500,o),
(157,507,o),
(144,507,cs),
(131,507,o),
(120,500,o),
(111,488,cs),
(108,484,o),
(107,478,o),
(109,468,c),
(109,463,o),
(101,431,o),
(85,371,cs),
(53,250,o),
(37,162,o),
(37,106,cs),
(37,34,o),
(73,-8,o),
(122,-8,cs),
(147,-8,o),
(173,7,o),
(200,38,cs),
(241,83,o),
(275,147,o),
(303,229,c),
(300,216,o),
(287,175,o),
(266,107,cs),
(245,39,o),
(232,-3,o),
(229,-17,c),
(88,-123,o),
(192,-43,o),
(82,-123,cs),
(50,-146,o),
(22,-169,o),
(2,-198,cs),
(-18,-227,o),
(-31,-260,o),
(-31,-307,cs),
(-31,-354,o),
(8,-417,o),
(76,-417,cs)
);
},
{
closed = 1;
nodes = (
(64,-369,o),
(54,-366,o),
(47,-360,cs),
(29,-345,o),
(20,-324,o),
(20,-297,cs),
(20,-210,o),
(93,-163,o),
(141,-130,cs),
(165,-114,o),
(190,-96,o),
(217,-75,c),
(204,-140,l),
(201,-150,o),
(186,-210,o),
(181,-228,cs),
(161,-294,o),
(128,-369,o),
(77,-369,cs)
);
}
);
width = 420;
}
);
note = y;
unicode = 121;
},
{
glyphname = z;
kernLeft = z;
kernRight = z;
lastChange = "2024-10-31 14:38:07 +0000";
layers = (
{
anchors = (
{
name = bottom;
pos = (200,0);
},
{
name = top;
pos = (242,505);
}
);
layerId = "79E705E9-1ED7-4818-9510-7FD15DA5A41F";
shapes = (
{
closed = 1;
nodes = (
(300,-11,o),
(348,29,o),
(348,95,cs),
(348,119,o),
(334,163,o),
(309,163,cs),
(294,163,o),
(282,146,o),
(282,135,cs),
(282,117,o),
(300,104,o),
(300,88,cs),
(300,51,o),
(268,33,o),
(203,33,cs),
(157,33,o),
(146,60,o),
(78,60,c),
(178,197,o),
(241,275,o),
(338,407,cs),
(360,437,o),
(389,468,o),
(389,481,cs),
(389,485,o),
(389,488,o),
(389,490,c),
(388,497,o),
(379,500,o),
(362,500,cs),
(147,501,l),
(105,504,l),
(82,504,o),
(71,496,o),
(71,480,cs),
(71,463,o),
(86,455,o),
(116,455,cs),
(200,460,l),
(320,455,l),
(292,420,o),
(50,101,o),
(-5,29,c),
(-16,10,o),
(-12,-6,o),
(7,-6,cs),
(13,-6,o),
(23,-1,o),
(38,8,cs),
(53,17,o),
(65,21,o),
(75,21,cs),
(94,21,o),
(108,15,o),
(148,0,cs),
(168,-7,o),
(189,-11,o),
(212,-11,cs)
);
}
);
width = 399;
}
);
note = z;
unicode = 122;
},
{
glyphname = w.fina;
kernLeft = w;
kernRight = w;
lastChange = "2024-10-31 14:38:07 +0000";
layers = (
{
layerId = "79E705E9-1ED7-4818-9510-7FD15DA5A41F";
shapes = (
{
closed = 1;
nodes = (
(375,-7,o),
(394,13,o),
(415,53,cs),
(420,63,o),
(425,72,o),
(430,80,cs),
(514,205,o),
(574,338,o),
(574,475,cs),
(574,515,o),
(566,550,o),
(551,579,cs),
(520,638,o),
(459,669,o),
(443,669,cs),
(428,669,o),
(415,656,o),
(415,643,cs),
(415,626,o),
(450,610,o),
(466,601,cs),
(473,597,o),
(479,592,o),
(484,587,cs),
(515,554,o),
(530,514,o),
(530,467,cs),
(530,372,o),
(480,245,o),
(381,85,c),
(360,194,o),
(342,327,o),
(327,482,cs),
(325,497,o),
(320,505,o),
(305,505,cs),
(292,505,o),
(285,499,o),
(282,486,cs),
(272,435,o),
(241,339,o),
(187,198,cs),
(173,164,o),
(161,131,o),
(150,100,c),
(147,105,o),
(141,146,o),
(130,222,cs),
(120,297,o),
(112,354,o),
(106,394,cs),
(100,432,o),
(96,458,o),
(94,469,cs),
(89,492,o),
(78,501,o),
(66,501,cs),
(54,501,o),
(41,485,o),
(41,476,cs),
(41,471,o),
(43,458,o),
(48,438,cs),
(52,418,o),
(61,358,o),
(74,258,cs),
(87,158,o),
(99,84,o),
(110,38,c),
(110,11,o),
(117,-3,o),
(131,-3,cs),
(140,-3,o),
(147,1,o),
(154,10,c),
(175,54,o),
(200,117,o),
(230,197,cs),
(260,278,o),
(279,329,o),
(289,351,c),
(296,289,o),
(311,197,o),
(334,75,cs),
(336,62,o),
(337,53,o),
(336,48,c),
(335,43,o),
(335,38,o),
(335,33,cs),
(335,6,o),
(343,-7,o),
(358,-7,cs)
);
}
);
width = 600;
}
);
},
{
glyphname = k.ss02;
kernLeft = k;
kernRight = k;
lastChange = "2024-10-31 16:49:42 +0000";
layers = (
{
layerId = "79E705E9-1ED7-4818-9510-7FD15DA5A41F";
shapes = (
{
closed = 1;
nodes = (
(535,-201,o),
(584,-191,o),
(626,-171,cs),
(649,-161,o),
(660,-150,o),
(660,-139,cs),
(660,-127,o),
(650,-117,o),
(644,-117,cs),
(640,-117,o),
(637,-118,o),
(634,-119,c),
(591,-142,o),
(543,-154,o),
(492,-154,cs),
(440,-154,o),
(392,-134,o),
(346,-96,cs),
(280,-41,o),
(214,63,o),
(150,215,c),
(214,254,o),
(257,285,o),
(279,307,cs),
(316,342,o),
(334,380,o),
(334,421,cs),
(334,466,o),
(317,510,o),
(264,510,cs),
(237,510,o),
(210,496,o),
(183,467,c),
(186,480,o),
(190,499,o),
(195,521,cs),
(200,543,o),
(205,568,o),
(211,595,cs),
(216,622,o),
(229,682,o),
(250,775,cs),
(270,868,o),
(279,920,o),
(279,932,cs),
(279,953,o),
(268,964,o),
(246,964,cs),
(238,964,o),
(229,936,o),
(220,880,cs),
(180,646,o),
(138,478,o),
(78,224,cs),
(47,98,o),
(32,25,o),
(32,6,cs),
(32,2,ls),
(32,0,o),
(34,-3,o),
(39,-7,cs),
(43,-10,o),
(50,-12,o),
(60,-12,cs),
(72,-12,o),
(80,-4,o),
(83,13,cs),
(85,23,o),
(88,36,o),
(92,51,cs),
(105,114,ls),
(111,140,o),
(115,162,o),
(117,180,c),
(138,122,o),
(166,64,o),
(201,7,cs),
(270,-108,o),
(372,-201,o),
(481,-201,cs)
);
},
{
closed = 1;
nodes = (
(138,281,ls),
(142,302,o),
(146,317,o),
(147,327,cs),
(164,419,o),
(202,464,o),
(253,464,cs),
(273,464,o),
(283,449,o),
(283,420,cs),
(283,391,o),
(273,364,o),
(253,341,cs),
(212,294,o),
(167,268,o),
(150,257,cs),
(141,252,o),
(134,249,o),
(131,246,c)
);
}
);
width = 366;
}
);
note = k.alt;
},
{
glyphname = f_f;
kernLeft = f;
kernRight = f;
lastChange = "2024-10-31 16:45:40 +0000";
layers = (
{
anchors = (
{
name = caret_1;
pos = (342,0);
}
);
background = {
shapes = (
{
closed = 1;
nodes = (
(-144,-411,o),
(-86,-394,o),
(-43,-358,cs),
(27,-301,o),
(73,-201,o),
(96,-59,cs),
(115,56,o),
(150,312,o),
(176,454,c),
(192,454,o),
(476,456,o),
(485,457,cs),
(517,461,o),
(533,465,o),
(533,481,cs),
(533,494,o),
(524,500,o),
(505,500,c),
(186,500,l),
(211,670,o),
(280,800,o),
(377,800,cs),
(405,800,o),
(430,800,o),
(457,795,c),
(470,804,o),
(477,813,o),
(477,824,cs),
(477,844,o),
(449,854,o),
(394,854,cs),
(237,854,o),
(190,716,o),
(137,500,c),
(36,500,o),
(14,500,o),
(14,472,cs),
(14,461,o),
(21,455,o),
(34,454,c),
(127,456,l),
(106,319,o),
(58,-50,o),
(19,-164,cs),
(-19,-274,o),
(-85,-363,o),
(-211,-363,cs),
(-273,-363,o),
(-297,-356,o),
(-371,-303,c),
(-394,-302,o),
(-406,-312,o),
(-406,-324,cs),
(-406,-362,o),
(-289,-411,o),
(-215,-411,cs)
);
}
);
};
layerId = "79E705E9-1ED7-4818-9510-7FD15DA5A41F";
shapes = (
{
closed = 1;
nodes = (
(-144,-411,o),
(-86,-394,o),
(-43,-358,cs),
(27,-301,o),
(73,-201,o),
(96,-59,cs),
(115,56,o),
(150,312,o),
(176,454,c),
(192,454,o),
(476,456,o),
(485,457,cs),
(517,461,o),
(533,465,o),
(533,481,cs),
(533,494,o),
(524,500,o),
(505,500,c),
(186,500,l),
(211,670,o),
(280,800,o),
(377,800,cs),
(405,800,o),
(430,800,o),
(457,795,c),
(470,804,o),
(477,813,o),
(477,824,cs),
(477,844,o),
(449,854,o),
(394,854,cs),
(237,854,o),
(190,716,o),
(137,500,c),
(36,500,o),
(14,500,o),
(14,472,cs),
(14,461,o),
(21,455,o),
(34,454,c),
(127,456,l),
(106,319,o),
(58,-50,o),
(19,-164,cs),
(-19,-274,o),
(-85,-363,o),
(-211,-363,cs),
(-273,-363,o),
(-297,-356,o),
(-371,-303,c),
(-394,-302,o),
(-406,-312,o),
(-406,-324,cs),
(-406,-362,o),
(-289,-411,o),
(-215,-411,cs)
);
},
{
pos = (342,0);
ref = f;
}
);
width = 684;
}
);
metricLeft = f;
metricRight = f;
},
{
glyphname = f_f_i;
kernLeft = f;
kernRight = i;
lastChange = "2024-10-31 16:45:40 +0000";
layers = (
{
anchors = (
{
name = caret_1;
pos = (289.667,0);
},
{
name = caret_2;
pos = (579.333,0);
}
);
background = {
shapes = (
{
pos = (-7,0);
ref = f_f;
}
);
};
layerId = "79E705E9-1ED7-4818-9510-7FD15DA5A41F";
shapes = (
{
closed = 1;
nodes = (
(-144,-411,o),
(-86,-394,o),
(-43,-358,cs),
(26,-300,o),
(73,-201,o),
(96,-59,cs),
(115,56,o),
(150,312,o),
(176,454,c),
(192,454,o),
(476,456,o),
(485,457,cs),
(517,461,o),
(533,465,o),
(533,481,cs),
(533,494,o),
(524,500,o),
(505,500,c),
(186,500,l),
(211,670,o),
(280,800,o),
(377,800,cs),
(405,800,o),
(430,800,o),
(457,795,c),
(470,804,o),
(477,813,o),
(477,824,cs),
(477,844,o),
(449,854,o),
(394,854,cs),
(237,854,o),
(190,716,o),
(137,500,c),
(36,500,o),
(14,500,o),
(14,472,cs),
(14,461,o),
(21,455,o),
(34,454,c),
(127,456,l),
(106,319,o),
(58,-50,o),
(19,-164,cs),
(-19,-274,o),
(-85,-363,o),
(-211,-363,cs),
(-273,-363,o),
(-297,-356,o),
(-371,-303,c),
(-394,-302,o),
(-406,-312,o),
(-406,-324,cs),
(-406,-362,o),
(-289,-411,o),
(-215,-411,cs)
);
},
{
pos = (343,0);
ref = fi;
}
);
width = 869;
}
);
metricLeft = f;
metricRight = i;
},
{
glyphname = f_f_l;
kernLeft = f;
kernRight = l;
lastChange = "2024-10-31 16:45:40 +0000";
layers = (
{
anchors = (
{
name = caret_1;
pos = (317.667,0);
},
{
name = caret_2;
pos = (635.333,0);
}
);
layerId = "79E705E9-1ED7-4818-9510-7FD15DA5A41F";
shapes = (
{
closed = 1;
nodes = (
(-144,-411,o),
(-86,-394,o),
(-43,-358,cs),
(26,-300,o),
(73,-201,o),
(96,-59,cs),
(115,56,o),
(150,312,o),
(176,454,c),
(192,454,o),
(476,456,o),
(485,457,cs),
(517,461,o),
(533,465,o),
(533,481,cs),
(533,494,o),
(524,500,o),
(505,500,c),
(186,500,l),
(211,670,o),
(280,800,o),
(377,800,cs),
(405,800,o),
(430,800,o),
(457,795,c),
(470,804,o),
(477,813,o),
(477,824,cs),
(477,844,o),
(449,854,o),
(394,854,cs),
(237,854,o),
(190,716,o),
(137,500,c),
(36,500,o),
(14,500,o),
(14,472,cs),
(14,461,o),
(21,455,o),
(34,454,c),
(127,456,l),
(106,319,o),
(58,-50,o),
(19,-164,cs),
(-19,-274,o),
(-85,-363,o),
(-211,-363,cs),
(-273,-363,o),
(-297,-356,o),
(-371,-303,c),
(-394,-302,o),
(-406,-312,o),
(-406,-324,cs),
(-406,-362,o),
(-289,-411,o),
(-215,-411,cs)
);
},
{
pos = (350,0);
ref = fl;
}
);
width = 953;
}
);
metricLeft = f;
metricRight = l;
},
{
glyphname = fi;
kernLeft = f;
kernRight = i;
lastChange = "2024-10-31 16:45:40 +0000";
layers = (
{
anchors = (
{
name = caret_1;
pos = (263,0);
}
);
background = {
shapes = (
{
closed = 1;
nodes = (
(-144,-411,o),
(-86,-394,o),
(-43,-358,cs),
(27,-301,o),
(73,-201,o),
(96,-59,cs),
(115,56,o),
(150,312,o),
(176,454,c),
(192,454,o),
(433,464,o),
(442,465,cs),
(454,466,o),
(470,475,o),
(470,491,cs),
(470,493,o),
(471,519,o),
(452,519,c),
(186,500,l),
(211,670,o),
(280,800,o),
(377,800,cs),
(405,800,o),
(430,800,o),
(457,795,c),
(470,804,o),
(477,813,o),
(477,824,cs),
(477,844,o),
(449,854,o),
(394,854,cs),
(237,854,o),
(190,716,o),
(137,500,c),
(36,500,o),
(14,500,o),
(14,472,cs),
(14,461,o),
(21,455,o),
(34,454,c),
(127,456,l),
(106,319,o),
(58,-50,o),
(19,-164,cs),
(-19,-274,o),
(-85,-363,o),
(-211,-363,cs),
(-273,-363,o),
(-297,-356,o),
(-371,-303,c),
(-394,-302,o),
(-406,-312,o),
(-406,-324,cs),
(-406,-362,o),
(-289,-411,o),
(-215,-411,cs)
);
}
);
};
layerId = "79E705E9-1ED7-4818-9510-7FD15DA5A41F";
shapes = (
{
closed = 1;
nodes = (
(-144,-411,o),
(-86,-394,o),
(-43,-358,cs),
(27,-301,o),
(73,-201,o),
(96,-59,cs),
(115,56,o),
(150,312,o),
(176,454,c),
(192,454,o),
(433,464,o),
(442,465,cs),
(454,466,o),
(470,475,o),
(470,491,cs),
(470,493,o),
(471,519,o),
(452,519,c),
(186,500,l),
(211,670,o),
(290,802,o),
(391,802,cs),
(425,802,o),
(441,798,o),
(467,779,c),
(518,781,l),
(517,822,o),
(477,854,o),
(394,854,cs),
(237,854,o),
(190,716,o),
(137,500,c),
(36,500,o),
(14,500,o),
(14,472,cs),
(14,461,o),
(21,455,o),
(34,454,c),
(127,456,l),
(106,319,o),
(58,-50,o),
(19,-164,cs),
(-19,-274,o),
(-85,-363,o),
(-211,-363,cs),
(-273,-363,o),
(-297,-356,o),
(-371,-303,c),
(-394,-302,o),
(-406,-312,o),
(-406,-324,cs),
(-406,-362,o),
(-289,-411,o),
(-215,-411,cs)
);
},
{
pos = (312,0);
ref = idotless;
},
{
pos = (371,1414);
ref = dotaccentcomb;
scale = (1,-1);
}
);
width = 526;
}
);
metricLeft = f;
metricRight = i;
unicode = 64257;
},
{
glyphname = fl;
kernLeft = f;
kernRight = l;
lastChange = "2024-10-31 16:45:40 +0000";
layers = (
{
anchors = (
{
name = caret_1;
pos = (296.5,0);
}
);
layerId = "79E705E9-1ED7-4818-9510-7FD15DA5A41F";
shapes = (
{
closed = 1;
nodes = (
(-144,-411,o),
(-86,-394,o),
(-43,-358,cs),
(26,-300,o),
(73,-201,o),
(96,-59,cs),
(115,56,o),
(150,312,o),
(176,454,c),
(192,454,o),
(327,456,o),
(336,457,cs),
(360,460,o),
(376,465,o),
(376,481,cs),
(376,494,o),
(367,500,o),
(348,500,c),
(186,500,l),
(231,719,o),
(356,879,o),
(570,839,c),
(583,848,o),
(590,849,o),
(592,859,cs),
(600,899,o),
(562,898,o),
(507,898,cs),
(281,898,o),
(213,743,o),
(137,500,c),
(36,500,o),
(14,500,o),
(14,472,cs),
(14,461,o),
(21,455,o),
(34,454,c),
(127,456,l),
(106,319,o),
(58,-50,o),
(19,-164,cs),
(-19,-274,o),
(-85,-363,o),
(-201,-363,cs),
(-273,-363,o),
(-297,-356,o),
(-371,-303,c),
(-394,-302,o),
(-406,-312,o),
(-406,-324,cs),
(-406,-362,o),
(-289,-411,o),
(-215,-411,cs)
);
},
{
closed = 1;
nodes = (
(509,-8,o),
(555,9,o),
(555,39,cs),
(555,55,o),
(544,61,o),
(534,61,cs),
(507,61,o),
(504,34,o),
(462,34,cs),
(445,34,o),
(432,46,o),
(432,74,cs),
(432,126,o),
(531,591,o),
(566,752,c),
(592,859,l),
(592,874,o),
(585,882,o),
(571,882,cs),
(559,882,o),
(552,876,o),
(549,866,c),
(522,767,o),
(458,473,o),
(442,393,cs),
(420,284,o),
(387,128,o),
(387,61,cs),
(387,22,o),
(410,-8,o),
(460,-8,cs)
);
}
);
width = 593;
}
);
metricLeft = f;
metricRight = sl;
unicode = 64258;
},
{
glyphname = ordfeminine;
lastChange = "2024-10-31 14:38:07 +0000";
layers = (
{
layerId = "79E705E9-1ED7-4818-9510-7FD15DA5A41F";
shapes = (
{
closed = 1;
nodes = (
(292,600,o),
(296,601,o),
(300,603,c),
(313,608,o),
(319,616,o),
(319,625,cs),
(319,645,o),
(299,646,o),
(288,649,c),
(283,651,o),
(277,654,o),
(273,658,c),
(264,665,o),
(257,676,o),
(257,707,cs),
(257,722,o),
(261,749,o),
(269,790,cs),
(276,830,o),
(280,863,o),
(280,890,cs),
(280,942,o),
(253,975,o),
(191,975,cs),
(158,975,o),
(104,951,o),
(83,926,c),
(78,920,o),
(75,915,o),
(74,908,cs),
(72,902,o),
(70,896,o),
(69,890,c),
(70,877,o),
(76,870,o),
(86,870,cs),
(99,870,o),
(108,876,o),
(113,890,cs),
(115,896,o),
(119,901,o),
(123,906,c),
(138,921,o),
(158,929,o),
(184,929,cs),
(217,929,o),
(234,912,o),
(234,878,cs),
(234,862,o),
(233,848,o),
(231,835,c),
(230,835,ls),
(155,835,o),
(77,771,o),
(77,706,cs),
(77,641,o),
(112,609,o),
(162,609,cs),
(186,609,o),
(208,616,o),
(227,629,c),
(241,610,o),
(261,600,o),
(288,600,cs)
);
},
{
closed = 1;
nodes = (
(137,657,o),
(122,674,o),
(122,708,cs),
(122,741,o),
(160,788,o),
(215,788,cs),
(222,788,l),
(214,747,o),
(210,719,o),
(210,706,cs),
(210,681,ls),
(210,677,o),
(210,673,o),
(211,670,c),
(203,662,o),
(188,657,o),
(166,657,cs)
);
}
);
width = 281;
}
);
note = ordfeminine;
unicode = 170;
},
{
glyphname = ordmasculine;
lastChange = "2024-10-31 14:38:07 +0000";
layers = (
{
layerId = "79E705E9-1ED7-4818-9510-7FD15DA5A41F";
shapes = (
{
closed = 1;
nodes = (
(157,530,o),
(192,547,o),
(220,582,cs),
(265,639,o),
(288,731,o),
(288,857,c),
(298,864,o),
(303,871,o),
(303,877,cs),
(303,884,o),
(301,890,o),
(297,894,cs),
(285,904,o),
(269,909,o),
(249,909,c),
(218,907,o),
(187,889,o),
(155,856,cs),
(93,790,o),
(48,689,o),
(48,609,cs),
(48,569,o),
(79,530,o),
(114,530,cs)
);
},
{
closed = 1;
nodes = (
(121,576,o),
(113,578,o),
(109,581,c),
(99,589,o),
(94,603,o),
(94,622,cs),
(94,724,o),
(163,832,o),
(240,863,c),
(242,863,ls),
(243,863,o),
(244,862,o),
(245,862,c),
(250,840,l),
(250,756,o),
(231,667,o),
(204,628,cs),
(177,590,o),
(152,576,o),
(131,576,cs)
);
}
);
width = 256;
}
);
note = ordmasculine;
unicode = 186;
},
{
glyphname = "A-cy";
kernLeft = "A-cy";
kernRight = "A-cy";
lastChange = "2024-10-31 14:38:07 +0000";
layers = (
{
anchors = (
{
name = top;
pos = (600,962);
}
);
layerId = "79E705E9-1ED7-4818-9510-7FD15DA5A41F";
shapes = (
{
closed = 1;
nodes = (
(588,-3,o),
(601,10,o),
(601,24,cs),
(601,32,o),
(599,46,o),
(594,69,cs),
(588,92,o),
(584,109,o),
(582,121,cs),
(577,145,o),
(575,166,o),
(575,194,c),
(574,208,o),
(574,220,o),
(573,228,c),
(571,236,o),
(571,241,o),
(571,243,cs),
(571,248,l),
(576,248,o),
(582,247,o),
(587,246,c),
(592,245,o),
(598,245,o),
(605,244,cs),
(619,243,o),
(634,257,o),
(634,269,cs),
(634,274,o),
(632,279,o),
(629,284,cs),
(625,288,o),
(604,292,o),
(564,297,c),
(556,373,o),
(552,437,o),
(552,490,cs),
(552,543,o),
(557,609,o),
(566,687,cs),
(576,764,o),
(582,818,o),
(585,847,cs),
(588,875,o),
(594,903,o),
(601,929,c),
(608,937,o),
(610,952,o),
(600,962,c),
(599,972,o),
(594,977,o),
(586,977,cs),
(575,977,o),
(562,967,o),
(556,953,c),
(523,803,o),
(346,480,o),
(233,310,c),
(172,313,o),
(129,315,o),
(103,319,c),
(89,317,o),
(75,303,o),
(75,289,cs),
(75,282,o),
(80,276,o),
(89,273,c),
(114,271,o),
(152,268,o),
(202,265,c),
(197,257,o),
(191,249,o),
(185,242,cs),
(179,234,o),
(171,224,o),
(162,211,cs),
(100,128,o),
(35,74,o),
(-35,47,c),
(-36,46,l),
(-40,51,o),
(-44,54,o),
(-51,54,cs),
(-63,54,o),
(-78,40,o),
(-78,23,cs),
(-78,6,o),
(-69,-2,o),
(-52,-2,cs),
(-38,-2,o),
(-18,4,o),
(8,17,c),
(84,52,o),
(165,134,o),
(251,264,c),
(296,263,o),
(341,262,o),
(387,262,cs),
(432,261,o),
(477,258,o),
(521,254,c),
(524,240,l),
(525,231,o),
(526,219,o),
(528,204,cs),
(529,188,o),
(530,172,o),
(532,154,cs),
(535,118,o),
(539,78,o),
(545,48,cs),
(552,19,o),
(562,-3,o),
(575,-3,cs)
);
},
{
closed = 1;
nodes = (
(478,305,o),
(439,307,o),
(400,308,cs),
(360,308,o),
(321,309,o),
(282,309,c),
(340,399,o),
(450,587,o),
(529,751,c),
(515,645,o),
(508,554,o),
(508,479,cs),
(508,405,o),
(511,345,o),
(516,302,c)
);
}
);
width = 702;
}
);
note = uni0410;
unicode = 1040;
},
{
glyphname = "Be-cy";
kernLeft = H;
kernRight = "Be-cy";
lastChange = "2024-10-31 14:38:07 +0000";
layers = (
{
layerId = "79E705E9-1ED7-4818-9510-7FD15DA5A41F";
shapes = (
{
closed = 1;
nodes = (
(175,-30,o),
(190,-23,o),
(192,-14,c),
(193,-10,o),
(193,-7,o),
(194,-7,c),
(211,-9,o),
(229,-10,o),
(249,-10,cs),
(268,-10,o),
(292,-7,o),
(321,-3,cs),
(518,28,o),
(610,143,o),
(610,278,cs),
(610,413,o),
(493,515,o),
(310,527,c),
(323,592,o),
(336,657,o),
(349,722,cs),
(362,788,o),
(375,853,o),
(389,917,c),
(437,921,o),
(484,925,o),
(529,929,cs),
(574,933,o),
(625,935,o),
(680,935,cs),
(735,935,o),
(792,930,o),
(849,920,c),
(866,920,o),
(880,934,o),
(880,948,cs),
(880,971,o),
(801,982,o),
(645,982,cs),
(618,982,o),
(582,979,o),
(536,975,cs),
(491,970,o),
(445,965,o),
(399,961,c),
(399,962,ls),
(399,978,o),
(394,986,o),
(383,986,cs),
(370,986,o),
(358,976,o),
(349,957,c),
(322,955,o),
(295,954,o),
(268,954,cs),
(256,954,l),
(254,959,o),
(249,963,o),
(240,966,c),
(234,965,o),
(229,964,o),
(223,963,c),
(204,959,o),
(194,948,o),
(194,930,c),
(195,913,o),
(218,905,o),
(263,905,cs),
(286,905,o),
(310,907,o),
(334,910,c),
(333,905,o),
(332,900,o),
(332,896,cs),
(332,891,o),
(334,886,o),
(336,882,c),
(311,761,o),
(287,643,o),
(264,528,c),
(222,524,o),
(201,511,o),
(201,488,cs),
(201,475,o),
(208,468,o),
(221,468,cs),
(227,468,o),
(234,472,o),
(240,480,c),
(254,480,l),
(223,328,o),
(192,183,o),
(161,45,c),
(102,56,o),
(56,76,o),
(22,105,cs),
(9,117,o),
(-2,135,o),
(-10,161,cs),
(-17,187,o),
(-26,199,o),
(-36,199,cs),
(-52,199,o),
(-60,188,o),
(-60,165,cs),
(-60,141,o),
(-54,120,o),
(-40,102,cs),
(-6,53,o),
(58,19,o),
(150,0,c),
(150,-3,l),
(149,-7,o),
(148,-11,o),
(148,-14,cs),
(148,-24,o),
(154,-30,o),
(165,-30,cs)
);
},
{
closed = 1;
nodes = (
(233,36,o),
(217,37,o),
(205,38,c),
(226,121,o),
(257,268,o),
(300,478,c),
(345,475,o),
(385,467,o),
(418,456,cs),
(515,421,o),
(564,359,o),
(564,270,cs),
(564,218,o),
(547,174,o),
(512,139,cs),
(443,68,o),
(337,36,o),
(253,36,cs)
);
}
);
width = 782;
}
);
metricLeft = B;
note = uni0411;
unicode = 1041;
},
{
glyphname = "Ve-cy";
kernLeft = H;
kernRight = B;
lastChange = "2024-10-31 14:38:07 +0000";
layers = (
{
layerId = "79E705E9-1ED7-4818-9510-7FD15DA5A41F";
shapes = (
{
closed = 1;
nodes = (
(33,-60,o),
(46,-48,o),
(50,-31,c),
(50,-24,o),
(51,-16,o),
(53,-7,c),
(74,-8,l),
(323,-8,o),
(479,88,o),
(479,278,cs),
(479,377,o),
(379,489,o),
(266,496,c),
(368,510,o),
(465,619,o),
(465,730,cs),
(465,865,o),
(383,952,o),
(260,956,c),
(255,961,o),
(250,964,o),
(245,964,cs),
(238,964,o),
(233,961,o),
(229,954,c),
(179,944,o),
(133,919,o),
(133,888,cs),
(133,873,o),
(144,868,o),
(150,868,cs),
(161,868,o),
(170,874,o),
(176,886,c),
(186,895,o),
(197,902,o),
(209,907,c),
(191,850,o),
(176,785,o),
(165,712,cs),
(154,640,o),
(141,572,o),
(126,510,c),
(90,510,o),
(72,502,o),
(72,486,cs),
(72,475,o),
(77,469,o),
(87,469,c),
(117,468,l),
(105,415,o),
(92,362,o),
(80,310,cs),
(67,258,o),
(56,206,o),
(46,155,c),
(20,46,l),
(-4,46,o),
(-21,48,o),
(-32,54,c),
(-42,59,o),
(-50,62,o),
(-55,63,c),
(-58,64,o),
(-62,65,o),
(-65,65,cs),
(-72,65,o),
(-82,54,o),
(-82,46,cs),
(-82,42,o),
(-82,40,o),
(-81,38,c),
(-80,25,o),
(-59,14,o),
(-19,6,cs),
(-9,4,o),
(0,2,o),
(10,0,c),
(6,-16,o),
(4,-30,o),
(3,-40,c),
(4,-53,o),
(11,-60,o),
(22,-60,cs)
);
},
{
closed = 1;
nodes = (
(84,37,o),
(71,38,o),
(62,39,c),
(64,50,o),
(67,62,o),
(70,73,cs),
(78,106,ls),
(81,117,o),
(83,126,o),
(85,135,cs),
(88,144,o),
(93,167,o),
(101,204,cs),
(109,242,o),
(128,329,o),
(160,466,c),
(181,464,o),
(199,464,o),
(213,464,cs),
(324,464,o),
(433,372,o),
(433,272,cs),
(433,129,o),
(314,37,o),
(101,37,cs)
);
},
{
closed = 1;
nodes = (
(177,542,o),
(188,604,o),
(203,695,cs),
(218,787,o),
(234,859,o),
(250,913,c),
(348,911,o),
(416,849,o),
(416,729,cs),
(416,610,o),
(307,521,o),
(170,511,c)
);
}
);
width = 514;
}
);
metricLeft = B;
metricRight = B;
note = uni0412;
unicode = 1042;
},
{
glyphname = "Ge-cy";
kernLeft = H;
kernRight = "Ge-cy";
lastChange = "2024-10-31 14:38:07 +0000";
layers = (
{
anchors = (
{
name = bottom;
pos = (66,61);
},
{
name = bottomright;
pos = (27,10);
},
{
name = top;
pos = (404,960);
}
);
layerId = "79E705E9-1ED7-4818-9510-7FD15DA5A41F";
shapes = (
{
closed = 1;
nodes = (
(48,-19,o),
(63,-13,o),
(66,0,cs),
(105,154,o),
(126,272,o),
(181,568,cs),
(208,716,o),
(230,832,o),
(248,917,c),
(346,924,o),
(275,916,o),
(378,916,c),
(510,924,l),
(530,924,o),
(546,922,o),
(560,920,c),
(577,920,o),
(591,934,o),
(591,948,cs),
(591,960,o),
(563,967,o),
(509,967,cs),
(383,963,ls),
(339,963,o),
(313,962,o),
(305,961,c),
(257,957,l),
(257,959,o),
(257,960,o),
(258,962,c),
(258,978,o),
(252,986,o),
(242,986,cs),
(228,986,o),
(217,976,o),
(208,957,c),
(195,957,l),
(128,962,l),
(114,959,o),
(107,949,o),
(107,930,c),
(108,913,o),
(128,905,o),
(166,905,c),
(203,906,l),
(195,881,l),
(178,796,o),
(152,661,o),
(119,476,cs),
(85,291,o),
(60,166,o),
(44,100,cs),
(29,35,o),
(21,0,o),
(21,-3,cs),
(21,-14,o),
(27,-19,o),
(38,-19,cs)
);
}
);
width = 542;
}
);
note = uni0413;
unicode = 1043;
},
{
glyphname = "Geupturn-cy";
kernLeft = H;
kernRight = "Ge-cy";
lastChange = "2024-10-31 14:38:12 +0000";
layers = (
{
layerId = "79E705E9-1ED7-4818-9510-7FD15DA5A41F";
shapes = (
{
closed = 1;
nodes = (
(48,-19,o),
(63,-13,o),
(66,0,cs),
(105,154,o),
(126,272,o),
(181,568,cs),
(208,716,o),
(230,832,o),
(248,917,c),
(276,919,o),
(293,920,o),
(300,920,cs),
(510,924,ls),
(530,924,o),
(546,922,o),
(560,920,c),
(577,922,o),
(600,942,o),
(588,954,c),
(596,976,o),
(604,999,o),
(610,1021,cs),
(617,1042,o),
(624,1060,o),
(631,1072,cs),
(638,1084,o),
(641,1093,o),
(641,1098,cs),
(641,1109,o),
(635,1115,o),
(623,1115,cs),
(614,1115,o),
(605,1110,o),
(598,1100,c),
(587,1078,o),
(570,1033,o),
(546,966,c),
(541,966,o),
(535,967,o),
(528,967,cs),
(437,967,ls),
(382,967,o),
(322,963,o),
(257,957,c),
(257,959,o),
(257,960,o),
(258,962,c),
(258,978,o),
(252,986,o),
(242,986,cs),
(228,986,o),
(217,976,o),
(208,957,c),
(143,965,l),
(137,964,o),
(132,963,o),
(128,962,cs),
(114,959,o),
(107,949,o),
(107,930,c),
(108,913,o),
(128,905,o),
(166,905,cs),
(184,905,ls),
(191,905,o),
(197,905,o),
(200,906,c),
(184,828,o),
(161,708,o),
(131,544,cs),
(101,380,o),
(78,263,o),
(64,194,cs),
(49,125,o),
(39,76,o),
(32,46,cs),
(24,17,o),
(21,0,o),
(21,-3,cs),
(21,-14,o),
(27,-19,o),
(38,-19,cs)
);
}
);
width = 565;
}
);
metricRight = "Ge-cy";
note = uni0490;
unicode = 1168;
},
{
glyphname = "De-cy";
kernLeft = "De-cy";
kernRight = "De-cy";
lastChange = "2024-10-31 14:38:07 +0000";
layers = (
{
layerId = "79E705E9-1ED7-4818-9510-7FD15DA5A41F";
shapes = (
{
closed = 1;
nodes = (
(261,-10,o),
(282,9,o),
(297,32,cs),
(305,44,o),
(313,67,o),
(320,101,cs),
(327,135,o),
(333,163,o),
(338,184,c),
(354,176,o),
(371,165,o),
(388,150,cs),
(405,136,o),
(433,109,o),
(472,69,cs),
(522,17,o),
(567,-9,o),
(608,-9,cs),
(648,-9,o),
(686,-2,o),
(721,12,cs),
(922,94,o),
(995,334,o),
(995,500,cs),
(995,562,o),
(978,629,o),
(944,701,cs),
(876,845,o),
(730,965,o),
(521,971,c),
(524,992,l),
(521,1003,o),
(515,1009,o),
(505,1009,cs),
(496,1009,o),
(481,998,o),
(478,985,c),
(475,971,l),
(361,967,o),
(270,939,o),
(202,888,cs),
(160,856,o),
(113,810,o),
(60,700,c),
(62,687,o),
(67,680,o),
(77,680,cs),
(89,680,o),
(99,687,o),
(105,700,cs),
(119,730,o),
(136,759,o),
(156,786,cs),
(223,875,o),
(327,921,o),
(467,927,c),
(426,726,o),
(402,594,o),
(310,240,c),
(291,245,o),
(274,247,o),
(260,247,cs),
(230,247,o),
(192,239,o),
(161,217,cs),
(130,195,o),
(107,161,o),
(107,103,cs),
(107,45,o),
(143,-10,o),
(217,-10,cs)
);
},
{
closed = 1;
nodes = (
(201,40,o),
(192,42,o),
(184,47,cs),
(162,58,o),
(151,79,o),
(151,109,cs),
(151,170,o),
(192,201,o),
(274,201,cs),
(279,201,o),
(287,200,o),
(299,198,c),
(270,86,ls),
(260,51,o),
(230,40,o),
(211,40,cs)
);
},
{
closed = 1;
nodes = (
(567,37,o),
(522,84,o),
(494,112,cs),
(480,126,o),
(464,140,o),
(449,154,cs),
(413,188,o),
(379,213,o),
(348,227,c),
(370,321,o),
(399,442,o),
(437,589,cs),
(474,737,o),
(500,849,o),
(513,927,c),
(596,923,o),
(670,903,o),
(736,864,cs),
(867,787,o),
(945,649,o),
(945,503,cs),
(945,431,o),
(931,358,o),
(903,286,cs),
(846,142,o),
(740,37,o),
(625,37,cs)
);
}
);
width = 1054;
}
);
note = uni0414;
unicode = 1044;
},
{
glyphname = "Ie-cy";
kernLeft = H;
kernRight = E;
lastChange = "2024-10-31 14:38:07 +0000";
layers = (
{
anchors = (
{
name = top;
pos = (387,960);
}
);
layerId = "79E705E9-1ED7-4818-9510-7FD15DA5A41F";
shapes = (
{
closed = 1;
nodes = (
(324,-11,o),
(362,-4,o),
(396,9,cs),
(491,47,o),
(554,127,o),
(583,249,c),
(583,265,o),
(578,273,o),
(568,273,cs),
(557,273,o),
(548,268,o),
(541,257,c),
(525,125,o),
(414,33,o),
(278,33,cs),
(158,33,o),
(98,105,o),
(98,250,cs),
(98,378,o),
(191,521,o),
(290,550,c),
(327,530,o),
(396,506,o),
(415,506,cs),
(424,506,o),
(432,507,o),
(436,509,cs),
(452,517,o),
(460,528,o),
(460,543,cs),
(460,578,o),
(384,604,o),
(326,604,cs),
(315,604,ls),
(312,604,o),
(309,604,o),
(307,603,c),
(248,646,o),
(219,705,o),
(219,779,cs),
(219,856,o),
(268,923,o),
(362,923,cs),
(456,923,o),
(499,884,o),
(542,787,cs),
(546,778,o),
(551,773,o),
(558,773,cs),
(572,773,o),
(585,787,o),
(588,801,c),
(576,828,o),
(563,852,o),
(549,873,cs),
(505,938,o),
(442,970,o),
(358,970,cs),
(314,970,o),
(274,954,o),
(237,922,cs),
(200,889,o),
(171,835,o),
(171,784,cs),
(171,701,o),
(197,633,o),
(249,580,c),
(130,518,o),
(49,376,o),
(49,239,cs),
(49,101,o),
(125,-11,o),
(281,-11,cs)
);
}
);
width = 637;
}
);
note = uni0415;
unicode = 1045;
},
{
glyphname = "Io-cy";
kernLeft = H;
kernRight = E;
lastChange = "2024-10-31 14:38:07 +0000";
layers = (
{
layerId = "79E705E9-1ED7-4818-9510-7FD15DA5A41F";
shapes = (
{
closed = 1;
nodes = (
(335,-11,o),
(373,-4,o),
(407,9,cs),
(503,47,o),
(565,127,o),
(595,249,c),
(595,265,o),
(590,273,o),
(580,273,cs),
(569,273,o),
(560,268,o),
(552,257,c),
(537,125,o),
(426,33,o),
(289,33,cs),
(152,33,o),
(109,123,o),
(109,250,cs),
(109,378,o),
(202,521,o),
(301,550,c),
(338,530,o),
(407,506,o),
(426,506,cs),
(435,506,o),
(443,507,o),
(447,509,cs),
(464,517,o),
(472,528,o),
(472,543,cs),
(472,578,o),
(396,604,o),
(337,604,cs),
(327,604,ls),
(323,604,o),
(320,604,o),
(318,603,c),
(259,646,o),
(230,705,o),
(230,779,cs),
(230,856,o),
(279,923,o),
(373,923,cs),
(467,923,o),
(511,883,o),
(553,787,c),
(557,778,o),
(562,773,o),
(569,773,cs),
(583,773,o),
(597,787,o),
(599,801,c),
(588,828,o),
(575,852,o),
(560,873,cs),
(517,938,o),
(453,970,o),
(369,970,cs),
(326,970,o),
(286,954,o),
(248,922,cs),
(211,889,o),
(182,835,o),
(182,784,cs),
(182,702,o),
(208,633,o),
(260,580,c),
(143,519,o),
(60,377,o),
(60,239,cs),
(60,101,o),
(136,-11,o),
(292,-11,cs)
);
},
{
closed = 1;
nodes = (
(327,1053,o),
(366,1091,o),
(366,1112,cs),
(366,1122,o),
(361,1133,o),
(350,1146,c),
(350,1145,l),
(343,1152,o),
(335,1156,o),
(328,1156,cs),
(312,1156,o),
(303,1150,o),
(295,1140,cs),
(287,1130,o),
(281,1118,o),
(281,1100,cs),
(281,1082,o),
(291,1053,o),
(309,1053,cs)
);
},
{
closed = 1;
nodes = (
(533,1059,o),
(558,1093,o),
(558,1122,cs),
(558,1143,o),
(548,1153,o),
(527,1153,cs),
(509,1153,o),
(476,1125,o),
(476,1093,cs),
(476,1077,o),
(484,1066,o),
(500,1061,c),
(503,1060,o),
(506,1059,o),
(508,1059,cs)
);
}
);
width = 639;
}
);
note = uni0401;
unicode = 1025;
},
{
glyphname = "Zhe-cy";
kernLeft = "Zhe-cy";
kernRight = "Zhe-cy";
lastChange = "2024-10-31 14:38:07 +0000";
layers = (
{
anchors = (
{
name = bottomright;
pos = (874,13);
},
{
name = top;
pos = (655,962);
}
);
layerId = "79E705E9-1ED7-4818-9510-7FD15DA5A41F";
shapes = (
{
closed = 1;
nodes = (
(67,-9,o),
(137,16,o),
(204,64,cs),
(312,143,o),
(384,252,o),
(472,406,c),
(478,395,o),
(485,386,o),
(493,379,c),
(472,278,o),
(458,209,o),
(450,173,cs),
(443,136,o),
(437,107,o),
(432,85,cs),
(426,64,o),
(423,42,o),
(421,18,c),
(422,4,o),
(428,-3,o),
(438,-3,cs),
(450,-3,o),
(464,5,o),
(468,36,cs),
(469,51,o),
(473,68,o),
(478,88,cs),
(482,108,o),
(489,138,o),
(497,178,cs),
(505,217,o),
(520,282,o),
(540,372,c),
(545,372,l),
(554,375,o),
(565,383,o),
(579,397,c),
(590,335,o),
(607,273,o),
(631,212,cs),
(679,90,o),
(765,-9,o),
(878,-9,cs),
(908,-9,o),
(928,-6,o),
(940,0,cs),
(964,12,o),
(1011,48,o),
(1011,70,cs),
(1011,82,o),
(1005,87,o),
(992,87,cs),
(986,87,o),
(979,84,o),
(973,79,c),
(946,40,o),
(927,30,o),
(879,30,cs),
(855,30,o),
(832,36,o),
(809,49,cs),
(721,100,o),
(634,255,o),
(620,436,c),
(617,443,l),
(666,509,o),
(763,609,o),
(873,725,cs),
(927,783,o),
(980,845,o),
(1032,910,cs),
(1038,917,o),
(1040,923,o),
(1040,930,cs),
(1040,941,o),
(1034,947,o),
(1023,947,cs),
(1016,947,o),
(1009,944,o),
(1003,939,c),
(931,848,o),
(868,780,o),
(742,646,cs),
(679,578,o),
(616,508,o),
(553,434,c),
(601,648,o),
(636,816,o),
(660,938,c),
(660,954,o),
(655,962,o),
(645,962,cs),
(634,962,o),
(621,952,o),
(615,938,c),
(578,777,o),
(541,606,o),
(503,427,c),
(492,455,o),
(476,489,o),
(456,530,cs),
(414,610,o),
(345,742,o),
(273,939,c),
(270,944,o),
(264,947,o),
(257,947,cs),
(243,947,o),
(230,934,o),
(230,922,cs),
(230,906,o),
(281,794,o),
(383,585,cs),
(420,511,o),
(439,471,o),
(441,465,cs),
(444,458,o),
(447,452,o),
(450,446,c),
(449,445,o),
(447,443,o),
(446,442,c),
(444,440,o),
(442,438,o),
(441,436,c),
(384,321,o),
(244,121,o),
(89,49,cs),
(61,36,o),
(38,30,o),
(20,30,cs),
(-16,30,o),
(-51,22,o),
(-63,79,c),
(-66,84,o),
(-72,87,o),
(-79,87,cs),
(-93,87,o),
(-107,75,o),
(-107,63,cs),
(-107,58,o),
(-106,53,o),
(-104,50,c),
(-80,1,o),
(-61,-9,o),
(-6,-9,cs)
);
}
);
width = 1030;
}
);
note = uni0416;
unicode = 1046;
},
{
glyphname = "Ze-cy";
kernLeft = "Ze-cy";
kernRight = B;
lastChange = "2024-10-31 14:38:07 +0000";
layers = (
{
anchors = (
{
name = bottom;
pos = (314,0);
},
{
name = top;
pos = (503,960);
}
);
layerId = "79E705E9-1ED7-4818-9510-7FD15DA5A41F";
shapes = (
{
closed = 1;
nodes = (
(518,-10,o),
(636,120,o),
(636,300,cs),
(636,448,o),
(578,545,o),
(454,567,c),
(476,582,o),
(498,599,o),
(519,616,cs),
(592,677,o),
(628,745,o),
(628,821,cs),
(628,913,o),
(578,973,o),
(487,973,cs),
(397,973,o),
(312,916,o),
(312,890,cs),
(312,877,o),
(318,871,o),
(329,871,cs),
(334,871,o),
(340,873,o),
(347,877,c),
(385,909,o),
(430,925,o),
(481,925,cs),
(540,925,o),
(584,884,o),
(584,820,cs),
(584,734,o),
(519,651,o),
(388,572,c),
(307,570,o),
(264,560,o),
(264,518,cs),
(264,496,o),
(278,493,o),
(295,493,cs),
(324,493,o),
(362,508,o),
(411,539,c),
(444,536,o),
(471,527,o),
(494,512,cs),
(558,469,o),
(590,396,o),
(590,293,cs),
(590,123,o),
(446,35,o),
(304,35,cs),
(161,35,o),
(21,185,o),
(-5,342,c),
(-9,349,o),
(-15,353,o),
(-22,353,cs),
(-36,353,o),
(-49,337,o),
(-49,321,c),
(-6,145,o),
(127,-10,o),
(297,-10,cs)
);
}
);
width = 669;
}
);
metricRight = B;
note = uni0417;
unicode = 1047;
},
{
glyphname = "Ii-cy";
kernLeft = H;
kernRight = H;
lastChange = "2024-10-31 14:38:07 +0000";
layers = (
{
anchors = (
{
name = bottomright;
pos = (827,0);
},
{
name = top;
pos = (533,960);
}
);
layerId = "79E705E9-1ED7-4818-9510-7FD15DA5A41F";
shapes = (
{
closed = 1;
nodes = (
(679,-1,o),
(717,32,o),
(762,90,cs),
(779,112,o),
(792,129,o),
(801,141,cs),
(809,152,o),
(817,163,o),
(825,172,c),
(828,176,o),
(829,181,o),
(829,187,cs),
(829,198,o),
(823,203,o),
(811,203,cs),
(804,203,o),
(797,200,o),
(791,195,c),
(780,182,o),
(769,168,o),
(760,154,cs),
(721,98,o),
(687,60,o),
(659,41,c),
(644,84,o),
(636,160,o),
(636,268,cs),
(636,410,o),
(669,563,o),
(736,730,cs),
(755,778,o),
(775,828,o),
(796,880,c),
(801,897,o),
(807,912,o),
(813,922,cs),
(820,933,o),
(824,940,o),
(825,944,c),
(827,948,o),
(828,951,o),
(828,951,c),
(827,951,l),
(829,955,o),
(830,959,o),
(830,963,cs),
(830,975,o),
(825,981,o),
(813,981,cs),
(802,981,o),
(790,972,o),
(777,953,cs),
(765,934,o),
(749,904,o),
(729,866,cs),
(715,840,o),
(709,827,o),
(709,827,c),
(703,814,o),
(697,804,o),
(692,796,cs),
(620,684,o),
(530,562,o),
(422,432,cs),
(375,375,o),
(328,319,o),
(279,263,cs),
(231,207,o),
(183,148,o),
(133,88,c),
(181,294,o),
(218,465,o),
(245,603,cs),
(271,739,o),
(286,813,o),
(288,822,cs),
(305,881,o),
(313,924,o),
(313,953,c),
(310,964,o),
(304,970,o),
(296,970,cs),
(284,970,o),
(271,959,o),
(267,946,c),
(267,941,o),
(266,937,o),
(265,933,c),
(256,913,o),
(220,726,o),
(154,373,cs),
(126,219,o),
(99,101,o),
(73,16,c),
(73,2,o),
(78,-7,o),
(100,-7,c),
(106,-4,l),
(159,59,o),
(210,119,o),
(261,176,cs),
(444,386,o),
(585,565,o),
(686,713,c),
(676,686,ls),
(617,540,o),
(593,405,o),
(593,314,cs),
(593,269,o),
(593,237,o),
(594,219,cs),
(595,73,o),
(612,-3,o),
(646,-10,c)
);
}
);
width = 854;
}
);
note = uni0418;
unicode = 1048;
},
{
glyphname = "Iishort-cy";
kernLeft = "Iishort-cy";
kernRight = "Iishort-cy";
lastChange = "2024-10-31 14:38:07 +0000";
layers = (
{
layerId = "79E705E9-1ED7-4818-9510-7FD15DA5A41F";
shapes = (
{
closed = 1;
nodes = (
(576,-1,o),
(614,32,o),
(659,90,cs),
(676,112,o),
(689,129,o),
(698,141,cs),
(706,152,o),
(714,163,o),
(722,172,c),
(725,176,o),
(726,181,o),
(726,187,cs),
(726,198,o),
(720,203,o),
(708,203,cs),
(701,203,o),
(694,200,o),
(688,195,c),
(677,182,o),
(666,168,o),
(657,154,cs),
(618,98,o),
(584,60,o),
(556,41,c),
(541,84,o),
(533,160,o),
(533,268,cs),
(533,410,o),
(566,563,o),
(633,730,cs),
(652,778,o),
(672,828,o),
(693,880,c),
(698,897,o),
(704,912,o),
(710,922,cs),
(717,933,o),
(721,940,o),
(722,944,c),
(724,948,o),
(725,951,o),
(725,951,c),
(724,951,l),
(726,955,o),
(727,959,o),
(727,963,cs),
(727,975,o),
(722,981,o),
(710,981,cs),
(699,981,o),
(687,972,o),
(674,953,cs),
(662,934,o),
(645,904,o),
(625,866,cs),
(612,840,o),
(606,827,o),
(606,827,c),
(600,814,o),
(594,804,o),
(589,796,cs),
(517,684,o),
(427,562,o),
(319,432,cs),
(272,375,o),
(225,319,o),
(176,263,cs),
(128,207,o),
(80,148,o),
(30,88,c),
(78,294,o),
(115,465,o),
(142,603,cs),
(168,739,o),
(183,813,o),
(185,822,cs),
(202,881,o),
(210,924,o),
(210,953,c),
(206,964,o),
(201,970,o),
(193,970,cs),
(181,970,o),
(168,959,o),
(164,946,c),
(164,941,o),
(163,937,o),
(162,933,c),
(153,913,o),
(117,726,o),
(51,373,cs),
(23,219,o),
(-4,101,o),
(-30,16,c),
(-30,2,o),
(-25,-7,o),
(-3,-7,c),
(3,-4,l),
(56,59,o),
(107,119,o),
(158,176,cs),
(341,386,o),
(482,565,o),
(583,713,c),
(573,686,ls),
(514,540,o),
(490,405,o),
(490,314,cs),
(490,269,o),
(490,237,o),
(491,219,cs),
(492,73,o),
(509,-3,o),
(543,-10,c)
);
},
{
closed = 1;
nodes = (
(516,1040,o),
(589,1090,o),
(663,1191,c),
(665,1195,o),
(667,1200,o),
(667,1206,cs),
(667,1217,o),
(661,1222,o),
(649,1222,cs),
(642,1222,o),
(635,1219,o),
(629,1214,c),
(575,1140,o),
(523,1085,o),
(437,1085,cs),
(402,1085,o),
(382,1106,o),
(375,1149,cs),
(371,1178,o),
(368,1196,o),
(365,1203,cs),
(362,1209,o),
(357,1213,o),
(350,1213,cs),
(336,1213,o),
(322,1199,o),
(322,1182,cs),
(322,1099,o),
(367,1040,o),
(443,1040,cs)
);
}
);
width = 734;
}
);
metricLeft = P;
note = uni0419;
unicode = 1049;
},
{
glyphname = "Ka-cy";
kernLeft = H;
kernRight = K;
lastChange = "2024-10-31 14:38:07 +0000";
layers = (
{
anchors = (
{
name = bottomright;
pos = (429,19);
},
{
name = top;
pos = (307,960);
}
);
layerId = "79E705E9-1ED7-4818-9510-7FD15DA5A41F";
shapes = (
{
closed = 1;
nodes = (
(22,-9,o),
(36,3,o),
(39,19,c),
(51,94,o),
(74,207,o),
(108,360,c),
(112,367,o),
(118,374,o),
(125,380,cs),
(131,386,o),
(138,393,o),
(145,401,c),
(167,276,o),
(219,141,o),
(297,63,cs),
(339,19,o),
(396,-9,o),
(440,-9,cs),
(462,-9,o),
(482,-7,o),
(499,-4,cs),
(533,1,o),
(584,46,o),
(584,69,cs),
(584,81,o),
(578,87,o),
(564,87,cs),
(559,87,o),
(552,84,o),
(546,79,c),
(521,42,o),
(500,36,o),
(452,36,cs),
(428,36,o),
(405,42,o),
(382,55,cs),
(292,103,o),
(203,251,o),
(185,438,c),
(219,478,o),
(287,555,o),
(388,669,cs),
(489,783,o),
(565,870,o),
(615,930,cs),
(621,937,o),
(623,943,o),
(623,950,cs),
(623,961,o),
(617,967,o),
(606,967,cs),
(599,967,o),
(592,964,o),
(586,959,c),
(525,887,o),
(444,793,o),
(341,679,cs),
(238,564,o),
(168,486,o),
(131,444,c),
(150,529,o),
(169,614,o),
(189,699,cs),
(209,784,o),
(227,869,o),
(243,952,c),
(243,958,ls),
(243,970,o),
(238,976,o),
(227,976,cs),
(217,976,o),
(204,966,o),
(198,952,c),
(181,876,o),
(150,742,o),
(105,549,cs),
(61,357,o),
(23,178,o),
(-7,12,c),
(-5,-2,o),
(0,-9,o),
(11,-9,cs)
);
}
);
width = 613;
}
);
metricLeft = K;
metricRight = K;
note = uni041A;
unicode = 1050;
},
{
glyphname = "Kje-cy";
kernLeft = K;
kernRight = H;
lastChange = "2024-10-31 14:38:07 +0000";
layers = (
{
layerId = "79E705E9-1ED7-4818-9510-7FD15DA5A41F";
shapes = (
{
closed = 1;
nodes = (
(496,-9,o),
(517,-6,o),
(529,0,cs),
(552,12,o),
(600,49,o),
(600,69,cs),
(600,81,o),
(594,87,o),
(581,87,cs),
(575,87,o),
(568,84,o),
(562,79,c),
(536,40,o),
(516,30,o),
(468,30,cs),
(444,30,o),
(421,36,o),
(398,49,cs),
(311,99,o),
(223,254,o),
(209,436,c),
(206,443,l),
(254,509,o),
(351,608,o),
(464,728,cs),
(520,787,o),
(573,848,o),
(621,910,c),
(626,917,o),
(629,923,o),
(629,930,cs),
(629,941,o),
(623,947,o),
(612,947,cs),
(605,947,o),
(598,944,o),
(592,939,c),
(520,848,o),
(457,780,o),
(331,646,cs),
(268,578,o),
(205,508,o),
(142,434,c),
(185,622,o),
(220,790,o),
(249,938,c),
(249,944,ls),
(249,956,o),
(244,962,o),
(234,962,cs),
(223,962,o),
(209,952,o),
(204,938,c),
(149,696,o),
(106,499,o),
(75,346,cs),
(44,194,o),
(26,107,o),
(21,85,cs),
(16,64,o),
(12,42,o),
(10,18,c),
(11,4,o),
(17,-3,o),
(27,-3,cs),
(39,-3,o),
(54,9,o),
(56,25,cs),
(58,47,o),
(62,68,o),
(66,88,cs),
(76,129,o),
(88,188,o),
(104,261,cs),
(112,298,o),
(121,334,o),
(129,372,c),
(134,372,l),
(143,375,o),
(154,383,o),
(168,397,c),
(179,334,o),
(196,272,o),
(221,211,cs),
(270,89,o),
(355,-9,o),
(467,-9,cs)
);
},
{
closed = 1;
nodes = (
(123,410,l),
(122,409,o),
(122,409,o),
(122,408,c),
(121,408,l)
);
},
{
closed = 1;
nodes = (
(421,996,o),
(433,1007,o),
(435,1020,c),
(468,1062,o),
(494,1122,o),
(508,1153,cs),
(516,1168,o),
(521,1181,o),
(527,1190,c),
(532,1199,o),
(534,1207,o),
(534,1212,cs),
(534,1223,o),
(528,1229,o),
(516,1229,cs),
(507,1229,o),
(499,1224,o),
(491,1214,c),
(484,1199,o),
(477,1184,o),
(469,1169,cs),
(462,1154,o),
(455,1138,o),
(447,1123,cs),
(432,1092,o),
(415,1060,o),
(401,1041,cs),
(394,1031,o),
(390,1023,o),
(390,1019,cs),
(390,1003,o),
(397,996,o),
(413,996,cs)
);
}
);
width = 618;
}
);
note = uni040C;
unicode = 1036;
},
{
glyphname = "El-cy";
kernLeft = "El-cy";
kernRight = H;
lastChange = "2024-10-31 14:38:07 +0000";
layers = (
{
layerId = "79E705E9-1ED7-4818-9510-7FD15DA5A41F";
shapes = (
{
closed = 1;
nodes = (
(107,-11,o),
(118,-7,o),
(126,2,cs),
(165,46,o),
(211,113,o),
(265,203,cs),
(362,368,o),
(452,553,o),
(533,757,c),
(524,654,o),
(519,540,o),
(519,414,cs),
(519,289,o),
(528,152,o),
(546,4,c),
(548,-5,o),
(553,-10,o),
(561,-10,cs),
(565,-10,o),
(569,-9,o),
(573,-7,cs),
(586,0,o),
(593,11,o),
(593,25,c),
(575,168,o),
(566,320,o),
(566,481,cs),
(566,642,o),
(578,801,o),
(602,957,c),
(601,968,o),
(597,974,o),
(588,974,cs),
(577,974,o),
(560,962,o),
(555,947,c),
(554,946,o),
(554,945,o),
(553,943,cs),
(553,942,o),
(552,941,o),
(551,940,c),
(505,791,o),
(435,623,o),
(339,437,cs),
(295,351,o),
(261,289,o),
(236,251,cs),
(211,213,o),
(187,173,o),
(162,130,cs),
(137,88,o),
(117,58,o),
(101,41,c),
(98,43,o),
(93,45,o),
(87,45,cs),
(75,45,o),
(61,31,o),
(61,17,cs),
(61,3,o),
(69,-11,o),
(95,-11,cs)
);
}
);
width = 732;
}
);
metricLeft = M;
metricRight = M;
note = uni041B;
unicode = 1051;
},
{
glyphname = "Em-cy";
kernLeft = "Em-cy";
kernRight = "Em-cy";
lastChange = "2024-10-31 14:38:07 +0000";
layers = (
{
layerId = "79E705E9-1ED7-4818-9510-7FD15DA5A41F";
shapes = (
{
closed = 1;
nodes = (
(835,-12,o),
(850,20,o),
(842,37,c),
(845,315,o),
(855,619,o),
(875,950,c),
(875,951,o),
(875,952,o),
(875,953,cs),
(875,963,o),
(870,968,o),
(860,968,cs),
(849,968,o),
(839,960,o),
(830,944,cs),
(785,857,o),
(744,776,o),
(708,703,cs),
(634,555,o),
(560,403,o),
(471,249,c),
(453,325,o),
(430,431,o),
(402,567,cs),
(374,703,o),
(346,831,o),
(318,950,cs),
(315,961,o),
(309,967,o),
(300,967,cs),
(290,967,o),
(276,956,o),
(272,943,c),
(253,858,o),
(218,710,o),
(167,500,cs),
(117,289,o),
(80,125,o),
(59,9,c),
(61,-4,o),
(66,-11,o),
(77,-11,cs),
(89,-11,o),
(98,-4,o),
(104,9,c),
(116,58,o),
(144,180,o),
(192,375,cs),
(239,570,o),
(273,722,o),
(295,833,c),
(308,770,o),
(331,661,o),
(366,506,cs),
(401,352,o),
(426,235,o),
(443,157,c),
(447,148,o),
(453,143,o),
(463,143,cs),
(472,143,o),
(481,150,o),
(488,164,cs),
(515,219,o),
(569,322,o),
(649,474,cs),
(728,625,o),
(784,737,o),
(816,809,c),
(815,746,o),
(812,683,o),
(810,619,cs),
(807,554,o),
(805,490,o),
(803,425,cs),
(798,296,o),
(793,153,o),
(793,83,cs),
(793,14,o),
(789,-12,o),
(814,-12,cs)
);
}
);
width = 983;
}
);
metricLeft = M;
metricRight = M;
note = uni041C;
unicode = 1052;
},
{
glyphname = "En-cy";
kernLeft = H;
kernRight = H;
lastChange = "2024-10-31 14:38:07 +0000";
layers = (
{
anchors = (
{
name = bottomright;
pos = (602,0);
},
{
name = topright;
pos = (775,951);
}
);
layerId = "79E705E9-1ED7-4818-9510-7FD15DA5A41F";
shapes = (
{
closed = 1;
nodes = (
(149,-34,o),
(158,-27,o),
(165,-14,c),
(184,63,o),
(206,142,o),
(229,222,cs),
(251,301,o),
(273,382,o),
(293,464,c),
(396,492,o),
(525,509,o),
(680,515,c),
(666,427,ls),
(660,392,o),
(654,357,o),
(647,323,cs),
(633,254,o),
(606,130,o),
(602,10,c),
(604,-4,o),
(609,-11,o),
(619,-11,cs),
(631,-11,o),
(646,1,o),
(648,17,c),
(652,134,o),
(676,245,o),
(699,360,cs),
(710,417,o),
(719,470,o),
(725,517,c),
(764,518,o),
(802,519,o),
(840,520,cs),
(877,520,o),
(916,521,o),
(953,523,c),
(966,527,o),
(977,540,o),
(977,552,cs),
(977,560,o),
(971,566,o),
(960,569,c),
(732,562,l),
(737,604,o),
(744,655,o),
(752,717,cs),
(761,779,o),
(768,822,o),
(773,848,cs),
(786,900,ls),
(791,923,o),
(794,943,o),
(795,961,c),
(792,972,o),
(787,978,o),
(778,978,cs),
(766,978,o),
(753,967,o),
(749,954,c),
(748,934,o),
(740,895,o),
(726,837,cs),
(721,818,o),
(708,727,o),
(686,561,c),
(532,554,o),
(405,538,o),
(305,512,c),
(337,711,o),
(357,858,o),
(365,951,c),
(367,963,o),
(362,968,o),
(348,968,cs),
(331,968,o),
(321,960,o),
(319,944,cs),
(314,907,o),
(310,870,o),
(306,833,cs),
(298,758,o),
(284,616,o),
(256,499,c),
(253,498,o),
(245,495,o),
(232,491,cs),
(220,487,o),
(205,481,o),
(187,473,cs),
(169,465,o),
(152,458,o),
(135,452,cs),
(118,446,o),
(96,435,o),
(69,419,cs),
(-9,372,o),
(-49,329,o),
(-49,289,cs),
(-49,270,o),
(-42,260,o),
(-28,260,cs),
(-15,260,o),
(-2,273,o),
(-2,288,c),
(-4,297,l),
(-4,297,o),
(-4,298,o),
(-4,299,cs),
(-4,310,o),
(7,323,o),
(30,340,cs),
(35,343,o),
(39,346,o),
(41,348,cs),
(91,388,o),
(159,422,o),
(244,450,c),
(224,371,o),
(203,292,o),
(181,215,cs),
(159,137,o),
(138,61,o),
(120,-14,c),
(122,-27,o),
(127,-34,o),
(137,-34,cs)
);
}
);
width = 879;
}
);
note = uni041D;
unicode = 1053;
},
{
glyphname = "O-cy";
kernLeft = O;
kernRight = O;
lastChange = "2024-10-31 14:38:07 +0000";
layers = (
{
layerId = "79E705E9-1ED7-4818-9510-7FD15DA5A41F";
shapes = (
{
closed = 1;
nodes = (
(339,-22,o),
(439,62,o),
(511,191,cs),
(582,321,o),
(622,482,o),
(622,625,cs),
(622,659,o),
(621,690,o),
(618,719,cs),
(602,890,o),
(528,975,o),
(398,975,c),
(381,973,o),
(373,965,o),
(373,953,cs),
(373,947,o),
(378,942,o),
(387,938,cs),
(396,935,o),
(408,932,o),
(422,930,cs),
(435,927,o),
(449,924,o),
(464,920,cs),
(494,912,o),
(518,889,o),
(537,852,cs),
(562,799,o),
(575,738,o),
(575,669,cs),
(575,600,o),
(567,528,o),
(552,454,cs),
(520,306,o),
(447,105,o),
(307,41,cs),
(282,30,o),
(257,24,o),
(234,24,cs),
(211,24,o),
(193,28,o),
(179,35,cs),
(122,68,o),
(93,161,o),
(93,316,cs),
(93,396,o),
(105,477,o),
(130,559,cs),
(180,723,o),
(268,839,o),
(348,839,cs),
(378,839,o),
(408,831,o),
(438,814,cs),
(451,808,o),
(458,804,o),
(461,804,cs),
(472,804,o),
(477,812,o),
(477,828,cs),
(477,835,o),
(474,842,o),
(468,848,c),
(436,875,o),
(400,888,o),
(363,888,cs),
(172,888,o),
(48,581,o),
(48,295,cs),
(48,83,o),
(107,-22,o),
(226,-22,cs)
);
}
);
width = 661;
}
);
metricLeft = O;
metricRight = O;
note = uni041E;
unicode = 1054;
},
{
glyphname = "Pe-cy";
kernLeft = H;
kernRight = H;
lastChange = "2024-10-31 14:38:07 +0000";
layers = (
{
anchors = (
{
name = bottomright;
pos = (521,0);
}
);
layerId = "79E705E9-1ED7-4818-9510-7FD15DA5A41F";
shapes = (
{
closed = 1;
nodes = (
(544,-21,o),
(552,-13,o),
(557,2,c),
(585,149,l),
(598,216,o),
(606,260,o),
(611,281,cs),
(619,323,o),
(626,360,o),
(633,389,cs),
(636,403,o),
(640,423,o),
(645,449,cs),
(650,474,o),
(664,538,o),
(685,642,cs),
(706,746,o),
(729,842,o),
(755,929,c),
(808,928,o),
(821,940,o),
(821,954,cs),
(821,961,o),
(816,966,o),
(806,970,c),
(706,974,o),
(677,973,o),
(646,972,cs),
(616,971,o),
(584,970,o),
(553,970,cs),
(521,969,o),
(489,968,o),
(458,968,cs),
(426,967,o),
(379,967,o),
(316,967,cs),
(253,967,o),
(181,971,o),
(101,979,c),
(83,978,o),
(69,964,o),
(69,951,cs),
(69,943,o),
(76,938,o),
(88,934,c),
(140,928,o),
(191,925,o),
(243,924,c),
(240,914,o),
(239,900,o),
(238,884,cs),
(237,867,o),
(221,789,o),
(190,649,cs),
(127,364,ls),
(101,243,o),
(78,127,o),
(59,16,c),
(60,3,o),
(65,-4,o),
(76,-4,cs),
(88,-4,o),
(97,3,o),
(104,16,c),
(279,861,l),
(281,870,o),
(282,880,o),
(283,890,cs),
(283,899,o),
(284,909,o),
(286,918,c),
(287,918,o),
(288,920,o),
(290,923,c),
(350,923,l),
(710,928,l),
(676,812,o),
(640,657,o),
(604,465,cs),
(589,387,o),
(575,309,o),
(561,231,cs),
(552,183,o),
(531,81,o),
(514,-3,cs),
(514,-15,o),
(520,-21,o),
(532,-21,cs)
);
}
);
width = 771;
}
);
note = uni041F;
unicode = 1055;
},
{
glyphname = "Er-cy";
kernLeft = H;
kernRight = P;
lastChange = "2024-10-31 14:38:07 +0000";
layers = (
{
layerId = "79E705E9-1ED7-4818-9510-7FD15DA5A41F";
shapes = (
{
closed = 1;
nodes = (
(82,-5,o),
(96,7,o),
(99,23,c),
(108,77,o),
(122,141,o),
(138,216,cs),
(154,291,o),
(166,346,o),
(173,384,c),
(190,379,o),
(207,377,o),
(223,377,cs),
(429,377,o),
(541,521,o),
(541,726,cs),
(541,849,o),
(451,967,o),
(302,967,cs),
(298,967,l),
(296,977,o),
(291,982,o),
(281,982,cs),
(271,982,o),
(263,975,o),
(256,962,c),
(200,951,o),
(161,923,o),
(137,879,c),
(136,874,o),
(135,871,o),
(135,868,cs),
(135,857,o),
(141,851,o),
(153,851,cs),
(162,851,o),
(170,855,o),
(176,863,c),
(190,888,o),
(211,905,o),
(241,914,c),
(141,445,l),
(136,447,o),
(131,449,o),
(125,452,c),
(119,455,o),
(113,457,o),
(107,459,c),
(96,464,o),
(84,468,o),
(72,468,cs),
(60,468,o),
(46,460,o),
(46,444,cs),
(46,430,o),
(74,413,o),
(131,395,c),
(125,363,o),
(113,308,o),
(96,230,cs),
(79,151,o),
(64,80,o),
(53,16,c),
(55,2,o),
(61,-5,o),
(71,-5,cs)
);
},
{
closed = 1;
nodes = (
(223,424,o),
(199,426,o),
(183,430,c),
(288,922,l),
(418,922,o),
(499,821,o),
(499,702,cs),
(499,626,o),
(476,561,o),
(429,507,cs),
(384,456,o),
(318,424,o),
(254,424,cs)
);
}
);
width = 570;
}
);
note = uni0420;
unicode = 1056;
},
{
glyphname = "Es-cy";
kernLeft = O;
kernRight = C;
lastChange = "2024-10-31 14:38:07 +0000";
layers = (
{
anchors = (
{
name = bottom;
pos = (245,6);
},
{
name = bottomright;
pos = (217,16);
}
);
layerId = "79E705E9-1ED7-4818-9510-7FD15DA5A41F";
shapes = (
{
closed = 1;
nodes = (
(288,-15,o),
(340,6,o),
(397,49,cs),
(412,61,o),
(428,72,o),
(443,82,cs),
(453,89,o),
(458,98,o),
(458,107,cs),
(458,119,o),
(452,125,o),
(441,125,cs),
(436,125,o),
(428,122,o),
(420,115,cs),
(411,109,o),
(399,100,o),
(385,90,cs),
(334,53,o),
(288,34,o),
(248,34,cs),
(140,34,o),
(89,154,o),
(89,293,cs),
(89,431,o),
(180,722,o),
(290,852,cs),
(331,901,o),
(370,926,o),
(406,926,cs),
(479,926,o),
(532,869,o),
(542,786,cs),
(544,771,o),
(547,760,o),
(551,754,cs),
(554,750,o),
(558,748,o),
(564,748,cs),
(576,748,o),
(590,762,o),
(592,776,c),
(592,866,o),
(511,974,o),
(407,974,cs),
(303,974,o),
(207,856,o),
(141,700,cs),
(74,543,o),
(38,379,o),
(38,268,cs),
(38,234,o),
(43,198,o),
(54,161,cs),
(76,86,o),
(113,35,o),
(164,6,cs),
(188,-8,o),
(214,-15,o),
(240,-15,cs)
);
}
);
width = 616;
}
);
metricLeft = O;
note = uni0421;
unicode = 1057;
},
{
glyphname = "Te-cy";
kernLeft = T;
kernRight = T;
lastChange = "2024-10-31 14:38:07 +0000";
layers = (
{
anchors = (
{
name = bottomright;
pos = (120,0);
}
);
layerId = "79E705E9-1ED7-4818-9510-7FD15DA5A41F";
shapes = (
{
closed = 1;
nodes = (
(144,-38,o),
(158,-26,o),
(161,-10,c),
(195,199,o),
(272,586,o),
(304,724,cs),
(320,792,o),
(333,854,o),
(344,909,c),
(384,910,o),
(427,912,o),
(476,915,cs),
(524,918,o),
(569,920,o),
(611,920,cs),
(644,920,o),
(660,930,o),
(660,950,cs),
(660,958,o),
(654,964,o),
(643,967,c),
(639,966,o),
(634,966,o),
(630,966,cs),
(594,966,ls),
(563,966,o),
(536,965,o),
(511,963,cs),
(486,961,o),
(467,960,o),
(455,959,c),
(442,958,o),
(428,958,o),
(414,957,cs),
(399,956,o),
(383,955,o),
(364,954,c),
(365,959,l),
(363,979,l),
(361,990,o),
(355,996,o),
(346,996,cs),
(330,996,o),
(317,982,o),
(308,954,c),
(104,958,ls),
(94,958,o),
(84,958,o),
(75,957,cs),
(42,955,o),
(24,944,o),
(24,926,cs),
(24,916,o),
(31,911,o),
(45,909,c),
(79,911,o),
(110,912,o),
(139,912,cs),
(168,912,o),
(220,911,o),
(296,909,c),
(294,897,o),
(292,885,o),
(291,873,cs),
(289,860,o),
(287,848,o),
(285,836,c),
(281,812,o),
(280,796,o),
(270,757,cs),
(264,738,o),
(257,707,o),
(247,665,cs),
(179,375,o),
(135,147,o),
(115,-17,c),
(117,-31,o),
(123,-38,o),
(134,-38,cs)
);
}
);
width = 636;
}
);
note = uni0422;
unicode = 1058;
},
{
glyphname = "U-cy";
kernLeft = "U-cy";
kernRight = V;
lastChange = "2024-10-31 16:55:25 +0000";
layers = (
{
anchors = (
{
name = top;
pos = (479,960);
}
);
layerId = "79E705E9-1ED7-4818-9510-7FD15DA5A41F";
shapes = (
{
closed = 1;
nodes = (
(258,-11,o),
(310,6,o),
(354,40,cs),
(450,114,o),
(510,235,o),
(535,404,c),
(548,491,l),
(653,624,o),
(702,833,o),
(702,906,cs),
(702,942,o),
(691,960,o),
(671,960,cs),
(601,960,o),
(543,804,o),
(498,492,c),
(456,436,o),
(364,373,o),
(317,373,cs),
(271,373,o),
(243,434,o),
(243,504,cs),
(243,540,o),
(247,582,o),
(254,632,cs),
(262,682,o),
(285,788,o),
(325,950,c),
(325,961,o),
(320,967,o),
(312,967,cs),
(300,967,o),
(285,956,o),
(278,943,c),
(271,918,o),
(264,892,o),
(257,865,cs),
(213,696,o),
(191,580,o),
(191,516,cs),
(191,390,o),
(227,327,o),
(299,327,cs),
(349,327,o),
(413,360,o),
(489,427,c),
(485,406,o),
(477,345,o),
(476,338,cs),
(438,162,o),
(331,42,o),
(212,37,c),
(107,37,o),
(20,145,o),
(-28,251,cs),
(-37,270,o),
(-73,250,o),
(-73,225,cs),
(-73,219,l),
(-11,128,o),
(10,100,o),
(34,71,cs),
(82,16,o),
(136,-11,o),
(197,-11,cs)
);
},
{
closed = 1;
nodes = (
(572,714,o),
(608,829,o),
(661,906,c),
(661,785,o),
(619,654,o),
(555,565,c)
);
}
);
width = 726;
}
);
note = uni0423;
unicode = 1059;
},
{
glyphname = "Ushort-cy";
kernLeft = "U-cy";
kernRight = "U-cy";
lastChange = "2024-10-31 14:38:07 +0000";
layers = (
{
layerId = "79E705E9-1ED7-4818-9510-7FD15DA5A41F";
shapes = (
{
closed = 1;
nodes = (
(242,-11,o),
(294,6,o),
(339,40,cs),
(435,114,o),
(495,235,o),
(519,404,cs),
(521,422,o),
(524,438,o),
(526,451,cs),
(528,465,o),
(530,478,o),
(532,491,c),
(637,624,o),
(686,833,o),
(686,906,cs),
(686,942,o),
(676,960,o),
(656,960,cs),
(585,960,o),
(527,804,o),
(482,492,c),
(440,436,o),
(349,373,o),
(302,373,cs),
(255,373,o),
(227,434,o),
(227,504,cs),
(227,540,o),
(231,582,o),
(239,632,cs),
(246,682,o),
(270,788,o),
(309,950,c),
(309,961,o),
(305,967,o),
(296,967,cs),
(285,967,o),
(270,956,o),
(262,943,c),
(255,918,o),
(248,892,o),
(241,865,cs),
(198,696,o),
(176,580,o),
(176,516,cs),
(176,390,o),
(211,327,o),
(283,327,cs),
(333,327,o),
(397,360,o),
(473,427,c),
(470,406,o),
(467,387,o),
(465,372,cs),
(463,356,o),
(461,345,o),
(460,338,cs),
(423,162,o),
(315,42,o),
(197,37,c),
(91,37,o),
(4,145,o),
(-44,251,c),
(-49,254,o),
(-55,256,o),
(-60,256,cs),
(-71,256,o),
(-89,238,o),
(-89,225,cs),
(-89,219,ls),
(-89,218,o),
(-86,214,o),
(-80,207,c),
(-74,199,o),
(-62,181,o),
(-42,153,cs),
(-23,124,o),
(-3,97,o),
(19,71,cs),
(66,16,o),
(120,-11,o),
(181,-11,cs)
);
},
{
closed = 1;
nodes = (
(565,704,o),
(596,808,o),
(637,894,c),
(627,797,o),
(587,662,o),
(546,583,c)
);
}
);
width = 606;
}
);
note = uni040E;
unicode = 1038;
},
{
glyphname = "Ef-cy";
kernLeft = Phi;
kernRight = Phi;
lastChange = "2024-10-31 14:38:07 +0000";
layers = (
{
layerId = "79E705E9-1ED7-4818-9510-7FD15DA5A41F";
shapes = (
{
closed = 1;
nodes = (
(213,728,o),
(358,819,o),
(605,819,cs),
(838,819,o),
(940,754,o),
(940,606,cs),
(940,529,o),
(919,459,o),
(878,396,cs),
(798,274,o),
(653,189,o),
(466,158,c),
(457,110,l),
(558,122,o),
(649,153,o),
(731,202,cs),
(892,298,o),
(986,451,o),
(986,613,cs),
(986,819,o),
(832,866,o),
(616,866,cs),
(417,866,o),
(286,817,o),
(185,703,cs),
(103,610,o),
(55,495,o),
(55,393,cs),
(55,272,o),
(130,175,o),
(262,125,cs),
(299,112,o),
(335,105,o),
(369,105,cs),
(389,105,o),
(417,106,o),
(453,108,c),
(456,158,l),
(435,155,o),
(412,153,o),
(386,153,cs),
(223,153,o),
(111,254,o),
(111,399,cs),
(111,436,o),
(120,477,o),
(136,523,cs)
);
},
{
closed = 1;
nodes = (
(661,892,l),
(684,982,o),
(695,1052,o),
(695,1100,c),
(698,1109,o),
(699,1116,o),
(699,1120,cs),
(699,1131,o),
(693,1136,o),
(681,1136,cs),
(667,1136,o),
(649,1121,o),
(649,1109,cs),
(649,1103,o),
(649,1099,o),
(650,1096,c),
(644,1054,o),
(630,986,o),
(608,891,c),
(596,851,l),
(501,459,ls),
(469,313,o),
(440,166,o),
(413,20,c),
(409,-3,l),
(376,-169,o),
(359,-257,o),
(359,-265,cs),
(359,-273,o),
(364,-277,o),
(372,-277,cs),
(383,-277,o),
(400,-266,o),
(405,-250,c),
(454,-4,l),
(460,25,ls),
(476,105,o),
(492,184,o),
(510,264,cs),
(649,862,l)
);
}
);
width = 1021;
}
);
metricLeft = O;
metricRight = O;
note = uni0424;
unicode = 1060;
},
{
glyphname = "Ha-cy";
kernLeft = X;
kernRight = X;
lastChange = "2024-10-31 14:38:07 +0000";
layers = (
{
anchors = (
{
name = bottomright;
pos = (480,0);
}
);
layerId = "79E705E9-1ED7-4818-9510-7FD15DA5A41F";
shapes = (
{
closed = 1;
nodes = (
(513,-28,o),
(529,-12,o),
(529,7,c),
(486,91,o),
(430,260,o),
(360,515,c),
(474,676,o),
(553,783,o),
(598,834,cs),
(642,885,o),
(668,917,o),
(677,928,cs),
(686,939,o),
(690,947,o),
(690,952,cs),
(690,961,o),
(682,968,o),
(672,968,cs),
(668,968,o),
(662,967,o),
(655,965,cs),
(648,963,o),
(634,950,o),
(611,925,cs),
(538,843,o),
(448,728,o),
(343,578,c),
(329,630,o),
(315,681,o),
(303,728,cs),
(278,823,o),
(258,897,o),
(243,941,cs),
(235,963,o),
(230,975,o),
(227,977,c),
(224,978,o),
(222,978,o),
(221,978,cs),
(212,978,ls),
(203,978,o),
(179,958,o),
(179,935,cs),
(179,924,o),
(184,918,o),
(193,918,cs),
(194,918,l),
(198,899,l),
(218,838,o),
(236,777,o),
(253,714,cs),
(271,652,o),
(288,589,o),
(306,525,c),
(276,482,o),
(247,439,o),
(218,396,cs),
(104,230,o),
(14,104,o),
(-55,16,c),
(-56,11,l),
(-56,-5,o),
(-45,-13,o),
(-24,-13,cs),
(-15,-13,o),
(-7,-9,o),
(-2,0,c),
(117,158,o),
(220,312,o),
(323,462,c),
(373,292,o),
(417,161,o),
(458,70,c),
(463,55,o),
(467,40,o),
(470,25,cs),
(474,9,o),
(477,-6,o),
(481,-22,c),
(481,-21,o),
(481,-21,o),
(482,-21,c),
(485,-25,o),
(490,-28,o),
(498,-28,cs)
);
}
);
width = 628;
}
);
note = uni0425;
unicode = 1061;
},
{
glyphname = "Tse-cy";
kernLeft = H;
kernRight = "De-cy";
lastChange = "2024-10-31 14:38:07 +0000";
layers = (
{
layerId = "79E705E9-1ED7-4818-9510-7FD15DA5A41F";
shapes = (
{
closed = 1;
nodes = (
(367,-606,o),
(507,-557,o),
(588,-445,cs),
(633,-385,o),
(662,-296,o),
(662,-212,cs),
(662,-127,o),
(639,-59,o),
(593,-6,cs),
(561,31,o),
(528,50,o),
(495,50,cs),
(461,50,o),
(430,31,o),
(401,-6,c),
(399,2,o),
(398,8,o),
(398,13,cs),
(398,48,ls),
(398,83,o),
(401,123,o),
(409,165,cs),
(416,207,o),
(435,285,o),
(464,398,cs),
(494,512,o),
(514,585,o),
(522,617,cs),
(530,649,o),
(539,680,o),
(547,711,cs),
(564,773,o),
(581,834,o),
(595,879,cs),
(602,902,o),
(605,919,o),
(605,930,cs),
(605,941,o),
(602,947,o),
(595,947,cs),
(574,947,o),
(559,939,o),
(549,924,cs),
(543,915,o),
(523,839,o),
(489,699,cs),
(474,635,o),
(402,344,o),
(299,162,cs),
(248,71,o),
(206,26,o),
(174,26,cs),
(139,26,o),
(121,79,o),
(121,186,cs),
(121,348,o),
(146,541,o),
(197,765,cs),
(234,930,l),
(235,933,o),
(238,939,o),
(243,949,c),
(248,959,ls),
(250,962,o),
(250,964,o),
(250,966,c),
(248,972,l),
(247,979,o),
(242,983,o),
(235,983,cs),
(228,983,o),
(220,980,o),
(213,975,c),
(192,958,o),
(173,895,o),
(154,787,cs),
(152,775,o),
(144,733,o),
(130,664,cs),
(103,523,o),
(72,350,o),
(72,178,cs),
(72,91,o),
(90,31,o),
(127,-3,cs),
(140,-16,o),
(155,-22,o),
(172,-22,cs),
(229,-22,o),
(275,50,o),
(314,119,cs),
(333,152,o),
(361,213,o),
(398,300,c),
(365,169,o),
(349,75,o),
(349,16,cs),
(349,-43,o),
(358,-73,o),
(375,-73,cs),
(392,-73,o),
(405,-67,o),
(422,-37,cs),
(435,-12,o),
(455,0,o),
(479,0,cs),
(504,0,o),
(527,-11,o),
(548,-34,cs),
(590,-81,o),
(612,-148,o),
(612,-237,cs),
(612,-263,o),
(607,-291,o),
(599,-321,cs),
(563,-441,o),
(452,-557,o),
(257,-557,cs),
(179,-557,o),
(120,-545,o),
(79,-521,cs),
(52,-504,o),
(39,-484,o),
(39,-459,cs),
(39,-434,o),
(55,-412,o),
(86,-393,cs),
(133,-365,o),
(210,-345,o),
(248,-334,cs),
(266,-329,o),
(282,-324,o),
(297,-318,c),
(312,-310,o),
(320,-299,o),
(320,-287,cs),
(320,-279,o),
(313,-275,o),
(300,-275,c),
(83,-332,o),
(-12,-370,o),
(-12,-455,cs),
(-12,-498,o),
(9,-532,o),
(51,-558,cs),
(86,-580,o),
(159,-606,o),
(263,-606,cs)
);
}
);
width = 662;
}
);
note = uni0426;
unicode = 1062;
},
{
glyphname = "Che-cy";
kernLeft = "Che-cy";
kernRight = H;
lastChange = "2024-10-31 14:38:07 +0000";
layers = (
{
anchors = (
{
name = bottomright;
pos = (321,0);
},
{
name = center;
pos = (239,291);
},
{
name = top;
pos = (463,960);
}
);
layerId = "79E705E9-1ED7-4818-9510-7FD15DA5A41F";
shapes = (
{
closed = 1;
nodes = (
(323,-40,o),
(329,-38,o),
(335,-33,cs),
(354,-19,o),
(367,2,o),
(373,30,cs),
(385,90,ls),
(464,479,o),
(522,732,o),
(559,850,cs),
(580,917,o),
(590,953,o),
(590,960,cs),
(590,967,o),
(586,970,o),
(578,970,cs),
(562,970,o),
(557,962,o),
(551,953,c),
(548,949,o),
(539,928,o),
(523,893,cs),
(507,857,o),
(487,786,o),
(463,681,cs),
(459,661,o),
(454,640,o),
(448,619,cs),
(415,491,o),
(290,316,o),
(177,316,cs),
(164,316,o),
(153,318,o),
(146,324,cs),
(125,338,o),
(115,370,o),
(115,420,cs),
(115,603,o),
(155,732,o),
(239,946,c),
(240,951,l),
(240,963,o),
(240,970,o),
(224,970,cs),
(216,970,o),
(208,965,o),
(197,954,c),
(180,910,o),
(163,867,o),
(147,824,cs),
(95,680,o),
(68,543,o),
(68,413,cs),
(68,320,o),
(104,274,o),
(174,274,cs),
(233,274,o),
(359,343,o),
(423,470,c),
(409,399,o),
(381,277,o),
(340,103,cs),
(331,64,o),
(324,34,o),
(319,13,c),
(304,13,o),
(286,-1,o),
(286,-14,cs),
(286,-28,o),
(304,-40,o),
(316,-40,cs)
);
}
);
width = 516;
}
);
metricRight = H;
note = uni0427;
unicode = 1063;
},
{
glyphname = "Sha-cy";
kernLeft = H;
kernRight = H;
lastChange = "2024-10-31 14:38:07 +0000";
layers = (
{
layerId = "79E705E9-1ED7-4818-9510-7FD15DA5A41F";
shapes = (
{
closed = 1;
nodes = (
(723,-25,o),
(740,-13,o),
(746,3,c),
(752,33,o),
(758,80,o),
(765,142,cs),
(772,204,o),
(778,250,o),
(782,278,cs),
(827,552,o),
(875,773,o),
(927,944,c),
(927,955,o),
(923,961,o),
(914,961,cs),
(905,961,o),
(898,959,o),
(893,957,cs),
(887,954,o),
(880,942,o),
(872,921,cs),
(855,879,o),
(819,736,o),
(800,656,cs),
(791,617,o),
(781,576,o),
(771,536,cs),
(751,454,o),
(730,372,o),
(707,298,cs),
(685,224,o),
(661,160,o),
(635,113,cs),
(610,67,o),
(583,39,o),
(556,39,cs),
(542,39,o),
(531,45,o),
(524,57,cs),
(504,88,o),
(493,145,o),
(493,226,cs),
(493,388,o),
(532,570,o),
(603,865,cs),
(618,928,ls),
(620,934,o),
(620,939,o),
(620,943,cs),
(620,955,o),
(616,961,o),
(609,961,cs),
(597,961,o),
(581,950,o),
(575,937,c),
(537,771,ls),
(465,466,o),
(306,39,o),
(212,39,cs),
(183,39,o),
(169,98,o),
(169,217,cs),
(169,390,o),
(199,634,o),
(260,948,c),
(260,959,o),
(255,965,o),
(245,965,cs),
(235,965,o),
(219,954,o),
(213,941,c),
(151,623,o),
(120,399,o),
(120,268,cs),
(120,200,o),
(123,149,o),
(127,116,cs),
(136,49,o),
(159,-10,o),
(217,-10,cs),
(235,-10,o),
(252,-2,o),
(271,13,cs),
(342,71,o),
(414,228,o),
(468,440,c),
(464,407,o),
(445,292,o),
(445,186,cs),
(445,79,o),
(483,-10,o),
(544,-10,cs),
(575,-10,o),
(605,10,o),
(635,51,cs),
(672,101,o),
(710,188,o),
(748,314,c),
(742,245,o),
(705,26,o),
(701,8,cs),
(699,-1,o),
(698,-6,o),
(698,-7,cs),
(698,-10,ls),
(698,-20,o),
(703,-25,o),
(711,-25,cs)
);
}
);
width = 856;
}
);
metricRight = H;
note = uni0428;
unicode = 1064;
},
{
glyphname = "Shcha-cy";
kernLeft = H;
kernRight = "De-cy";
lastChange = "2024-10-31 14:38:07 +0000";
layers = (
{
layerId = "79E705E9-1ED7-4818-9510-7FD15DA5A41F";
shapes = (
{
closed = 1;
nodes = (
(748,-444,o),
(771,-441,o),
(796,-436,cs),
(972,-400,o),
(1057,-286,o),
(1057,-185,cs),
(1057,-135,o),
(1038,-89,o),
(1000,-47,cs),
(965,-9,o),
(915,17,o),
(880,17,cs),
(863,17,o),
(849,16,o),
(839,14,c),
(853,76,o),
(866,138,o),
(879,199,cs),
(892,260,o),
(906,321,o),
(921,383,c),
(938,426,o),
(958,485,o),
(980,560,cs),
(1003,635,o),
(1031,750,o),
(1063,904,c),
(1062,908,l),
(1061,913,l),
(1060,915,o),
(1059,916,o),
(1057,918,cs),
(1056,920,o),
(1053,921,o),
(1049,921,cs),
(1046,921,ls),
(1044,921,o),
(1043,920,o),
(1042,920,c),
(1028,913,o),
(1020,905,o),
(1015,897,c),
(992,786,o),
(959,686,o),
(927,578,cs),
(911,524,o),
(893,458,o),
(874,379,c),
(834,274,o),
(795,197,o),
(755,150,cs),
(749,143,o),
(743,134,o),
(735,124,cs),
(728,113,o),
(720,103,o),
(712,92,cs),
(696,70,o),
(677,47,o),
(658,30,cs),
(639,13,o),
(619,1,o),
(600,1,cs),
(590,1,o),
(582,4,o),
(575,11,cs),
(545,41,o),
(530,111,o),
(530,223,cs),
(530,333,o),
(548,480,o),
(583,661,cs),
(597,734,o),
(609,795,o),
(619,846,cs),
(629,896,o),
(634,924,o),
(634,930,cs),
(634,931,l),
(633,941,o),
(628,946,o),
(619,946,cs),
(609,946,o),
(594,935,o),
(586,922,c),
(576,890,o),
(564,845,o),
(550,787,cs),
(536,729,o),
(522,678,o),
(510,632,cs),
(476,506,o),
(410,356,o),
(311,181,c),
(304,171,o),
(289,149,o),
(267,115,cs),
(221,46,o),
(190,11,o),
(173,11,cs),
(139,11,o),
(122,52,o),
(122,133,cs),
(122,242,o),
(153,418,o),
(216,662,cs),
(228,707,o),
(239,751,o),
(251,796,cs),
(263,841,o),
(275,886,o),
(286,931,c),
(286,942,o),
(281,948,o),
(272,948,cs),
(263,948,o),
(247,937,o),
(239,924,c),
(220,857,o),
(203,791,o),
(187,723,cs),
(154,588,o),
(131,502,o),
(119,454,cs),
(112,430,o),
(107,407,o),
(103,386,cs),
(83,284,o),
(73,206,o),
(73,153,cs),
(73,45,o),
(105,-38,o),
(158,-38,cs),
(205,-38,o),
(254,7,o),
(307,98,cs),
(312,107,o),
(316,114,o),
(319,119,cs),
(390,232,o),
(452,357,o),
(506,495,c),
(490,393,o),
(482,301,o),
(482,220,cs),
(482,49,o),
(524,-36,o),
(606,-36,cs),
(670,-36,o),
(773,92,o),
(832,196,c),
(806,76,o),
(791,4,o),
(786,-22,c),
(786,-31,o),
(792,-36,o),
(804,-37,c),
(833,-30,o),
(851,-26,o),
(858,-26,cs),
(865,-26,o),
(871,-27,o),
(876,-29,cs),
(946,-58,o),
(1009,-127,o),
(1009,-206,cs),
(1009,-246,o),
(995,-280,o),
(965,-309,cs),
(905,-368,o),
(813,-397,o),
(729,-397,cs),
(687,-397,o),
(648,-395,o),
(613,-391,cs),
(493,-375,o),
(419,-342,o),
(392,-291,cs),
(390,-287,o),
(388,-281,o),
(388,-274,cs),
(387,-267,o),
(387,-260,o),
(386,-254,c),
(385,-241,o),
(382,-231,o),
(369,-231,cs),
(356,-231,o),
(337,-248,o),
(338,-265,cs),
(339,-274,o),
(339,-284,o),
(339,-294,cs),
(340,-338,o),
(375,-374,o),
(444,-400,cs),
(522,-429,o),
(617,-444,o),
(729,-444,cs)
);
}
);
width = 1136;
}
);
note = uni0429;
unicode = 1065;
},
{
glyphname = "Dzhe-cy";
kernLeft = H;
kernRight = H;
lastChange = "2024-10-31 14:38:07 +0000";
layers = (
{
layerId = "79E705E9-1ED7-4818-9510-7FD15DA5A41F";
shapes = (
{
closed = 1;
nodes = (
(228,-241,o),
(238,-234,o),
(245,-221,c),
(248,-210,o),
(255,-181,o),
(267,-133,cs),
(279,-85,o),
(286,-43,o),
(288,-9,c),
(390,-9,ls),
(417,-9,o),
(435,-8,o),
(444,-5,cs),
(454,-3,l),
(456,-2,o),
(460,-2,o),
(467,-2,cs),
(476,-2,l),
(479,-3,o),
(481,-4,o),
(484,-4,c),
(492,-3,l),
(497,-3,o),
(504,-3,o),
(512,-5,c),
(517,-4,o),
(521,-3,o),
(524,-2,c),
(537,3,o),
(543,12,o),
(543,23,cs),
(543,32,o),
(535,39,o),
(518,41,c),
(520,50,o),
(521,60,o),
(521,70,cs),
(522,80,o),
(524,94,o),
(528,112,cs),
(531,130,o),
(542,178,o),
(560,255,cs),
(577,332,o),
(601,448,o),
(632,604,cs),
(664,760,o),
(687,873,o),
(701,942,c),
(700,955,o),
(694,962,o),
(684,962,cs),
(672,962,o),
(663,955,o),
(656,942,c),
(632,815,o),
(582,571,o),
(504,210,cs),
(480,97,ls),
(478,88,o),
(477,79,o),
(476,70,c),
(475,61,o),
(474,51,o),
(473,42,c),
(470,42,o),
(467,41,o),
(466,40,c),
(464,40,o),
(461,39,o),
(458,38,c),
(454,37,o),
(449,37,o),
(442,36,cs),
(435,36,o),
(415,35,o),
(381,35,cs),
(347,35,o),
(314,36,o),
(283,37,c),
(280,41,o),
(275,43,o),
(270,43,c),
(253,39,l),
(252,39,o),
(252,39,o),
(252,39,c),
(163,40,ls),
(133,40,o),
(95,42,o),
(51,45,c),
(55,71,o),
(62,96,o),
(70,120,cs),
(85,169,o),
(101,212,o),
(123,322,cs),
(133,377,o),
(152,476,o),
(178,618,cs),
(204,761,o),
(227,875,o),
(247,960,c),
(246,959,l),
(246,961,ls),
(246,973,o),
(240,979,o),
(227,979,cs),
(209,979,o),
(206,965,o),
(202,956,c),
(201,952,o),
(199,947,o),
(197,943,c),
(194,916,o),
(188,881,o),
(180,838,cs),
(172,795,o),
(166,763,o),
(162,741,cs),
(153,698,o),
(145,655,o),
(137,618,cs),
(133,600,o),
(130,583,o),
(127,569,cs),
(124,555,o),
(120,532,o),
(113,502,cs),
(107,472,o),
(97,420,o),
(83,347,cs),
(68,273,o),
(54,210,o),
(38,158,cs),
(21,106,o),
(11,69,o),
(7,49,c),
(6,49,l),
(-8,45,o),
(-21,33,o),
(-21,21,cs),
(-21,11,o),
(-14,5,o),
(0,3,c),
(0,-2,l),
(3,-13,o),
(9,-19,o),
(19,-19,cs),
(28,-19,o),
(37,-13,o),
(44,0,c),
(135,-6,o),
(202,-9,o),
(243,-9,c),
(242,-46,o),
(230,-108,o),
(207,-195,cs),
(204,-206,o),
(202,-214,o),
(200,-221,c),
(202,-234,o),
(207,-241,o),
(217,-241,cs)
);
}
);
width = 676;
}
);
note = uni040F;
unicode = 1039;
},
{
glyphname = "Softsign-cy";
kernLeft = H;
kernRight = "Softsign-cy";
lastChange = "2024-10-31 14:38:07 +0000";
layers = (
{
layerId = "79E705E9-1ED7-4818-9510-7FD15DA5A41F";
shapes = (
{
closed = 1;
nodes = (
(155,-7,o),
(175,-2,o),
(196,6,cs),
(322,55,o),
(393,193,o),
(393,267,cs),
(393,328,o),
(375,380,o),
(340,425,cs),
(306,469,o),
(254,498,o),
(199,498,cs),
(172,498,o),
(149,493,o),
(132,482,c),
(145,540,ls),
(182,715,o),
(215,850,o),
(245,945,c),
(245,961,o),
(240,969,o),
(230,969,cs),
(219,969,o),
(206,959,o),
(200,945,c),
(176,872,o),
(155,794,o),
(138,712,cs),
(120,630,o),
(107,573,o),
(100,540,cs),
(74,428,l),
(52,402,l),
(48,396,o),
(46,390,o),
(46,385,cs),
(46,375,o),
(51,369,o),
(60,367,c),
(36,254,o),
(22,177,o),
(19,135,c),
(19,55,o),
(73,-7,o),
(138,-7,cs)
);
},
{
closed = 1;
nodes = (
(103,39,o),
(65,82,o),
(65,142,cs),
(65,172,o),
(68,198,o),
(74,219,cs),
(81,240,o),
(84,255,o),
(86,266,cs),
(89,285,o),
(103,345,o),
(109,375,cs),
(112,390,o),
(115,404,o),
(118,419,c),
(134,438,o),
(153,451,o),
(194,451,cs),
(236,451,o),
(275,427,o),
(303,392,cs),
(330,357,o),
(345,314,o),
(345,262,cs),
(345,236,o),
(335,205,o),
(315,169,cs),
(274,97,o),
(204,39,o),
(138,39,cs)
);
}
);
width = 443;
}
);
note = uni042C;
unicode = 1068;
},
{
glyphname = "Yeru-cy";
kernLeft = H;
kernRight = H;
lastChange = "2024-10-31 16:58:45 +0000";
layers = (
{
anchors = (
{
name = top;
pos = (585,960);
}
);
layerId = "79E705E9-1ED7-4818-9510-7FD15DA5A41F";
shapes = (
{
closed = 1;
nodes = (
(776,-33,o),
(809,-11,o),
(842,33,cs),
(851,44,o),
(860,56,o),
(869,66,c),
(878,74,o),
(882,83,o),
(882,91,cs),
(882,99,o),
(876,103,o),
(864,103,cs),
(852,103,o),
(837,92,o),
(820,69,cs),
(784,24,o),
(766,13,o),
(738,13,cs),
(724,13,o),
(714,21,o),
(710,37,cs),
(706,52,o),
(703,81,o),
(703,123,cs),
(703,164,o),
(706,201,o),
(711,232,cs),
(716,264,o),
(723,313,o),
(733,380,cs),
(743,447,o),
(757,522,o),
(776,606,c),
(833,673,o),
(869,754,o),
(883,849,cs),
(888,878,o),
(890,900,o),
(890,916,cs),
(890,941,ls),
(890,946,o),
(888,963,o),
(875,963,cs),
(861,963,o),
(847,952,o),
(841,939,c),
(797,868,o),
(778,789,o),
(759,693,c),
(752,667,o),
(745,640,o),
(738,613,c),
(683,554,o),
(608,524,o),
(512,524,cs),
(493,524,o),
(474,525,o),
(456,527,c),
(427,558,o),
(393,573,o),
(353,573,cs),
(313,573,o),
(269,559,o),
(269,533,cs),
(269,506,o),
(320,489,o),
(421,481,c),
(455,444,o),
(472,392,o),
(472,322,cs),
(472,285,o),
(460,242,o),
(437,194,cs),
(389,97,o),
(307,25,o),
(210,25,cs),
(157,25,o),
(122,49,o),
(122,128,cs),
(122,167,o),
(126,206,o),
(134,243,cs),
(142,281,o),
(150,322,o),
(159,369,cs),
(177,460,o),
(229,677,o),
(252,754,c),
(288,867,l),
(295,894,o),
(302,921,o),
(302,951,cs),
(302,965,o),
(296,972,o),
(284,972,cs),
(265,972,o),
(252,955,o),
(252,934,c),
(253,914,o),
(249,891,o),
(240,860,c),
(199,725,l),
(169,630,o),
(115,387,o),
(91,249,cs),
(79,179,o),
(73,133,o),
(73,110,cs),
(73,87,o),
(75,68,o),
(80,53,cs),
(93,4,o),
(134,-21,o),
(202,-21,cs),
(253,-21,o),
(304,-1,o),
(354,37,cs),
(453,114,o),
(522,241,o),
(522,340,cs),
(522,390,o),
(511,436,o),
(489,478,c),
(511,478,ls),
(599,478,o),
(659,504,o),
(724,556,c),
(712,500,ls),
(707,476,o),
(701,449,o),
(694,419,cs),
(687,389,o),
(681,358,o),
(674,325,cs),
(662,260,o),
(652,193,o),
(652,113,cs),
(652,33,o),
(666,-33,o),
(745,-33,cs)
);
},
{
closed = 1;
nodes = (
(799,740,o),
(806,779,o),
(847,851,c),
(846,770,o),
(825,724,o),
(797,693,c)
);
}
);
width = 940;
}
);
note = uni042B;
unicode = 1067;
},
{
glyphname = "Hardsign-cy";
kernLeft = T;
kernRight = "Softsign-cy";
lastChange = "2024-10-31 14:38:07 +0000";
layers = (
{
layerId = "79E705E9-1ED7-4818-9510-7FD15DA5A41F";
shapes = (
{
closed = 1;
nodes = (
(355,-7,o),
(398,9,o),
(438,40,cs),
(516,102,o),
(563,201,o),
(563,281,cs),
(563,360,o),
(521,426,o),
(408,426,cs),
(401,426,o),
(391,424,o),
(380,422,cs),
(338,413,o),
(299,393,o),
(263,362,c),
(274,481,o),
(311,623,o),
(374,785,c),
(397,783,o),
(418,782,o),
(438,782,cs),
(567,782,o),
(631,821,o),
(631,898,cs),
(631,939,o),
(591,976,o),
(540,976,cs),
(473,976,o),
(413,930,o),
(362,839,c),
(346,843,ls),
(279,857,o),
(227,877,o),
(191,901,c),
(184,902,l),
(179,902,o),
(174,901,o),
(169,898,c),
(157,892,o),
(150,881,o),
(150,864,c),
(164,834,o),
(171,797,o),
(171,753,cs),
(171,751,o),
(171,749,o),
(171,747,c),
(166,626,l),
(166,617,o),
(171,612,o),
(180,612,cs),
(192,612,o),
(209,624,o),
(215,640,c),
(220,670,o),
(222,700,o),
(222,731,cs),
(222,763,o),
(219,795,o),
(213,828,c),
(252,811,o),
(294,798,o),
(337,791,c),
(286,683,o),
(247,550,o),
(220,391,cs),
(207,316,o),
(201,250,o),
(201,192,cs),
(201,77,o),
(233,-7,o),
(309,-7,cs)
);
},
{
closed = 1;
nodes = (
(273,42,o),
(247,90,o),
(247,187,cs),
(247,216,o),
(249,250,o),
(254,289,c),
(284,338,o),
(349,378,o),
(410,378,cs),
(472,378,o),
(513,325,o),
(513,258,cs),
(513,162,o),
(424,42,o),
(326,42,cs)
);
},
{
closed = 1;
nodes = (
(433,824,o),
(417,827,o),
(400,832,c),
(438,887,o),
(485,929,o),
(515,929,cs),
(544,929,o),
(584,923,o),
(584,878,cs),
(584,861,o),
(556,845,o),
(501,831,cs),
(484,826,o),
(468,824,o),
(451,824,cs)
);
}
);
width = 690;
}
);
note = uni042A;
unicode = 1066;
},
{
glyphname = "Lje-cy";
kernLeft = "El-cy";
kernRight = "Softsign-cy";
lastChange = "2024-10-31 14:38:07 +0000";
layers = (
{
layerId = "79E705E9-1ED7-4818-9510-7FD15DA5A41F";
shapes = (
{
closed = 1;
nodes = (
(191,-43,o),
(230,-21,o),
(268,22,cs),
(314,75,o),
(377,186,o),
(407,279,cs),
(421,326,o),
(433,360,o),
(440,383,cs),
(447,405,o),
(455,431,o),
(464,459,cs),
(498,563,o),
(530,647,o),
(561,710,cs),
(583,754,ls),
(613,814,o),
(646,856,o),
(681,880,c),
(665,822,o),
(638,709,o),
(601,540,cs),
(575,428,l),
(553,402,ls),
(549,396,o),
(547,390,o),
(547,381,cs),
(547,373,o),
(552,369,o),
(561,367,c),
(537,254,o),
(523,177,o),
(520,135,c),
(520,55,o),
(574,-7,o),
(639,-7,cs),
(656,-7,o),
(676,-2,o),
(697,6,cs),
(823,55,o),
(894,193,o),
(894,267,cs),
(894,328,o),
(876,380,o),
(841,425,cs),
(807,469,o),
(755,498,o),
(700,498,cs),
(673,498,o),
(650,493,o),
(633,482,c),
(646,540,ls),
(683,715,o),
(716,850,o),
(746,945,c),
(746,961,o),
(741,969,o),
(731,969,cs),
(717,969,o),
(707,958,o),
(698,937,c),
(648,914,o),
(602,864,o),
(582,833,cs),
(542,771,o),
(491,676,o),
(436,506,cs),
(409,420,o),
(386,352,o),
(369,301,cs),
(333,197,o),
(254,3,o),
(164,3,cs),
(130,3,o),
(97,19,o),
(66,51,cs),
(26,93,o),
(-1,146,o),
(-4,158,c),
(-6,164,o),
(-8,170,o),
(-10,175,c),
(-15,187,o),
(-21,195,o),
(-34,195,c),
(-47,195,o),
(-59,181,o),
(-59,170,cs),
(-59,164,o),
(-48,144,o),
(-47,136,cs),
(-40,97,o),
(57,-43,o),
(151,-43,cs)
);
},
{
closed = 1;
nodes = (
(604,39,o),
(566,82,o),
(566,142,cs),
(566,172,o),
(569,198,o),
(575,219,cs),
(582,240,o),
(585,255,o),
(587,266,cs),
(590,285,o),
(604,345,o),
(610,375,cs),
(613,390,o),
(616,404,o),
(619,419,c),
(636,438,o),
(654,451,o),
(695,451,cs),
(778,451,o),
(846,360,o),
(846,268,cs),
(846,175,o),
(757,78,o),
(690,50,cs),
(673,42,o),
(656,39,o),
(639,39,cs)
);
}
);
width = 944;
}
);
note = uni0409;
unicode = 1033;
},
{
glyphname = "Nje-cy";
kernLeft = H;
kernRight = "Softsign-cy";
lastChange = "2024-10-31 14:38:07 +0000";
layers = (
{
layerId = "79E705E9-1ED7-4818-9510-7FD15DA5A41F";
shapes = (
{
closed = 1;
nodes = (
(50,-34,o),
(59,-27,o),
(66,-14,c),
(85,63,o),
(106,142,o),
(129,222,cs),
(152,301,o),
(173,381,o),
(194,464,c),
(288,489,o),
(405,506,o),
(547,513,c),
(527,428,l),
(505,402,l),
(501,396,o),
(499,389,o),
(499,381,cs),
(499,374,o),
(504,369,o),
(513,367,c),
(489,253,o),
(475,176,o),
(472,135,c),
(472,55,o),
(525,-7,o),
(591,-7,cs),
(608,-7,o),
(628,-2,o),
(649,6,cs),
(775,55,o),
(846,193,o),
(846,267,cs),
(846,328,o),
(829,380,o),
(793,425,cs),
(759,469,o),
(707,498,o),
(652,498,cs),
(625,498,o),
(603,493,o),
(585,482,c),
(652,788,o),
(663,833,o),
(698,945,c),
(698,961,o),
(693,969,o),
(683,969,cs),
(672,969,o),
(658,959,o),
(653,945,c),
(628,868,o),
(596,740,o),
(557,559,c),
(419,552,o),
(302,537,o),
(206,512,c),
(245,675,o),
(265,819,o),
(266,944,cs),
(266,951,l),
(266,952,o),
(265,953,o),
(265,954,cs),
(265,955,l),
(263,960,o),
(260,964,o),
(256,966,c),
(255,967,l),
(253,967,l),
(251,967,o),
(250,968,o),
(249,968,c),
(237,967,o),
(228,960,o),
(220,946,c),
(220,938,ls),
(219,815,o),
(198,669,o),
(157,499,c),
(152,497,o),
(143,494,o),
(132,491,cs),
(120,487,o),
(105,481,o),
(88,473,cs),
(70,465,o),
(52,458,o),
(33,451,cs),
(15,444,o),
(-6,433,o),
(-30,419,cs),
(-108,371,o),
(-148,328,o),
(-148,289,cs),
(-148,270,o),
(-141,260,o),
(-127,260,cs),
(-114,260,o),
(-101,273,o),
(-101,288,c),
(-103,297,l),
(-103,309,o),
(-92,323,o),
(-70,339,cs),
(-65,343,o),
(-61,346,o),
(-58,348,cs),
(-6,389,o),
(62,422,o),
(145,450,c),
(125,371,o),
(104,292,o),
(82,215,cs),
(60,138,o),
(40,62,o),
(21,-14,c),
(22,-27,o),
(28,-34,o),
(38,-34,cs)
);
},
{
closed = 1;
nodes = (
(556,39,o),
(518,82,o),
(518,142,cs),
(518,172,o),
(521,198,o),
(527,219,cs),
(534,240,o),
(538,255,o),
(539,266,cs),
(541,275,o),
(545,296,o),
(552,328,cs),
(559,360,o),
(565,390,o),
(571,419,c),
(588,438,o),
(606,451,o),
(647,451,cs),
(688,451,o),
(729,427,o),
(755,392,cs),
(784,355,o),
(798,313,o),
(798,267,cs),
(798,175,o),
(690,39,o),
(591,39,cs)
);
}
);
width = 896;
}
);
metricRight = "Softsign-cy";
note = uni040A;
unicode = 1034;
},
{
glyphname = "Dze-cy";
kernLeft = S;
kernRight = S;
lastChange = "2024-10-31 14:38:07 +0000";
layers = (
{
layerId = "79E705E9-1ED7-4818-9510-7FD15DA5A41F";
shapes = (
{
closed = 1;
nodes = (
(422,-11,o),
(488,127,o),
(488,245,cs),
(488,303,o),
(474,369,o),
(446,442,cs),
(434,474,o),
(421,505,o),
(407,536,cs),
(393,567,o),
(380,599,o),
(368,630,cs),
(344,692,o),
(326,756,o),
(326,815,cs),
(326,874,o),
(358,925,o),
(421,925,cs),
(483,925,o),
(526,878,o),
(535,819,cs),
(537,807,o),
(543,801,o),
(553,801,cs),
(565,801,o),
(579,813,o),
(579,826,cs),
(579,832,o),
(578,836,o),
(575,841,c),
(550,925,o),
(499,967,o),
(421,967,cs),
(324,967,o),
(278,885,o),
(278,788,cs),
(278,738,o),
(305,651,o),
(359,525,cs),
(413,400,o),
(440,308,o),
(440,250,cs),
(440,135,o),
(367,33,o),
(249,33,cs),
(189,33,o),
(141,46,o),
(104,72,cs),
(66,98,o),
(41,134,o),
(41,199,cs),
(41,264,o),
(67,316,o),
(134,377,c),
(137,381,o),
(138,387,o),
(138,392,cs),
(138,403,o),
(132,408,o),
(119,408,cs),
(113,408,o),
(106,405,o),
(100,400,cs),
(80,382,o),
(63,365,o),
(50,349,cs),
(12,303,o),
(-7,248,o),
(-7,185,cs),
(-7,59,o),
(108,-11,o),
(244,-11,cs)
);
}
);
width = 560;
}
);
note = uni0405;
unicode = 1029;
},
{
glyphname = "E-cy";
kernLeft = O;
kernRight = C;
lastChange = "2024-10-31 14:38:07 +0000";
layers = (
{
layerId = "79E705E9-1ED7-4818-9510-7FD15DA5A41F";
shapes = (
{
closed = 1;
nodes = (
(321,-34,o),
(367,-10,o),
(414,37,cs),
(431,54,o),
(440,68,o),
(440,79,cs),
(440,90,o),
(434,95,o),
(422,95,cs),
(416,95,o),
(409,92,o),
(402,87,c),
(394,75,o),
(384,64,o),
(373,55,cs),
(338,25,o),
(298,10,o),
(251,10,cs),
(159,10,o),
(103,109,o),
(103,266,cs),
(103,307,o),
(106,349,o),
(113,390,cs),
(120,431,o),
(125,457,o),
(126,467,cs),
(127,477,o),
(129,488,o),
(131,498,c),
(134,500,o),
(137,501,o),
(140,501,c),
(152,499,o),
(165,493,o),
(179,484,cs),
(192,476,o),
(212,459,o),
(239,434,cs),
(279,396,o),
(318,377,o),
(355,377,cs),
(392,378,l),
(413,379,o),
(436,391,o),
(462,412,cs),
(484,431,o),
(541,493,o),
(541,509,cs),
(541,520,o),
(535,526,o),
(524,526,cs),
(517,526,o),
(510,523,o),
(504,518,c),
(494,507,o),
(484,496,o),
(476,484,cs),
(442,441,o),
(405,420,o),
(365,420,cs),
(334,420,o),
(299,441,o),
(257,484,cs),
(216,526,o),
(182,548,o),
(156,548,cs),
(147,548,o),
(143,547,o),
(141,547,c),
(194,807,o),
(308,940,o),
(439,940,c),
(490,938,o),
(515,936,o),
(515,936,c),
(528,940,o),
(539,953,o),
(539,965,cs),
(539,973,o),
(533,979,o),
(522,982,c),
(446,985,l),
(419,985,o),
(395,981,o),
(374,974,cs),
(231,921,o),
(136,768,o),
(89,516,c),
(67,495,o),
(49,469,o),
(49,461,cs),
(49,454,o),
(57,445,o),
(65,445,cs),
(69,445,o),
(73,445,o),
(77,447,c),
(77,445,o),
(76,444,o),
(76,443,cs),
(76,439,l),
(64,369,o),
(58,310,o),
(58,262,cs),
(58,215,o),
(60,183,o),
(64,167,cs),
(69,150,o),
(73,134,o),
(76,117,cs),
(80,100,o),
(84,83,o),
(90,68,cs),
(102,37,o),
(119,10,o),
(158,-15,cs),
(177,-28,o),
(217,-34,o),
(277,-34,cs)
);
}
);
width = 512;
}
);
note = uni0404;
unicode = 1028;
},
{
glyphname = "Ereversed-cy";
kernLeft = "Ereversed-cy";
kernRight = O;
lastChange = "2024-10-31 14:38:07 +0000";
layers = (
{
layerId = "79E705E9-1ED7-4818-9510-7FD15DA5A41F";
shapes = (
{
closed = 1;
nodes = (
(279,-9,o),
(366,42,o),
(409,110,cs),
(474,215,o),
(520,326,o),
(547,443,c),
(562,455,o),
(570,465,o),
(570,476,cs),
(570,485,o),
(565,491,o),
(557,492,c),
(569,563,o),
(576,642,o),
(576,728,cs),
(576,802,o),
(561,990,o),
(427,990,cs),
(384,990,o),
(322,960,o),
(285,927,cs),
(266,910,o),
(257,898,o),
(257,892,cs),
(257,880,o),
(262,874,o),
(273,874,cs),
(277,874,o),
(281,875,o),
(285,876,c),
(347,917,o),
(388,940,o),
(427,940,cs),
(447,940,o),
(463,933,o),
(476,920,cs),
(511,884,o),
(529,813,o),
(529,707,cs),
(529,632,o),
(520,554,o),
(503,471,c),
(490,463,o),
(477,459,o),
(465,459,cs),
(433,459,o),
(389,479,o),
(330,519,cs),
(298,528,o),
(282,531,o),
(261,531,cs),
(231,531,o),
(217,533,o),
(196,517,cs),
(186,508,o),
(174,499,o),
(160,489,c),
(151,481,o),
(147,475,o),
(147,469,cs),
(147,456,o),
(153,449,o),
(165,449,cs),
(173,449,o),
(185,455,o),
(201,467,cs),
(231,492,o),
(232,483,o),
(274,483,cs),
(285,483,o),
(301,480,o),
(322,473,cs),
(356,449,o),
(387,433,o),
(413,424,cs),
(429,418,o),
(444,415,o),
(457,415,cs),
(471,415,o),
(482,416,o),
(492,418,c),
(447,234,o),
(345,36,o),
(218,36,cs),
(145,36,o),
(76,90,o),
(49,159,c),
(44,167,o),
(38,170,o),
(31,170,cs),
(17,170,o),
(5,154,o),
(5,138,c),
(40,49,o),
(123,-9,o),
(225,-9,cs)
);
}
);
width = 623;
}
);
metricLeft = O;
metricRight = O;
note = uni042D;
unicode = 1069;
},
{
glyphname = "I-cy";
kernLeft = H;
kernRight = H;
lastChange = "2024-10-31 14:38:07 +0000";
layers = (
{
layerId = "79E705E9-1ED7-4818-9510-7FD15DA5A41F";
shapes = (
{
closed = 1;
nodes = (
(175,-8,o),
(188,8,o),
(188,16,cs),
(188,21,o),
(187,24,o),
(186,26,c),
(180,37,o),
(146,43,o),
(85,45,c),
(120,238,o),
(186,528,o),
(282,915,c),
(298,915,o),
(311,914,o),
(320,914,cs),
(352,914,l),
(367,917,o),
(379,930,o),
(379,943,cs),
(379,950,o),
(374,956,o),
(364,959,c),
(323,959,o),
(285,960,o),
(251,960,cs),
(166,960,l),
(149,958,o),
(135,945,o),
(135,934,cs),
(135,921,o),
(141,915,o),
(154,915,cs),
(196,915,l),
(223,915,ls),
(226,915,o),
(230,915,o),
(235,915,c),
(219,844,o),
(189,719,o),
(147,539,cs),
(104,358,o),
(70,194,o),
(42,46,c),
(38,46,ls),
(-25,46,o),
(-56,35,o),
(-56,12,cs),
(-56,3,o),
(-50,-5,o),
(-36,-5,cs),
(-31,-5,l),
(-14,0,o),
(2,3,o),
(18,3,cs),
(48,3,o),
(63,0,o),
(103,-5,cs),
(122,-8,o),
(141,-10,o),
(159,-10,c)
);
}
);
width = 271;
}
);
note = uni0406;
unicode = 1030;
},
{
glyphname = "Yi-cy";
kernLeft = H;
kernRight = H;
lastChange = "2024-10-31 14:38:07 +0000";
layers = (
{
layerId = "79E705E9-1ED7-4818-9510-7FD15DA5A41F";
shapes = (
{
closed = 1;
nodes = (
(175,-8,o),
(188,7,o),
(188,19,cs),
(188,34,o),
(151,43,o),
(77,45,c),
(82,50,o),
(85,56,o),
(86,63,cs),
(100,194,o),
(134,329,o),
(154,413,cs),
(164,456,o),
(180,531,o),
(203,639,cs),
(226,747,o),
(252,838,o),
(282,912,c),
(291,912,o),
(298,912,o),
(305,911,c),
(334,911,ls),
(348,910,o),
(359,910,o),
(369,910,c),
(384,914,o),
(396,925,o),
(396,939,cs),
(396,946,o),
(391,952,o),
(381,955,c),
(349,956,o),
(324,957,o),
(307,958,cs),
(289,958,o),
(268,959,o),
(244,959,cs),
(220,959,o),
(196,958,o),
(171,955,c),
(166,955,l),
(149,954,o),
(135,940,o),
(135,927,cs),
(135,917,o),
(141,912,o),
(154,910,c),
(159,910,ls),
(190,910,o),
(216,911,o),
(236,912,c),
(197,814,o),
(170,691,o),
(151,604,cs),
(142,560,o),
(124,481,o),
(97,367,cs),
(70,253,o),
(51,149,o),
(40,56,c),
(40,52,o),
(41,48,o),
(42,46,c),
(38,46,ls),
(-25,46,o),
(-56,35,o),
(-56,12,cs),
(-56,3,o),
(-50,-5,o),
(-36,-5,cs),
(-31,-5,l),
(-14,0,o),
(2,3,o),
(18,3,cs),
(48,3,o),
(63,0,o),
(103,-5,cs),
(122,-8,o),
(141,-10,o),
(159,-10,c)
);
},
{
closed = 1;
nodes = (
(218,1041,o),
(258,1078,o),
(258,1099,cs),
(258,1109,o),
(252,1121,o),
(242,1134,c),
(242,1133,l),
(234,1140,o),
(227,1144,o),
(219,1144,cs),
(204,1144,o),
(194,1138,o),
(187,1128,cs),
(178,1118,o),
(173,1105,o),
(173,1087,cs),
(173,1069,o),
(184,1041,o),
(201,1041,cs)
);
},
{
closed = 1;
nodes = (
(425,1047,o),
(450,1081,o),
(450,1110,cs),
(450,1130,o),
(439,1141,o),
(418,1141,cs),
(400,1141,o),
(368,1113,o),
(368,1081,cs),
(368,1065,o),
(375,1054,o),
(392,1049,c),
(395,1047,o),
(397,1047,o),
(400,1047,cs)
);
}
);
width = 295;
}
);
note = uni0407;
unicode = 1031;
},
{
glyphname = "Je-cy";
kernLeft = J;
kernRight = J;
lastChange = "2024-10-31 14:38:07 +0000";
layers = (
{
layerId = "79E705E9-1ED7-4818-9510-7FD15DA5A41F";
shapes = (
{
closed = 1;
nodes = (
(185,-13,o),
(240,6,o),
(282,46,cs),
(353,114,o),
(391,236,o),
(411,337,cs),
(420,387,o),
(428,428,o),
(434,460,cs),
(440,492,o),
(454,563,o),
(475,672,cs),
(496,781,o),
(516,872,o),
(535,945,c),
(532,956,o),
(526,962,o),
(517,962,cs),
(512,962,o),
(508,960,o),
(505,958,c),
(500,960,o),
(497,962,o),
(493,962,cs),
(488,962,o),
(484,960,o),
(480,958,cs),
(458,945,o),
(437,939,o),
(415,939,cs),
(393,939,o),
(364,944,o),
(328,954,cs),
(292,963,o),
(266,969,o),
(249,971,c),
(235,969,o),
(221,955,o),
(221,941,cs),
(221,935,o),
(226,929,o),
(235,925,c),
(255,923,o),
(284,917,o),
(321,907,cs),
(358,897,o),
(389,892,o),
(414,892,cs),
(438,892,o),
(462,899,o),
(486,912,c),
(481,891,o),
(476,866,o),
(470,838,cs),
(464,810,o),
(458,779,o),
(451,748,cs),
(437,683,o),
(422,613,o),
(409,547,cs),
(402,514,o),
(396,482,o),
(389,453,cs),
(383,422,o),
(377,395,o),
(372,371,cs),
(349,261,o),
(321,180,o),
(290,129,cs),
(252,68,o),
(198,30,o),
(136,30,cs),
(104,30,o),
(78,39,o),
(58,57,cs),
(16,94,o),
(-11,152,o),
(-21,198,cs),
(-23,207,o),
(-30,211,o),
(-42,211,cs),
(-51,211,o),
(-65,198,o),
(-65,179,cs),
(-65,169,o),
(-55,144,o),
(-36,103,cs),
(0,25,o),
(52,-13,o),
(119,-13,cs)
);
}
);
width = 510;
}
);
note = uni0408;
unicode = 1032;
},
{
glyphname = "Tshe-cy";
kernLeft = T;
kernRight = "Tshe-cy";
lastChange = "2024-10-31 16:27:39 +0000";
layers = (
{
background = {
anchors = (
{
name = bottom;
pos = (132,61);
},
{
name = bottomright;
pos = (93,10);
},
{
name = top;
pos = (470,960);
}
);
shapes = (
{
closed = 1;
nodes = (
(114,-19,o),
(129,-13,o),
(132,0,cs),
(171,154,o),
(192,272,o),
(247,568,cs),
(274,716,o),
(296,832,o),
(314,917,c),
(412,924,o),
(341,916,o),
(444,916,c),
(576,924,l),
(596,924,o),
(612,922,o),
(626,920,c),
(643,920,o),
(657,934,o),
(657,948,cs),
(657,960,o),
(629,967,o),
(575,967,cs),
(449,963,ls),
(405,963,o),
(379,962,o),
(371,961,c),
(323,957,l),
(323,959,o),
(323,960,o),
(324,962,c),
(324,978,o),
(318,986,o),
(308,986,cs),
(294,986,o),
(283,976,o),
(274,957,c),
(261,957,l),
(194,962,l),
(180,959,o),
(173,949,o),
(173,930,c),
(174,913,o),
(194,905,o),
(232,905,c),
(269,906,l),
(261,881,l),
(244,796,o),
(218,661,o),
(185,476,cs),
(151,291,o),
(126,166,o),
(110,100,cs),
(95,35,o),
(87,0,o),
(87,-3,cs),
(87,-14,o),
(93,-19,o),
(104,-19,cs)
);
},
{
closed = 1;
nodes = (
(320,-362,o),
(432,-181,o),
(488,116,cs),
(513,251,o),
(527,309,o),
(527,406,cs),
(527,503,o),
(493,552,o),
(417,552,cs),
(332,552,o),
(267,482,o),
(200,342,c),
(93,72,l),
(93,55,o),
(102,44,o),
(110,44,cs),
(134,44,o),
(146,52,o),
(146,67,c),
(209,287,o),
(311,502,o),
(407,502,cs),
(482,502,o),
(494,451,o),
(478,341,cs),
(413,-122,o),
(300,-312,o),
(164,-312,cs),
(128,-312,o),
(100,-308,o),
(78,-299,cs),
(65,-293,o),
(54,-305,o),
(54,-320,cs),
(54,-332,o),
(57,-339,o),
(65,-343,cs),
(90,-354,o),
(119,-362,o),
(155,-362,cs)
);
}
);
};
layerId = "79E705E9-1ED7-4818-9510-7FD15DA5A41F";
shapes = (
{
alignment = -1;
pos = (36,8);
ref = "topbar-cy.case";
scale = (2.1,1);
},
{
closed = 1;
nodes = (
(114,-19,o),
(129,-13,o),
(132,0,cs),
(171,154,o),
(192,272,o),
(247,568,cs),
(274,716,o),
(300,857,o),
(318,942,c),
(327,982,l),
(327,984,o),
(327,985,o),
(328,987,c),
(328,1003,o),
(322,1011,o),
(312,1011,c),
(283,1011,o),
(272,943,o),
(265,906,cs),
(249,819,o),
(218,661,o),
(185,476,cs),
(151,291,o),
(126,166,o),
(110,100,cs),
(95,35,o),
(87,0,o),
(87,-3,cs),
(87,-14,o),
(93,-19,o),
(104,-19,cs)
);
},
{
closed = 1;
nodes = (
(471,35,o),
(480,77,o),
(488,116,cs),
(513,251,o),
(527,309,o),
(527,406,cs),
(527,503,o),
(493,552,o),
(417,552,cs),
(332,552,o),
(267,482,o),
(200,342,c),
(93,72,l),
(93,55,o),
(102,44,o),
(110,44,cs),
(134,44,o),
(146,52,o),
(146,67,c),
(209,287,o),
(311,502,o),
(407,502,cs),
(482,502,o),
(494,451,o),
(478,341,cs),
(459,207,o),
(437,97,o),
(410,7,c),
(404,-12,o),
(423,-19,o),
(434,-19,cs),
(444,-19,o),
(459,-13,o),
(462,0,cs)
);
}
);
width = 719;
},
{
associatedMasterId = "79E705E9-1ED7-4818-9510-7FD15DA5A41F";
background = {
shapes = (
{
closed = 1;
nodes = (
(313,-8,o),
(325,0,o),
(325,15,c),
(324,32,l),
(324,49,o),
(342,123,o),
(358,169,cs),
(374,215,o),
(494,450,o),
(565,450,cs),
(583,450,o),
(592,434,o),
(592,400,cs),
(592,386,o),
(591,374,o),
(590,364,cs),
(531,39,ls),
(530,34,o),
(530,29,o),
(530,22,cs),
(530,10,o),
(538,-7,o),
(557,-7,cs),
(576,-7,o),
(589,4,o),
(589,21,c),
(587,60,l),
(587,78,o),
(596,132,o),
(614,225,cs),
(631,309,ls),
(639,351,o),
(644,383,o),
(644,407,cs),
(644,454,o),
(620,500,o),
(570,500,cs),
(510,500,o),
(445,430,o),
(378,290,c),
(393,357,o),
(407,426,o),
(422,497,cs),
(437,567,o),
(448,621,o),
(456,657,c),
(478,657,ls),
(519,657,o),
(547,659,o),
(561,663,cs),
(578,667,o),
(587,677,o),
(587,692,cs),
(587,700,o),
(582,706,o),
(571,709,c),
(526,707,o),
(493,705,o),
(474,705,cs),
(466,705,l),
(471,731,o),
(478,766,o),
(487,811,cs),
(497,855,o),
(506,898,o),
(514,940,c),
(509,957,o),
(499,965,o),
(482,965,cs),
(473,965,o),
(467,960,o),
(465,950,cs),
(461,937,l),
(450,873,o),
(435,796,o),
(417,707,c),
(406,707,ls),
(403,707,o),
(399,707,o),
(394,707,c),
(364,706,ls),
(356,706,o),
(347,708,o),
(339,710,cs),
(331,712,o),
(323,713,o),
(317,713,cs),
(302,713,o),
(288,701,o),
(288,689,cs),
(288,683,o),
(290,678,o),
(294,673,c),
(300,670,o),
(309,667,o),
(321,664,cs),
(333,661,o),
(361,658,o),
(407,657,c),
(399,620,o),
(391,581,o),
(382,542,cs),
(374,502,o),
(366,463,o),
(358,424,cs),
(349,384,o),
(333,309,o),
(308,197,cs),
(283,85,o),
(271,22,o),
(271,7,cs),
(271,5,o),
(271,4,o),
(272,4,c),
(274,-4,o),
(279,-8,o),
(288,-8,cs)
);
}
);
};
layerId = "9B47BD6E-48B7-44DC-8945-7D5997F80584";
name = "31 Oct 24 at 15:45";
shapes = (
{
alignment = -1;
angle = 180;
pos = (670,960);
ref = "Che-cy";
},
{
alignment = -1;
pos = (179,-15);
ref = "topbar-cy.case";
scale = (2.1,1);
}
);
width = 719;
}
);
note = uni040B;
unicode = 1035;
},
{
glyphname = "Yu-cy";
kernLeft = H;
kernRight = O;
lastChange = "2024-10-31 14:38:12 +0000";
layers = (
{
layerId = "79E705E9-1ED7-4818-9510-7FD15DA5A41F";
shapes = (
{
closed = 1;
nodes = (
(604,-10,o),
(634,-3,o),
(661,11,cs),
(785,76,o),
(874,273,o),
(928,601,cs),
(937,654,o),
(941,698,o),
(941,732,cs),
(941,811,o),
(928,867,o),
(901,901,c),
(904,905,o),
(905,910,o),
(905,914,cs),
(905,917,o),
(905,920,o),
(903,924,c),
(873,958,o),
(834,974,o),
(786,974,cs),
(604,974,o),
(449,782,o),
(384,546,c),
(367,544,o),
(350,542,o),
(333,539,cs),
(298,533,o),
(280,531,o),
(254,528,cs),
(241,527,o),
(229,525,o),
(217,522,c),
(233,602,o),
(249,674,o),
(263,739,cs),
(277,803,o),
(285,841,o),
(287,852,cs),
(290,863,o),
(292,875,o),
(295,885,cs),
(301,906,o),
(310,929,o),
(317,943,cs),
(320,950,o),
(322,954,o),
(322,956,cs),
(322,961,ls),
(322,970,o),
(318,974,o),
(311,974,cs),
(300,974,o),
(284,964,o),
(276,950,c),
(245,884,o),
(235,835,o),
(218,746,cs),
(200,656,o),
(172,525,o),
(168,504,cs),
(166,494,o),
(164,484,o),
(162,476,cs),
(158,458,o),
(91,128,o),
(73,8,c),
(73,-2,o),
(78,-7,o),
(86,-7,cs),
(97,-7,o),
(112,1,o),
(119,14,c),
(120,14,l),
(120,17,l),
(123,24,l),
(123,25,o),
(123,26,o),
(122,28,c),
(145,162,o),
(173,312,o),
(207,475,c),
(234,476,o),
(265,479,o),
(300,487,cs),
(334,494,o),
(359,499,o),
(372,500,c),
(360,445,o),
(354,390,o),
(354,335,cs),
(354,238,o),
(372,158,o),
(408,95,cs),
(444,31,o),
(500,-10,o),
(569,-10,cs)
);
},
{
closed = 1;
nodes = (
(462,40,o),
(402,184,o),
(402,362,cs),
(402,478,o),
(432,590,o),
(492,700,cs),
(565,834,o),
(666,928,o),
(764,928,cs),
(789,928,o),
(811,923,o),
(830,912,c),
(825,907,o),
(822,901,o),
(822,896,cs),
(822,883,o),
(830,877,o),
(840,869,cs),
(851,860,o),
(864,850,o),
(874,829,cs),
(884,809,o),
(892,777,o),
(892,732,cs),
(892,709,o),
(889,678,o),
(884,638,cs),
(849,379,o),
(759,40,o),
(577,40,cs)
);
}
);
width = 959;
}
);
metricRight = O;
note = uni042E;
unicode = 1070;
},
{
glyphname = "Ya-cy";
kernLeft = "Ia-cy";
kernRight = H;
lastChange = "2024-10-31 14:38:12 +0000";
layers = (
{
layerId = "79E705E9-1ED7-4818-9510-7FD15DA5A41F";
shapes = (
{
closed = 1;
nodes = (
(-296,-365,o),
(-139,-257,o),
(29,-67,cs),
(64,-27,o),
(100,15,o),
(134,59,cs),
(168,102,o),
(204,145,o),
(240,187,cs),
(312,271,o),
(371,326,o),
(473,406,c),
(489,415,o),
(508,427,o),
(529,442,c),
(449,92,ls),
(446,79,o),
(442,65,o),
(439,50,c),
(430,2,l),
(430,-8,o),
(435,-14,o),
(444,-15,c),
(456,-15,o),
(465,-8,o),
(474,6,cs),
(490,35,o),
(503,100,o),
(516,156,cs),
(522,185,o),
(528,212,o),
(534,239,cs),
(546,292,o),
(557,340,o),
(575,416,cs),
(584,454,o),
(593,495,o),
(602,540,cs),
(610,584,o),
(620,628,o),
(631,672,cs),
(689,909,l),
(701,896,o),
(712,879,o),
(724,858,c),
(728,856,o),
(732,856,o),
(738,856,cs),
(750,856,o),
(768,873,o),
(768,883,cs),
(768,889,o),
(768,893,o),
(766,896,c),
(729,969,o),
(669,1005,o),
(584,1005,cs),
(544,1005,o),
(508,999,o),
(475,986,cs),
(288,916,o),
(215,708,o),
(215,579,cs),
(215,477,o),
(305,388,o),
(382,382,c),
(251,276,o),
(177,187,o),
(111,105,cs),
(78,64,o),
(44,24,o),
(9,-16,cs),
(-61,-96,o),
(-136,-171,o),
(-221,-227,cs),
(-306,-283,o),
(-399,-319,o),
(-517,-319,cs),
(-635,-319,o),
(-762,-243,o),
(-834,-133,c),
(-837,-130,o),
(-842,-129,o),
(-850,-129,cs),
(-864,-129,o),
(-879,-145,o),
(-879,-163,cs),
(-879,-167,l),
(-800,-284,o),
(-655,-365,o),
(-515,-365,cs)
);
},
{
closed = 1;
nodes = (
(323,429,o),
(264,509,o),
(264,609,cs),
(264,658,o),
(278,710,o),
(306,766,cs),
(362,875,o),
(461,958,o),
(570,958,cs),
(600,958,o),
(627,951,o),
(652,938,c),
(646,934,o),
(643,927,o),
(642,920,c),
(642,918,ls),
(642,917,o),
(643,916,o),
(643,914,c),
(607,773,o),
(573,629,o),
(539,484,c),
(536,485,l),
(529,485,o),
(519,480,o),
(507,472,cs),
(495,463,o),
(485,458,o),
(479,456,cs),
(473,453,o),
(469,451,o),
(466,448,c),
(439,436,o),
(414,429,o),
(389,429,cs)
);
}
);
width = 768;
}
);
note = uni042F;
unicode = 1071;
},
{
glyphname = "Dje-cy";
kernLeft = T;
kernRight = "Dje-cy";
lastChange = "2024-10-31 14:38:07 +0000";
layers = (
{
layerId = "79E705E9-1ED7-4818-9510-7FD15DA5A41F";
shapes = (
{
closed = 1;
nodes = (
(385,-414,o),
(496,-233,o),
(552,64,cs),
(577,199,o),
(586,252,o),
(586,339,cs),
(586,446,o),
(543,500,o),
(457,500,cs),
(396,500,o),
(332,430,o),
(264,290,c),
(280,357,o),
(299,447,o),
(322,559,cs),
(345,670,o),
(359,741,o),
(365,769,c),
(394,909,l),
(403,907,o),
(425,905,o),
(460,905,cs),
(478,905,o),
(504,908,o),
(539,915,cs),
(608,921,o),
(649,924,o),
(660,924,cs),
(693,924,o),
(709,934,o),
(709,954,cs),
(709,962,o),
(703,968,o),
(692,971,c),
(687,971,o),
(682,970,o),
(678,970,cs),
(631,971,ls),
(602,971,o),
(522,966,o),
(470,957,cs),
(458,955,o),
(420,954,o),
(411,954,cs),
(403,954,o),
(397,954,o),
(394,954,c),
(388,961,o),
(380,965,o),
(370,965,cs),
(361,965,o),
(355,961,o),
(352,954,c),
(209,957,o),
(138,958,o),
(132,958,cs),
(84,958,o),
(60,947,o),
(60,926,cs),
(60,916,o),
(67,911,o),
(81,909,c),
(115,911,o),
(147,912,o),
(177,912,cs),
(207,912,o),
(236,912,o),
(342,909,c),
(320,781,o),
(285,611,o),
(239,400,cs),
(193,188,o),
(165,62,o),
(157,20,c),
(157,3,o),
(167,-8,o),
(174,-8,cs),
(199,-8,o),
(211,0,o),
(211,15,c),
(210,25,l),
(220,77,l),
(225,104,o),
(230,123,o),
(244,167,cs),
(251,190,o),
(270,228,o),
(300,280,cs),
(366,394,o),
(416,450,o),
(451,450,cs),
(527,450,o),
(558,399,o),
(547,323,cs),
(495,-176,o),
(364,-364,o),
(228,-364,cs),
(193,-364,o),
(164,-359,o),
(143,-351,c),
(130,-354,o),
(118,-368,o),
(118,-380,cs),
(118,-386,o),
(122,-391,o),
(129,-395,cs),
(153,-408,o),
(183,-414,o),
(219,-414,cs)
);
}
);
width = 660;
}
);
note = uni0402;
unicode = 1026;
},
{
glyphname = "Yusbig-cy";
kernLeft = "Yusbig-cy";
kernRight = "Yusbig-cy";
lastChange = "2024-10-31 14:38:07 +0000";
layers = (
{
anchors = (
{
name = bottomright;
pos = (874,13);
},
{
name = top;
pos = (655,962);
}
);
layerId = "79E705E9-1ED7-4818-9510-7FD15DA5A41F";
shapes = (
{
closed = 1;
nodes = (
(67,-9,o),
(137,16,o),
(204,64,cs),
(312,143,o),
(384,252,o),
(472,406,c),
(478,395,o),
(485,386,o),
(493,379,c),
(472,278,o),
(458,209,o),
(450,173,cs),
(443,136,o),
(437,107,o),
(432,85,cs),
(426,64,o),
(423,42,o),
(421,18,c),
(422,4,o),
(428,-3,o),
(438,-3,cs),
(450,-3,o),
(464,5,o),
(468,36,cs),
(469,51,o),
(473,68,o),
(478,88,cs),
(482,108,o),
(489,138,o),
(497,178,cs),
(505,217,o),
(520,282,o),
(540,372,c),
(545,372,l),
(554,375,o),
(565,383,o),
(579,397,c),
(590,335,o),
(607,273,o),
(631,212,cs),
(679,90,o),
(765,-9,o),
(878,-9,cs),
(908,-9,o),
(928,-6,o),
(940,0,cs),
(964,12,o),
(1011,48,o),
(1011,70,cs),
(1011,82,o),
(1005,87,o),
(992,87,cs),
(986,87,o),
(979,84,o),
(973,79,c),
(946,40,o),
(927,30,o),
(879,30,cs),
(855,30,o),
(832,36,o),
(809,49,cs),
(721,100,o),
(634,255,o),
(620,436,c),
(617,443,l),
(666,509,o),
(763,609,o),
(873,725,cs),
(927,783,o),
(980,845,o),
(1032,910,cs),
(1038,917,o),
(1040,923,o),
(1040,930,cs),
(1040,941,o),
(1034,947,o),
(1023,947,cs),
(1016,947,o),
(1009,944,o),
(1003,939,c),
(931,848,o),
(868,780,o),
(742,646,cs),
(679,578,o),
(616,508,o),
(553,434,c),
(503,427,l),
(492,455,o),
(476,489,o),
(456,530,cs),
(414,610,o),
(345,742,o),
(273,939,c),
(270,944,o),
(264,947,o),
(257,947,cs),
(243,947,o),
(230,934,o),
(230,922,cs),
(230,906,o),
(281,794,o),
(383,585,cs),
(420,511,o),
(439,471,o),
(441,465,c),
(446,442,l),
(441,436,l),
(384,321,o),
(244,121,o),
(89,49,cs),
(61,36,o),
(38,30,o),
(20,30,cs),
(-16,30,o),
(-51,22,o),
(-63,79,c),
(-66,84,o),
(-72,87,o),
(-79,87,cs),
(-93,87,o),
(-107,75,o),
(-107,63,cs),
(-107,58,o),
(-106,53,o),
(-104,50,c),
(-80,1,o),
(-61,-9,o),
(-6,-9,cs)
);
},
{
pos = (200,-18);
ref = "topbar-cy.case";
scale = (3,1);
}
);
width = 1030;
}
);
unicode = 1130;
},
{
glyphname = "Fita-cy";
kernLeft = "Fita-cy";
kernRight = "Fita-cy";
lastChange = "2024-10-31 14:38:07 +0000";
layers = (
{
layerId = "79E705E9-1ED7-4818-9510-7FD15DA5A41F";
shapes = (
{
closed = 1;
nodes = (
(425,409,o),
(397,516,o),
(263,519,cs),
(263,519,ls),
(182,519,o),
(122,493,o),
(56,430,c),
(87,398,l),
(145,454,o),
(194,475,o),
(263,475,c),
(262,475,l),
(357,473,o),
(406,363,o),
(548,373,c),
(545,417,l)
);
},
{
pos = (8,0);
ref = O;
}
);
width = 669;
}
);
metricLeft = O;
metricRight = O;
unicode = 1138;
},
{
glyphname = "Izhitsa-cy";
kernLeft = "Izhitsa-cy";
kernRight = "Izhitsa-cy";
lastChange = "2024-10-31 14:38:07 +0000";
layers = (
{
background = {
shapes = (
{
closed = 1;
nodes = (
(480,907,o),
(421,555,o),
(299,336,c),
(333,318,l),
(458,542,o),
(515,878,o),
(684,939,cs),
(696,944,o),
(704,954,o),
(701,965,cs),
(699,976,o),
(686,982,o),
(671,977,cs)
);
}
);
};
layerId = "79E705E9-1ED7-4818-9510-7FD15DA5A41F";
shapes = (
{
closed = 1;
nodes = (
(129,-16,o),
(137,-11,o),
(145,0,cs),
(216,91,o),
(285,208,o),
(340,320,cs),
(465,544,o),
(515,878,o),
(684,939,cs),
(696,944,o),
(704,954,o),
(701,965,cs),
(699,976,o),
(686,982,o),
(671,977,cs),
(482,905,o),
(423,563,o),
(301,341,cs),
(259,257,o),
(208,167,o),
(146,70,c),
(135,163,o),
(114,307,o),
(83,500,cs),
(52,694,o),
(32,843,o),
(21,948,c),
(19,959,o),
(12,965,o),
(3,965,cs),
(-7,965,o),
(-21,954,o),
(-24,941,c),
(-10,823,o),
(12,672,o),
(41,486,cs),
(69,300,o),
(86,181,o),
(91,130,cs),
(97,79,o),
(102,35,o),
(107,-2,c),
(111,-11,o),
(116,-16,o),
(123,-16,cs)
);
}
);
width = 572;
}
);
unicode = 1140;
},
{
glyphname = "Zhedescender-cy";
kernLeft = "Zhedescender-cy";
kernRight = "Zhe-cy";
lastChange = "2024-10-31 14:38:07 +0000";
layers = (
{
anchors = (
{
name = _bottomright;
pos = (729,44);
}
);
layerId = "79E705E9-1ED7-4818-9510-7FD15DA5A41F";
shapes = (
{
closed = 1;
nodes = (
(943,42,l),
(965,25,o),
(994,-16,o),
(1005,-45,cs),
(1026,-96,o),
(1027,-138,o),
(1010,-176,cs),
(977,-253,o),
(901,-314,o),
(824,-346,cs),
(772,-367,o),
(706,-387,o),
(673,-347,cs),
(665,-337,o),
(652,-321,o),
(644,-301,cs),
(638,-290,o),
(632,-281,o),
(620,-286,cs),
(608,-291,o),
(597,-313,o),
(604,-329,cs),
(646,-417,o),
(733,-433,o),
(841,-389,cs),
(983,-332,o),
(1103,-171,o),
(1047,-31,cs),
(1033,3,o),
(1000,48,o),
(974,70,c)
);
},
{
ref = "Zhe-cy";
}
);
width = 1061;
}
);
metricLeft = "Zhe-cy";
unicode = 1174;
},
{
glyphname = "Kadescender-cy";
kernLeft = "Kadescender-cy";
kernRight = H;
lastChange = "2024-10-31 14:38:07 +0000";
layers = (
{
layerId = "79E705E9-1ED7-4818-9510-7FD15DA5A41F";
shapes = (
{
closed = 1;
nodes = (
(519,42,l),
(540,25,o),
(569,-16,o),
(581,-45,cs),
(601,-96,o),
(602,-138,o),
(585,-176,cs),
(552,-253,o),
(477,-314,o),
(399,-346,cs),
(347,-367,o),
(281,-387,o),
(249,-347,cs),
(240,-336,o),
(228,-321,o),
(220,-301,cs),
(215,-289,o),
(208,-281,o),
(195,-286,cs),
(183,-291,o),
(172,-313,o),
(180,-329,cs),
(223,-416,o),
(308,-433,o),
(417,-389,cs),
(558,-333,o),
(678,-171,o),
(622,-31,cs),
(608,3,o),
(575,48,o),
(549,70,c)
);
},
{
ref = "Ka-cy";
}
);
width = 613;
}
);
metricLeft = "Ka-cy";
unicode = 1178;
},
{
glyphname = "Kaverticalstroke-cy";
kernLeft = "Kaverticalstroke-cy";
kernRight = "Kaverticalstroke-cy";
lastChange = "2024-10-31 16:55:15 +0000";
layers = (
{
anchors = (
{
name = bottomright;
pos = (429,19);
},
{
name = top;
pos = (307,960);
}
);
background = {
shapes = (
{
alignment = -1;
pos = (37,-357);
ref = "verticalbar-cy";
}
);
};
layerId = "79E705E9-1ED7-4818-9510-7FD15DA5A41F";
shapes = (
{
closed = 1;
nodes = (
(560,-9,o),
(580,-7,o),
(597,-4,cs),
(630,1,o),
(682,46,o),
(682,69,cs),
(682,81,o),
(675,87,o),
(662,87,cs),
(656,87,o),
(650,84,o),
(644,79,c),
(619,42,o),
(598,36,o),
(550,36,cs),
(424,36,o),
(364,169,o),
(324,579,c),
(283,540,l),
(331,159,o),
(356,-9,o),
(538,-9,cs)
);
},
{
closed = 1;
nodes = (
(22,-9,o),
(36,3,o),
(39,19,c),
(65,177,o),
(89,268,o),
(189,699,cs),
(209,784,o),
(227,869,o),
(243,952,c),
(243,958,ls),
(243,970,o),
(238,976,o),
(227,976,cs),
(217,976,o),
(204,966,o),
(198,952,c),
(181,876,o),
(150,742,o),
(105,549,cs),
(61,357,o),
(23,178,o),
(-7,12,c),
(-5,-2,o),
(0,-9,o),
(11,-9,cs)
);
},
{
alignment = -1;
pos = (41,-121);
ref = "verticalbar-cy";
scale = (1.2,1);
},
{
closed = 1;
nodes = (
(335,524,o),
(450,657,o),
(654,930,cs),
(659,937,o),
(662,943,o),
(662,950,cs),
(662,961,o),
(656,967,o),
(645,967,cs),
(638,967,o),
(631,964,o),
(625,959,c),
(361,644,o),
(306,545,o),
(117,463,c),
(104,408,l)
);
}
);
width = 711;
}
);
metricRight = "Ka-cy";
unicode = 1180;
},
{
glyphname = "EnGe-cy";
kernLeft = "Enghe-cy";
kernRight = "Enghe-cy";
lastChange = "2024-10-31 14:38:12 +0000";
layers = (
{
anchors = (
{
name = bottomright;
pos = (602,0);
},
{
name = topright;
pos = (775,951);
}
);
layerId = "79E705E9-1ED7-4818-9510-7FD15DA5A41F";
shapes = (
{
closed = 1;
nodes = (
(149,-34,o),
(158,-27,o),
(165,-14,c),
(184,63,o),
(206,142,o),
(229,222,cs),
(251,301,o),
(273,382,o),
(293,464,c),
(396,492,o),
(525,509,o),
(680,515,c),
(666,427,ls),
(660,392,o),
(654,357,o),
(647,323,cs),
(633,254,o),
(606,130,o),
(602,10,c),
(604,-4,o),
(609,-11,o),
(619,-11,cs),
(631,-11,o),
(646,1,o),
(648,17,c),
(652,134,o),
(676,245,o),
(699,360,cs),
(710,417,o),
(719,470,o),
(725,517,c),
(751,518,o),
(778,519,o),
(805,519,c),
(813,523,o),
(819,536,o),
(819,548,cs),
(819,556,o),
(815,562,o),
(809,565,c),
(783,564,o),
(758,563,o),
(732,562,c),
(737,604,o),
(744,655,o),
(752,717,cs),
(761,779,o),
(768,822,o),
(773,848,cs),
(786,900,ls),
(791,923,o),
(794,943,o),
(795,961,c),
(792,972,o),
(787,978,o),
(778,978,cs),
(766,978,o),
(753,967,o),
(749,954,c),
(748,934,o),
(740,895,o),
(726,837,cs),
(721,818,o),
(708,727,o),
(686,561,c),
(532,554,o),
(405,538,o),
(305,512,c),
(337,711,o),
(357,858,o),
(365,951,c),
(367,963,o),
(362,968,o),
(348,968,cs),
(331,968,o),
(321,960,o),
(319,944,cs),
(314,907,o),
(310,870,o),
(306,833,cs),
(298,758,o),
(284,616,o),
(256,499,c),
(253,498,o),
(245,495,o),
(232,491,cs),
(220,487,o),
(205,481,o),
(187,473,cs),
(169,465,o),
(152,458,o),
(135,452,cs),
(118,446,o),
(96,435,o),
(69,419,cs),
(-9,372,o),
(-49,329,o),
(-49,289,cs),
(-49,270,o),
(-42,260,o),
(-28,260,cs),
(-15,260,o),
(-2,273,o),
(-2,288,c),
(-4,297,l),
(-4,297,o),
(-4,298,o),
(-4,299,cs),
(-4,310,o),
(7,323,o),
(30,340,cs),
(35,343,o),
(39,346,o),
(41,348,cs),
(91,388,o),
(159,422,o),
(244,450,c),
(224,371,o),
(203,292,o),
(181,215,cs),
(159,137,o),
(138,61,o),
(120,-14,c),
(122,-27,o),
(127,-34,o),
(137,-34,cs)
);
},
{
alignment = -1;
pos = (761,11);
ref = "topbar-cy.case";
scale = (1.2,1);
}
);
width = 1075;
}
);
metricLeft = "En-cy";
metricRight = "Ge-cy";
unicode = 1188;
},
{
glyphname = "Pemiddlehook-cy";
kernLeft = "Pemiddlehook-cy";
kernRight = "Pemiddlehook-cy";
lastChange = "2024-10-31 14:38:07 +0000";
layers = (
{
anchors = (
{
name = bottomright;
pos = (500,0);
}
);
layerId = "79E705E9-1ED7-4818-9510-7FD15DA5A41F";
shapes = (
{
closed = 1;
nodes = (
(522,-21,o),
(530,-13,o),
(535,2,c),
(563,149,l),
(576,216,o),
(584,260,o),
(589,281,cs),
(597,323,o),
(604,360,o),
(611,389,cs),
(614,403,o),
(618,423,o),
(623,449,cs),
(628,474,o),
(642,538,o),
(663,642,cs),
(684,746,o),
(708,842,o),
(733,929,c),
(767,929,l),
(884,920,l),
(898,923,o),
(912,936,o),
(912,949,cs),
(912,956,o),
(907,961,o),
(896,965,c),
(874,967,o),
(849,969,o),
(824,972,cs),
(799,974,o),
(780,975,o),
(767,975,c),
(472,970,l),
(560,971,o),
(528,970,o),
(497,970,cs),
(465,969,o),
(418,969,o),
(355,969,cs),
(292,969,o),
(220,973,o),
(140,981,c),
(123,979,o),
(108,966,o),
(108,953,cs),
(108,945,o),
(115,939,o),
(127,936,c),
(179,930,o),
(230,927,o),
(282,926,c),
(279,916,o),
(278,902,o),
(277,886,cs),
(276,869,o),
(260,791,o),
(229,651,cs),
(167,366,ls),
(140,245,o),
(117,129,o),
(98,18,c),
(99,5,o),
(104,-2,o),
(115,-2,cs),
(127,-2,o),
(136,5,o),
(143,18,c),
(325,920,l),
(326,920,o),
(327,922,o),
(329,925,c),
(389,925,l),
(688,928,l),
(654,812,o),
(618,657,o),
(582,465,cs),
(567,387,o),
(553,309,o),
(539,231,cs),
(530,183,o),
(509,81,o),
(492,-3,cs),
(492,-15,o),
(498,-21,o),
(510,-21,cs)
);
},
{
pos = (438,0);
ref = "_part.curl-cy.case";
}
);
width = 981;
}
);
unicode = 1190;
},
{
glyphname = "Haabkhasian-cy";
kernLeft = "Haabkhasian-cy";
kernRight = "Haabkhasian-cy";
lastChange = "2024-10-31 14:38:07 +0000";
layers = (
{
anchors = (
{
name = bottom;
pos = (271,-7);
},
{
name = bottomleft;
pos = (44,-7);
},
{
name = bottomright;
pos = (645,-7);
},
{
name = center;
pos = (345,473);
},
{
name = ogonek;
pos = (97,948);
},
{
name = top;
pos = (345,953);
}
);
background = {
shapes = (
{
closed = 0;
nodes = (
(305,311,l)
);
},
{
closed = 0;
nodes = (
(351,304,l)
);
}
);
};
layerId = "79E705E9-1ED7-4818-9510-7FD15DA5A41F";
shapes = (
{
closed = 1;
nodes = (
(632,-160,o),
(594,-167,o),
(577,-168,cs),
(568,-168,o),
(560,-168,o),
(554,-167,cs),
(510,-156,o),
(475,-133,o),
(447,-94,cs),
(430,-69,o),
(415,-40,o),
(402,-4,c),
(529,74,o),
(618,303,o),
(620,561,c),
(619,601,o),
(613,700,o),
(517,700,cs),
(402,700,o),
(316,532,o),
(309,311,c),
(308,304,o),
(308,294,o),
(309,282,cs),
(311,227,o),
(325,120,o),
(353,22,c),
(234,-21,o),
(160,53,o),
(136,102,cs),
(110,154,o),
(98,215,o),
(98,284,cs),
(98,354,o),
(105,425,o),
(121,499,cs),
(160,681,o),
(266,929,o),
(438,929,cs),
(477,929,o),
(509,920,o),
(546,895,cs),
(565,881,o),
(579,880,o),
(588,893,cs),
(598,906,o),
(595,920,o),
(577,933,cs),
(539,961,o),
(496,975,o),
(447,975,cs),
(334,975,o),
(233,891,o),
(162,762,cs),
(91,632,o),
(51,471,o),
(51,328,cs),
(51,294,o),
(52,263,o),
(55,234,cs),
(73,48,o),
(205,-82,o),
(366,-21,c),
(380,-63,o),
(396,-99,o),
(416,-126,cs),
(438,-160,o),
(465,-184,o),
(494,-199,cs),
(553,-229,o),
(621,-220,o),
(634,-211,cs),
(646,-202,o),
(650,-184,o),
(642,-173,cs)
);
},
{
closed = 1;
nodes = (
(358,501,o),
(429,656,o),
(517,656,cs),
(605,656,o),
(585,452,o),
(538,296,cs),
(501,178,o),
(446,85,o),
(388,42,c),
(369,112,o),
(357,200,o),
(353,304,c)
);
}
);
width = 816;
}
);
metricLeft = O;
metricRight = O;
unicode = 1192;
},
